{"glyphs":{"0":{"ha":939,"x_min":61,"x_max":878,"o":"m 469 -22 q 164 107 267 -22 q 61 486 61 236 q 164 865 61 736 q 469 994 267 994 q 775 865 672 994 q 878 486 878 736 q 775 107 878 236 q 469 -22 672 -22 m 263 486 q 313 231 263 313 q 469 150 363 150 q 626 231 576 150 q 676 486 676 313 q 626 741 676 660 q 469 822 576 822 q 313 741 363 822 q 263 486 263 660 z "},"1":{"ha":739,"x_min":43,"x_max":704,"o":"m 43 182 l 283 182 l 283 785 l 119 785 l 119 972 l 479 972 l 479 182 l 704 182 l 704 0 l 43 0 l 43 182 z "},"2":{"ha":806,"x_min":49,"x_max":758,"o":"m 49 201 q 110 403 49 332 q 290 507 172 475 l 429 546 q 528 594 497 565 q 558 672 558 624 q 522 758 558 725 q 421 790 485 790 l 94 790 l 94 972 l 421 972 q 596 936 519 972 q 715 832 672 900 q 758 674 758 764 q 693 496 758 569 q 524 392 628 422 l 347 340 q 274 300 296 325 q 251 232 251 275 l 251 182 l 747 182 l 747 0 l 49 0 l 49 201 z "},"3":{"ha":797,"x_min":35,"x_max":743,"o":"m 49 182 l 371 182 q 499 215 454 182 q 543 307 543 247 q 499 393 543 363 q 372 424 456 424 l 215 424 l 215 582 l 446 790 l 35 790 l 35 972 l 704 972 l 704 790 l 460 578 q 666 498 589 572 q 743 307 743 424 q 696 147 743 217 q 564 38 649 76 q 371 0 479 0 l 49 0 l 49 182 z "},"4":{"ha":885,"x_min":36,"x_max":868,"o":"m 531 264 l 36 264 l 36 439 l 457 972 l 724 972 l 724 439 l 868 439 l 868 264 l 724 264 l 724 0 l 531 0 l 531 264 m 531 439 l 531 804 l 244 439 l 531 439 z "},"5":{"ha":788,"x_min":61,"x_max":733,"o":"m 61 182 l 376 182 q 490 218 447 182 q 533 313 533 254 q 493 408 533 372 q 378 444 453 444 l 85 444 l 85 972 l 694 972 l 694 790 l 279 790 l 279 621 l 403 621 q 575 583 500 621 q 692 476 650 544 q 733 319 733 408 q 689 153 733 226 q 563 40 644 81 q 376 0 482 0 l 61 0 l 61 182 z "},"6":{"ha":858,"x_min":61,"x_max":819,"o":"m 449 -22 q 250 30 338 -22 q 112 187 163 82 q 61 443 61 292 q 175 832 61 692 q 539 972 289 972 l 742 972 l 742 790 l 539 790 q 330 734 392 790 q 260 560 268 678 q 349 617 294 594 q 478 639 404 639 q 656 598 578 639 q 776 483 733 557 q 819 315 819 410 q 772 143 819 219 q 641 22 725 67 q 449 -22 557 -22 m 271 308 q 319 197 271 240 q 444 153 368 153 q 571 196 522 153 q 619 308 619 239 q 571 420 619 376 q 444 464 522 464 q 319 421 368 464 q 271 308 271 378 z "},"7":{"ha":815,"x_min":57,"x_max":781,"o":"m 251 190 q 263 399 251 315 q 315 559 275 482 q 433 711 354 636 l 515 790 l 57 790 l 57 972 l 781 972 l 781 790 l 604 632 q 515 525 547 579 q 468 394 483 471 q 453 203 453 318 l 453 0 l 251 0 l 251 190 z "},"8":{"ha":888,"x_min":56,"x_max":832,"o":"m 443 -22 q 235 15 322 -22 q 101 122 147 53 q 56 285 56 192 q 99 426 56 363 q 210 518 142 489 q 117 599 150 543 q 83 721 83 654 q 128 864 83 801 q 255 960 174 926 q 443 994 336 994 q 632 960 550 994 q 759 864 714 926 q 804 721 804 801 q 771 599 804 654 q 678 518 738 543 q 789 426 746 489 q 832 285 832 363 q 786 122 832 192 q 652 15 740 53 q 443 -22 564 -22 m 256 292 q 306 185 256 225 q 443 144 356 144 q 582 185 532 144 q 632 292 632 225 q 582 395 632 357 q 443 433 532 433 q 305 394 354 433 q 256 292 256 356 m 283 710 q 326 626 283 657 q 443 594 369 594 q 561 626 518 594 q 604 710 604 657 q 561 796 604 764 q 443 828 518 828 q 326 796 369 828 q 283 710 283 764 z "},"9":{"ha":858,"x_min":39,"x_max":797,"o":"m 410 994 q 608 942 521 994 q 747 785 696 890 q 797 529 797 681 q 683 140 797 281 q 319 0 569 0 l 117 0 l 117 182 l 319 182 q 528 238 467 182 q 599 413 590 294 q 509 356 564 378 q 381 333 454 333 q 203 374 281 333 q 82 489 125 415 q 39 657 39 563 q 86 829 39 753 q 217 950 133 906 q 410 994 301 994 m 239 664 q 288 552 239 596 q 414 508 336 508 q 539 551 490 508 q 588 664 588 594 q 539 776 588 732 q 414 819 490 819 q 288 776 336 819 q 239 664 239 733 z "},"\r":{"ha":344,"x_min":0,"x_max":0,"o":""}," ":{"ha":344,"x_min":0,"x_max":0,"o":""},"A":{"ha":1018,"x_min":22,"x_max":996,"o":"m 371 972 l 649 972 l 996 0 l 778 0 l 694 250 l 324 250 l 240 0 l 22 0 l 371 972 m 633 432 l 510 801 l 385 432 l 633 432 z "},"B":{"ha":956,"x_min":115,"x_max":876,"o":"m 115 972 l 558 972 q 769 906 690 972 q 849 728 849 839 q 815 603 849 660 q 725 514 781 547 q 835 426 793 485 q 876 285 876 367 q 840 138 876 203 q 734 36 803 72 q 574 0 665 0 l 115 0 l 115 972 m 544 183 q 640 215 606 183 q 674 304 674 247 q 640 392 674 361 q 544 424 607 424 l 315 424 l 315 183 l 544 183 m 529 593 q 615 619 585 593 q 646 692 646 644 q 615 764 646 739 q 529 789 583 789 l 315 789 l 315 593 l 529 593 z "},"C":{"ha":964,"x_min":68,"x_max":918,"o":"m 514 -22 q 281 34 382 -22 q 124 204 181 90 q 68 485 68 318 q 189 865 68 735 q 518 994 310 994 q 790 905 683 994 q 918 646 897 815 l 711 646 q 646 766 699 725 q 518 807 593 807 q 275 486 275 807 q 340 243 275 321 q 514 165 406 165 q 646 211 594 165 q 710 340 697 257 l 917 340 q 786 74 892 171 q 514 -22 681 -22 z "},"D":{"ha":1003,"x_min":115,"x_max":935,"o":"m 115 972 l 478 972 q 722 914 619 972 q 880 746 825 856 q 935 486 935 636 q 881 226 935 336 q 724 58 826 117 q 478 0 621 0 l 115 0 l 115 972 m 489 185 q 669 266 608 185 q 729 486 729 347 q 669 706 729 625 q 489 788 608 788 l 315 788 l 315 185 l 489 185 z "},"E":{"ha":840,"x_min":115,"x_max":744,"o":"m 115 972 l 744 972 l 744 785 l 315 785 l 315 603 l 744 603 l 744 415 l 315 415 l 315 188 l 744 188 l 744 0 l 115 0 l 115 972 z "},"F":{"ha":793,"x_min":115,"x_max":725,"o":"m 115 972 l 725 972 l 725 785 l 315 785 l 315 589 l 725 589 l 725 401 l 315 401 l 315 0 l 115 0 l 115 972 z "},"G":{"ha":1010,"x_min":68,"x_max":922,"o":"m 499 -22 q 274 38 371 -22 q 122 213 176 99 q 68 483 68 328 q 122 756 68 640 q 278 933 176 871 q 517 994 379 994 q 796 907 689 994 q 922 660 903 819 l 713 660 q 649 770 700 731 q 517 810 599 810 q 338 725 401 810 q 275 483 275 640 q 529 163 275 163 q 662 202 610 163 q 725 319 714 242 l 442 319 l 442 501 l 922 501 l 922 0 l 756 0 l 756 90 q 649 8 717 39 q 499 -22 582 -22 z "},"H":{"ha":1026,"x_min":115,"x_max":910,"o":"m 710 415 l 315 415 l 315 0 l 115 0 l 115 972 l 315 972 l 315 603 l 710 603 l 710 972 l 910 972 l 910 0 l 710 0 l 710 415 z "},"I":{"ha":432,"x_min":115,"x_max":315,"o":"m 115 972 l 315 972 l 315 0 l 115 0 l 115 972 z "},"J":{"ha":676,"x_min":24,"x_max":574,"o":"m 24 188 l 249 188 q 343 225 313 188 q 374 342 374 263 l 374 972 l 574 972 l 574 342 q 541 142 574 217 q 438 34 508 68 q 249 0 367 0 l 24 0 l 24 188 z "},"K":{"ha":951,"x_min":115,"x_max":929,"o":"m 396 407 l 315 407 l 315 0 l 115 0 l 115 972 l 315 972 l 315 611 l 390 611 l 685 972 l 929 972 l 557 517 l 929 0 l 683 0 l 396 407 z "},"L":{"ha":771,"x_min":115,"x_max":749,"o":"m 115 972 l 315 972 l 315 188 l 749 188 l 749 0 l 115 0 l 115 972 z "},"M":{"ha":1261,"x_min":115,"x_max":1146,"o":"m 115 972 l 397 972 l 631 265 l 864 972 l 1146 972 l 1146 0 l 951 0 l 951 696 l 719 0 l 542 0 l 310 696 l 310 0 l 115 0 l 115 972 z "},"N":{"ha":1026,"x_min":115,"x_max":910,"o":"m 115 972 l 354 972 l 710 321 l 710 972 l 910 972 l 910 0 l 671 0 l 315 653 l 315 0 l 115 0 l 115 972 z "},"O":{"ha":1033,"x_min":68,"x_max":965,"o":"m 517 -22 q 283 37 385 -22 q 125 210 182 96 q 68 486 68 325 q 125 762 68 647 q 283 935 182 876 q 517 994 385 994 q 751 935 650 994 q 909 762 853 876 q 965 486 965 647 q 909 210 965 325 q 751 37 853 96 q 517 -22 650 -22 m 275 486 q 341 247 275 328 q 517 165 407 165 q 693 247 626 165 q 760 486 760 328 q 693 726 760 644 q 517 807 626 807 q 341 726 407 807 q 275 486 275 644 z "},"P":{"ha":926,"x_min":115,"x_max":876,"o":"m 115 972 l 539 972 q 785 890 694 972 q 876 665 876 808 q 785 440 876 522 q 539 357 694 357 l 315 357 l 315 0 l 115 0 l 115 972 m 529 546 q 635 578 597 546 q 674 665 674 610 q 635 753 674 721 q 529 785 597 785 l 315 785 l 315 546 l 529 546 z "},"Q":{"ha":1040,"x_min":68,"x_max":999,"o":"m 517 0 q 283 58 385 0 q 125 228 182 115 q 68 500 68 342 q 125 769 68 657 q 283 938 182 881 q 517 994 385 994 q 751 938 650 994 q 909 773 853 882 q 965 511 965 664 q 932 324 965 411 q 833 176 899 238 l 999 176 l 999 0 l 517 0 m 275 500 q 341 266 275 346 q 517 186 407 186 q 693 266 626 186 q 760 500 760 346 q 693 729 760 651 q 517 807 626 807 q 341 729 407 807 q 275 500 275 651 z "},"R":{"ha":969,"x_min":115,"x_max":918,"o":"m 115 972 l 553 972 q 799 892 708 972 q 890 672 890 813 q 825 478 890 556 q 646 379 760 401 l 918 0 l 674 0 l 404 378 l 315 378 l 315 0 l 115 0 l 115 972 m 551 560 q 652 590 617 560 q 688 672 688 619 q 652 755 688 725 q 551 785 617 785 l 315 785 l 315 560 l 551 560 z "},"S":{"ha":882,"x_min":47,"x_max":828,"o":"m 450 -22 q 156 65 264 -22 q 47 304 49 151 l 251 304 q 306 196 253 236 q 450 156 360 156 q 574 191 528 156 q 621 286 621 226 q 588 365 621 338 q 482 403 554 393 l 369 417 q 149 506 222 435 q 76 699 76 578 q 122 854 76 788 q 251 958 168 921 q 440 994 333 994 q 713 917 614 994 q 814 704 811 839 l 611 704 q 563 789 608 758 q 440 819 518 819 q 326 790 369 819 q 282 711 282 760 q 318 638 282 664 q 432 603 354 613 l 536 590 q 828 300 828 553 q 783 130 828 203 q 652 17 738 57 q 450 -22 567 -22 z "},"T":{"ha":835,"x_min":22,"x_max":813,"o":"m 318 785 l 22 785 l 22 972 l 813 972 l 813 785 l 518 785 l 518 0 l 318 0 l 318 785 z "},"U":{"ha":975,"x_min":103,"x_max":874,"o":"m 488 -22 q 206 81 308 -22 q 103 365 103 185 l 103 972 l 303 972 l 303 381 q 351 221 303 276 q 488 165 400 165 q 625 221 576 165 q 674 381 674 276 l 674 972 l 874 972 l 874 365 q 827 158 874 246 q 693 24 781 71 q 488 -22 606 -22 z "},"V":{"ha":971,"x_min":22,"x_max":949,"o":"m 22 972 l 246 972 l 486 222 l 725 972 l 949 972 l 624 0 l 347 0 l 22 972 z "},"W":{"ha":1332,"x_min":32,"x_max":1301,"o":"m 32 972 l 247 972 l 401 275 l 556 972 l 776 972 l 932 278 l 1086 972 l 1301 972 l 1060 0 l 822 0 l 667 693 l 510 0 l 272 0 l 32 972 z "},"X":{"ha":967,"x_min":22,"x_max":944,"o":"m 361 513 l 38 972 l 286 972 l 483 674 l 681 972 l 931 972 l 607 514 l 944 0 l 700 0 l 483 353 l 267 0 l 22 0 l 361 513 z "},"Y":{"ha":963,"x_min":10,"x_max":954,"o":"m 382 403 l 10 972 l 247 972 l 482 601 l 715 972 l 954 972 l 582 403 l 582 0 l 382 0 l 382 403 z "},"Z":{"ha":861,"x_min":53,"x_max":804,"o":"m 53 188 l 546 785 l 67 785 l 67 972 l 797 972 l 797 785 l 304 188 l 804 188 l 804 0 l 53 0 l 53 188 z "},"Á":{"ha":1018,"x_min":22,"x_max":996,"o":"m 371 972 l 649 972 l 996 0 l 778 0 l 694 250 l 324 250 l 240 0 l 22 0 l 371 972 m 633 432 l 510 801 l 385 432 l 633 432 m 510 1225 l 699 1225 l 604 1049 l 428 1049 l 510 1225 z "},"Ă":{"ha":1018,"x_min":22,"x_max":996,"o":"m 371 972 l 649 972 l 996 0 l 778 0 l 694 250 l 324 250 l 240 0 l 22 0 l 371 972 m 633 432 l 510 801 l 385 432 l 633 432 m 511 1044 q 366 1090 422 1044 q 310 1225 310 1135 l 446 1225 q 464 1173 446 1190 q 511 1156 482 1156 q 558 1173 540 1156 q 576 1225 576 1190 l 713 1225 q 656 1090 713 1135 q 511 1044 600 1044 z "},"Â":{"ha":1018,"x_min":22,"x_max":996,"o":"m 371 972 l 649 972 l 996 0 l 778 0 l 694 250 l 324 250 l 240 0 l 22 0 l 371 972 m 633 432 l 510 801 l 385 432 l 633 432 m 408 1225 l 614 1225 l 722 1049 l 561 1049 l 511 1150 l 461 1049 l 300 1049 l 408 1225 z "},"Ä":{"ha":1018,"x_min":22,"x_max":996,"o":"m 371 972 l 649 972 l 996 0 l 778 0 l 694 250 l 324 250 l 240 0 l 22 0 l 371 972 m 633 432 l 510 801 l 385 432 l 633 432 m 561 1218 l 739 1218 l 739 1049 l 561 1049 l 561 1218 m 283 1218 l 461 1218 l 461 1049 l 283 1049 l 283 1218 z "},"Ạ":{"ha":1018,"x_min":22,"x_max":996,"o":"m 371 972 l 649 972 l 996 0 l 778 0 l 694 250 l 324 250 l 240 0 l 22 0 l 371 972 m 633 432 l 510 801 l 385 432 l 633 432 m 408 -71 l 613 -71 l 613 -250 l 408 -250 l 408 -71 z "},"Æ":{"ha":1276,"x_min":22,"x_max":1181,"o":"m 374 972 l 1181 972 l 1181 785 l 796 785 l 796 603 l 1181 603 l 1181 415 l 796 415 l 796 188 l 1181 188 l 1181 0 l 601 0 l 601 250 l 325 250 l 240 0 l 22 0 l 374 972 m 601 432 l 601 785 l 506 785 l 386 432 l 601 432 z "},"Ǽ":{"ha":1276,"x_min":22,"x_max":1181,"o":"m 374 972 l 1181 972 l 1181 785 l 796 785 l 796 603 l 1181 603 l 1181 415 l 796 415 l 796 188 l 1181 188 l 1181 0 l 601 0 l 601 250 l 325 250 l 240 0 l 22 0 l 374 972 m 601 432 l 601 785 l 506 785 l 386 432 l 601 432 m 668 1225 l 857 1225 l 763 1049 l 586 1049 l 668 1225 z "},"À":{"ha":1018,"x_min":22,"x_max":996,"o":"m 371 972 l 649 972 l 996 0 l 778 0 l 694 250 l 324 250 l 240 0 l 22 0 l 371 972 m 633 432 l 510 801 l 385 432 l 633 432 m 322 1225 l 511 1225 l 593 1049 l 417 1049 l 322 1225 z "},"Ā":{"ha":1018,"x_min":22,"x_max":996,"o":"m 371 972 l 649 972 l 996 0 l 778 0 l 694 250 l 324 250 l 240 0 l 22 0 l 371 972 m 633 432 l 510 801 l 385 432 l 633 432 m 303 1200 l 717 1200 l 717 1076 l 303 1076 l 303 1200 z "},"Ą":{"ha":1018,"x_min":22,"x_max":996,"o":"m 371 972 l 649 972 l 996 0 l 864 0 q 803 -62 825 -35 q 782 -110 782 -89 q 835 -151 782 -151 l 886 -151 l 886 -269 l 797 -269 q 681 -236 724 -269 q 638 -146 638 -203 q 669 -55 638 -99 q 765 36 700 -11 l 694 250 l 324 250 l 240 0 l 22 0 l 371 972 m 633 432 l 510 801 l 385 432 l 633 432 z "},"Å":{"ha":1018,"x_min":22,"x_max":996,"o":"m 371 972 l 649 972 l 996 0 l 778 0 l 694 250 l 324 250 l 240 0 l 22 0 l 371 972 m 633 432 l 510 801 l 385 432 l 633 432 m 511 1019 q 394 1062 439 1019 q 349 1169 349 1104 q 394 1277 349 1235 q 511 1319 439 1319 q 627 1277 582 1319 q 672 1169 672 1235 q 627 1062 672 1104 q 511 1019 582 1019 m 447 1169 q 465 1124 447 1142 q 511 1107 482 1107 q 556 1124 539 1107 q 574 1169 574 1142 q 556 1215 574 1197 q 511 1233 539 1233 q 465 1215 482 1233 q 447 1169 447 1197 z "},"Ã":{"ha":1018,"x_min":22,"x_max":996,"o":"m 371 972 l 649 972 l 996 0 l 778 0 l 694 250 l 324 250 l 240 0 l 22 0 l 371 972 m 633 432 l 510 801 l 385 432 l 633 432 m 622 1047 q 524 1071 575 1047 l 485 1089 q 415 1111 440 1111 q 387 1101 397 1111 q 376 1072 376 1090 l 376 1053 l 256 1053 l 256 1076 q 293 1191 256 1151 q 400 1231 331 1231 q 499 1206 449 1231 l 538 1188 q 607 1167 583 1167 q 635 1176 625 1167 q 646 1204 646 1186 l 646 1225 l 767 1225 l 767 1201 q 728 1087 767 1126 q 622 1047 690 1047 z "},"Ć":{"ha":964,"x_min":68,"x_max":918,"o":"m 514 -22 q 281 34 382 -22 q 124 204 181 90 q 68 485 68 318 q 189 865 68 735 q 518 994 310 994 q 790 905 683 994 q 918 646 897 815 l 711 646 q 646 766 699 725 q 518 807 593 807 q 275 486 275 807 q 340 243 275 321 q 514 165 406 165 q 646 211 594 165 q 710 340 697 257 l 917 340 q 786 74 892 171 q 514 -22 681 -22 m 497 1225 l 686 1225 l 592 1049 l 415 1049 l 497 1225 z "},"Č":{"ha":964,"x_min":68,"x_max":918,"o":"m 514 -22 q 281 34 382 -22 q 124 204 181 90 q 68 485 68 318 q 189 865 68 735 q 518 994 310 994 q 790 905 683 994 q 918 646 897 815 l 711 646 q 646 766 699 725 q 518 807 593 807 q 275 486 275 807 q 340 243 275 321 q 514 165 406 165 q 646 211 594 165 q 710 340 697 257 l 917 340 q 786 74 892 171 q 514 -22 681 -22 m 289 1225 l 450 1225 l 500 1122 l 550 1225 l 711 1225 l 603 1049 l 397 1049 l 289 1225 z "},"Ç":{"ha":964,"x_min":68,"x_max":918,"o":"m 364 -175 l 472 -175 q 513 -164 497 -175 q 528 -135 528 -153 q 517 -112 528 -121 q 488 -103 506 -103 l 442 -103 l 472 -21 q 178 121 288 -8 q 68 485 68 250 q 189 865 68 735 q 518 994 310 994 q 790 905 683 994 q 918 646 897 815 l 711 646 q 646 766 699 725 q 518 807 593 807 q 275 486 275 807 q 340 243 275 321 q 514 165 406 165 q 646 211 594 165 q 710 340 697 257 l 917 340 q 810 99 894 193 q 593 -17 726 6 l 582 -40 q 656 -143 656 -64 q 608 -233 656 -196 q 492 -269 561 -269 l 364 -269 l 364 -175 z "},"Ĉ":{"ha":964,"x_min":68,"x_max":918,"o":"m 514 -22 q 281 34 382 -22 q 124 204 181 90 q 68 485 68 318 q 189 865 68 735 q 518 994 310 994 q 790 905 683 994 q 918 646 897 815 l 711 646 q 646 766 699 725 q 518 807 593 807 q 275 486 275 807 q 340 243 275 321 q 514 165 406 165 q 646 211 594 165 q 710 340 697 257 l 917 340 q 786 74 892 171 q 514 -22 681 -22 m 397 1225 l 603 1225 l 711 1049 l 550 1049 l 500 1150 l 450 1049 l 289 1049 l 397 1225 z "},"Ċ":{"ha":964,"x_min":68,"x_max":918,"o":"m 514 -22 q 281 34 382 -22 q 124 204 181 90 q 68 485 68 318 q 189 865 68 735 q 518 994 310 994 q 790 905 683 994 q 918 646 897 815 l 711 646 q 646 766 699 725 q 518 807 593 807 q 275 486 275 807 q 340 243 275 321 q 514 165 406 165 q 646 211 594 165 q 710 340 697 257 l 917 340 q 786 74 892 171 q 514 -22 681 -22 m 396 1218 l 606 1218 l 606 1049 l 396 1049 l 396 1218 z "},"Ď":{"ha":1003,"x_min":115,"x_max":935,"o":"m 115 972 l 478 972 q 722 914 619 972 q 880 746 825 856 q 935 486 935 636 q 881 226 935 336 q 724 58 826 117 q 478 0 621 0 l 115 0 l 115 972 m 489 185 q 669 266 608 185 q 729 486 729 347 q 669 706 729 625 q 489 788 608 788 l 315 788 l 315 185 l 489 185 m 215 1225 l 376 1225 l 426 1122 l 476 1225 l 638 1225 l 529 1049 l 324 1049 l 215 1225 z "},"Đ":{"ha":1003,"x_min":49,"x_max":935,"o":"m 115 429 l 49 429 l 49 576 l 115 576 l 115 972 l 478 972 q 722 914 619 972 q 880 746 825 856 q 935 486 935 636 q 881 226 935 336 q 724 58 826 117 q 478 0 621 0 l 115 0 l 115 429 m 489 185 q 669 266 608 185 q 729 486 729 347 q 669 706 729 625 q 489 788 608 788 l 315 788 l 315 576 l 586 576 l 586 429 l 315 429 l 315 185 l 489 185 z "},"É":{"ha":840,"x_min":115,"x_max":744,"o":"m 115 972 l 744 972 l 744 785 l 315 785 l 315 603 l 744 603 l 744 415 l 315 415 l 315 188 l 744 188 l 744 0 l 115 0 l 115 972 m 449 1225 l 638 1225 l 543 1049 l 367 1049 l 449 1225 z "},"Ĕ":{"ha":840,"x_min":115,"x_max":744,"o":"m 115 972 l 744 972 l 744 785 l 315 785 l 315 603 l 744 603 l 744 415 l 315 415 l 315 188 l 744 188 l 744 0 l 115 0 l 115 972 m 451 1044 q 306 1090 363 1044 q 250 1225 250 1135 l 386 1225 q 404 1173 386 1190 q 451 1156 422 1156 q 499 1173 481 1156 q 517 1225 517 1190 l 653 1225 q 597 1090 653 1135 q 451 1044 540 1044 z "},"Ě":{"ha":840,"x_min":115,"x_max":744,"o":"m 115 972 l 744 972 l 744 785 l 315 785 l 315 603 l 744 603 l 744 415 l 315 415 l 315 188 l 744 188 l 744 0 l 115 0 l 115 972 m 239 1225 l 400 1225 l 450 1122 l 500 1225 l 661 1225 l 553 1049 l 347 1049 l 239 1225 z "},"Ê":{"ha":840,"x_min":115,"x_max":744,"o":"m 115 972 l 744 972 l 744 785 l 315 785 l 315 603 l 744 603 l 744 415 l 315 415 l 315 188 l 744 188 l 744 0 l 115 0 l 115 972 m 347 1225 l 553 1225 l 661 1049 l 500 1049 l 450 1150 l 400 1049 l 239 1049 l 347 1225 z "},"Ë":{"ha":840,"x_min":115,"x_max":744,"o":"m 115 972 l 744 972 l 744 785 l 315 785 l 315 603 l 744 603 l 744 415 l 315 415 l 315 188 l 744 188 l 744 0 l 115 0 l 115 972 m 500 1218 l 678 1218 l 678 1049 l 500 1049 l 500 1218 m 222 1218 l 400 1218 l 400 1049 l 222 1049 l 222 1218 z "},"Ė":{"ha":840,"x_min":115,"x_max":744,"o":"m 115 972 l 744 972 l 744 785 l 315 785 l 315 603 l 744 603 l 744 415 l 315 415 l 315 188 l 744 188 l 744 0 l 115 0 l 115 972 m 346 1218 l 556 1218 l 556 1049 l 346 1049 l 346 1218 z "},"Ẹ":{"ha":840,"x_min":115,"x_max":744,"o":"m 115 972 l 744 972 l 744 785 l 315 785 l 315 603 l 744 603 l 744 415 l 315 415 l 315 188 l 744 188 l 744 0 l 115 0 l 115 972 m 350 -71 l 554 -71 l 554 -250 l 350 -250 l 350 -71 z "},"È":{"ha":840,"x_min":115,"x_max":744,"o":"m 115 972 l 744 972 l 744 785 l 315 785 l 315 603 l 744 603 l 744 415 l 315 415 l 315 188 l 744 188 l 744 0 l 115 0 l 115 972 m 261 1225 l 450 1225 l 532 1049 l 356 1049 l 261 1225 z "},"Ē":{"ha":840,"x_min":115,"x_max":744,"o":"m 115 972 l 744 972 l 744 785 l 315 785 l 315 603 l 744 603 l 744 415 l 315 415 l 315 188 l 744 188 l 744 0 l 115 0 l 115 972 m 243 1200 l 657 1200 l 657 1076 l 243 1076 l 243 1200 z "},"Ę":{"ha":840,"x_min":115,"x_max":744,"o":"m 115 972 l 744 972 l 744 785 l 315 785 l 315 603 l 744 603 l 744 415 l 315 415 l 315 188 l 744 188 l 744 0 l 679 0 q 619 -62 640 -35 q 597 -110 597 -89 q 650 -151 597 -151 l 701 -151 l 701 -269 l 613 -269 q 496 -236 539 -269 q 453 -146 453 -203 q 473 -73 453 -108 q 535 0 493 -37 l 115 0 l 115 972 z "},"Ð":{"ha":1003,"x_min":49,"x_max":935,"o":"m 115 429 l 49 429 l 49 576 l 115 576 l 115 972 l 478 972 q 722 914 619 972 q 880 746 825 856 q 935 486 935 636 q 881 226 935 336 q 724 58 826 117 q 478 0 621 0 l 115 0 l 115 429 m 489 185 q 669 266 608 185 q 729 486 729 347 q 669 706 729 625 q 489 788 608 788 l 315 788 l 315 576 l 586 576 l 586 429 l 315 429 l 315 185 l 489 185 z "},"Ẽ":{"ha":840,"x_min":115,"x_max":744,"o":"m 115 972 l 744 972 l 744 785 l 315 785 l 315 603 l 744 603 l 744 415 l 315 415 l 315 188 l 744 188 l 744 0 l 115 0 l 115 972 m 563 1047 q 464 1071 515 1047 l 425 1089 q 356 1111 381 1111 q 327 1101 338 1111 q 317 1072 317 1090 l 317 1053 l 196 1053 l 196 1076 q 233 1191 196 1151 q 340 1231 271 1231 q 439 1206 389 1231 l 478 1188 q 547 1167 524 1167 q 576 1176 565 1167 q 586 1204 586 1186 l 586 1225 l 707 1225 l 707 1201 q 669 1087 707 1126 q 563 1047 631 1047 z "},"Ğ":{"ha":1010,"x_min":68,"x_max":922,"o":"m 499 -22 q 274 38 371 -22 q 122 213 176 99 q 68 483 68 328 q 122 756 68 640 q 278 933 176 871 q 517 994 379 994 q 796 907 689 994 q 922 660 903 819 l 713 660 q 649 770 700 731 q 517 810 599 810 q 338 725 401 810 q 275 483 275 640 q 529 163 275 163 q 662 202 610 163 q 725 319 714 242 l 442 319 l 442 501 l 922 501 l 922 0 l 756 0 l 756 90 q 649 8 717 39 q 499 -22 582 -22 m 506 1044 q 360 1090 417 1044 q 304 1225 304 1135 l 440 1225 q 458 1173 440 1190 q 506 1156 476 1156 q 553 1173 535 1156 q 571 1225 571 1190 l 707 1225 q 651 1090 707 1135 q 506 1044 594 1044 z "},"Ǧ":{"ha":1010,"x_min":68,"x_max":922,"o":"m 499 -22 q 274 38 371 -22 q 122 213 176 99 q 68 483 68 328 q 122 756 68 640 q 278 933 176 871 q 517 994 379 994 q 796 907 689 994 q 922 660 903 819 l 713 660 q 649 770 700 731 q 517 810 599 810 q 338 725 401 810 q 275 483 275 640 q 529 163 275 163 q 662 202 610 163 q 725 319 714 242 l 442 319 l 442 501 l 922 501 l 922 0 l 756 0 l 756 90 q 649 8 717 39 q 499 -22 582 -22 m 294 1225 l 456 1225 l 506 1122 l 556 1225 l 717 1225 l 608 1049 l 403 1049 l 294 1225 z "},"Ĝ":{"ha":1010,"x_min":68,"x_max":922,"o":"m 499 -22 q 274 38 371 -22 q 122 213 176 99 q 68 483 68 328 q 122 756 68 640 q 278 933 176 871 q 517 994 379 994 q 796 907 689 994 q 922 660 903 819 l 713 660 q 649 770 700 731 q 517 810 599 810 q 338 725 401 810 q 275 483 275 640 q 529 163 275 163 q 662 202 610 163 q 725 319 714 242 l 442 319 l 442 501 l 922 501 l 922 0 l 756 0 l 756 90 q 649 8 717 39 q 499 -22 582 -22 m 403 1225 l 608 1225 l 717 1049 l 556 1049 l 506 1150 l 456 1049 l 294 1049 l 403 1225 z "},"Ģ":{"ha":1010,"x_min":68,"x_max":922,"o":"m 499 -22 q 274 38 371 -22 q 122 213 176 99 q 68 483 68 328 q 122 756 68 640 q 278 933 176 871 q 517 994 379 994 q 796 907 689 994 q 922 660 903 819 l 713 660 q 649 770 700 731 q 517 810 599 810 q 338 725 401 810 q 275 483 275 640 q 529 163 275 163 q 662 202 610 163 q 725 319 714 242 l 442 319 l 442 501 l 922 501 l 922 0 l 756 0 l 756 90 q 649 8 717 39 q 499 -22 582 -22 m 410 -203 l 478 -203 q 497 -187 497 -203 l 497 -165 l 410 -165 l 410 -47 l 607 -47 l 607 -176 q 580 -249 607 -229 q 499 -268 553 -268 l 410 -268 l 410 -203 z "},"Ġ":{"ha":1010,"x_min":68,"x_max":922,"o":"m 499 -22 q 274 38 371 -22 q 122 213 176 99 q 68 483 68 328 q 122 756 68 640 q 278 933 176 871 q 517 994 379 994 q 796 907 689 994 q 922 660 903 819 l 713 660 q 649 770 700 731 q 517 810 599 810 q 338 725 401 810 q 275 483 275 640 q 529 163 275 163 q 662 202 610 163 q 725 319 714 242 l 442 319 l 442 501 l 922 501 l 922 0 l 756 0 l 756 90 q 649 8 717 39 q 499 -22 582 -22 m 401 1218 l 611 1218 l 611 1049 l 401 1049 l 401 1218 z "},"Ħ":{"ha":1026,"x_min":54,"x_max":972,"o":"m 710 415 l 315 415 l 315 0 l 115 0 l 115 708 l 54 708 l 54 856 l 115 856 l 115 972 l 315 972 l 315 856 l 710 856 l 710 972 l 910 972 l 910 856 l 972 856 l 972 708 l 910 708 l 910 0 l 710 0 l 710 415 m 710 603 l 710 708 l 315 708 l 315 603 l 710 603 z "},"Ĥ":{"ha":1026,"x_min":115,"x_max":910,"o":"m 710 415 l 315 415 l 315 0 l 115 0 l 115 972 l 315 972 l 315 603 l 710 603 l 710 972 l 910 972 l 910 0 l 710 0 l 710 415 m 411 1225 l 617 1225 l 725 1049 l 564 1049 l 514 1150 l 464 1049 l 303 1049 l 411 1225 z "},"Í":{"ha":432,"x_min":115,"x_max":403,"o":"m 115 972 l 315 972 l 315 0 l 115 0 l 115 972 m 214 1225 l 403 1225 l 308 1049 l 132 1049 l 214 1225 z "},"Ĭ":{"ha":432,"x_min":15,"x_max":418,"o":"m 115 972 l 315 972 l 315 0 l 115 0 l 115 972 m 217 1044 q 72 1090 128 1044 q 15 1225 15 1135 l 151 1225 q 169 1173 151 1190 q 217 1156 188 1156 q 264 1173 246 1156 q 282 1225 282 1190 l 418 1225 q 362 1090 418 1135 q 217 1044 306 1044 z "},"Î":{"ha":432,"x_min":6,"x_max":428,"o":"m 115 972 l 315 972 l 315 0 l 115 0 l 115 972 m 114 1225 l 319 1225 l 428 1049 l 267 1049 l 217 1150 l 167 1049 l 6 1049 l 114 1225 z "},"Ï":{"ha":432,"x_min":-12,"x_max":443,"o":"m 115 972 l 315 972 l 315 0 l 115 0 l 115 972 m 265 1218 l 443 1218 l 443 1049 l 265 1049 l 265 1218 m -12 1218 l 165 1218 l 165 1049 l -12 1049 l -12 1218 z "},"İ":{"ha":432,"x_min":113,"x_max":322,"o":"m 115 972 l 315 972 l 315 0 l 115 0 l 115 972 m 113 1218 l 322 1218 l 322 1049 l 113 1049 l 113 1218 z "},"Ị":{"ha":432,"x_min":114,"x_max":318,"o":"m 115 972 l 315 972 l 315 0 l 115 0 l 115 972 m 114 -71 l 318 -71 l 318 -250 l 114 -250 l 114 -71 z "},"Ì":{"ha":432,"x_min":26,"x_max":315,"o":"m 115 972 l 315 972 l 315 0 l 115 0 l 115 972 m 26 1225 l 215 1225 l 297 1049 l 121 1049 l 26 1225 z "},"Ĳ":{"ha":1107,"x_min":115,"x_max":1004,"o":"m 115 972 l 315 972 l 315 0 l 115 0 l 115 972 m 454 188 l 679 188 q 774 225 743 188 q 804 342 804 263 l 804 972 l 1004 972 l 1004 342 q 972 142 1004 217 q 868 34 939 68 q 679 0 797 0 l 454 0 l 454 188 z "},"Ī":{"ha":432,"x_min":8,"x_max":422,"o":"m 115 972 l 315 972 l 315 0 l 115 0 l 115 972 m 8 1200 l 422 1200 l 422 1076 l 8 1076 l 8 1200 z "},"Į":{"ha":432,"x_min":21,"x_max":315,"o":"m 181 -269 q 64 -236 107 -269 q 21 -146 21 -203 q 115 10 21 -68 l 115 972 l 315 972 l 315 0 l 247 0 q 187 -62 208 -35 q 165 -110 165 -89 q 218 -151 165 -151 l 269 -151 l 269 -269 l 181 -269 z "},"Ĩ":{"ha":432,"x_min":-39,"x_max":472,"o":"m 115 972 l 315 972 l 315 0 l 115 0 l 115 972 m 328 1047 q 229 1071 281 1047 l 190 1089 q 121 1111 146 1111 q 92 1101 103 1111 q 82 1072 82 1090 l 82 1053 l -39 1053 l -39 1076 q -1 1191 -39 1151 q 106 1231 36 1231 q 204 1206 154 1231 l 243 1188 q 313 1167 289 1167 q 341 1176 331 1167 q 351 1204 351 1186 l 351 1225 l 472 1225 l 472 1201 q 434 1087 472 1126 q 328 1047 396 1047 z "},"Ĵ":{"ha":676,"x_min":24,"x_max":574,"o":"m 24 188 l 249 188 q 343 225 313 188 q 374 342 374 263 l 374 972 l 574 972 l 574 342 q 541 142 574 217 q 438 34 508 68 q 249 0 367 0 l 24 0 l 24 188 m 228 1225 l 433 1225 l 542 1049 l 381 1049 l 331 1150 l 281 1049 l 119 1049 l 228 1225 z "},"Ķ":{"ha":951,"x_min":115,"x_max":929,"o":"m 396 407 l 315 407 l 315 0 l 115 0 l 115 972 l 315 972 l 315 611 l 390 611 l 685 972 l 929 972 l 557 517 l 929 0 l 683 0 l 396 407 m 407 -203 l 475 -203 q 494 -187 494 -203 l 494 -165 l 407 -165 l 407 -47 l 604 -47 l 604 -176 q 577 -249 604 -229 q 496 -268 550 -268 l 407 -268 l 407 -203 z "},"Ĺ":{"ha":771,"x_min":115,"x_max":749,"o":"m 115 972 l 315 972 l 315 188 l 749 188 l 749 0 l 115 0 l 115 972 m 206 1225 l 394 1225 l 300 1049 l 124 1049 l 206 1225 z "},"Ľ":{"ha":771,"x_min":115,"x_max":749,"o":"m 115 972 l 315 972 l 315 188 l 749 188 l 749 0 l 115 0 l 115 972 m 403 972 l 582 972 l 525 753 l 382 753 l 403 972 z "},"Ļ":{"ha":771,"x_min":115,"x_max":749,"o":"m 115 972 l 315 972 l 315 188 l 749 188 l 749 0 l 115 0 l 115 972 m 336 -203 l 404 -203 q 424 -187 424 -203 l 424 -165 l 336 -165 l 336 -47 l 533 -47 l 533 -176 q 506 -249 533 -229 q 425 -268 479 -268 l 336 -268 l 336 -203 z "},"Ŀ":{"ha":771,"x_min":115,"x_max":749,"o":"m 115 972 l 315 972 l 315 188 l 749 188 l 749 0 l 115 0 l 115 972 m 483 676 l 707 676 l 707 447 l 483 447 l 483 676 z "},"Ł":{"ha":771,"x_min":50,"x_max":749,"o":"m 115 326 l 50 283 l 50 444 l 115 488 l 115 972 l 315 972 l 315 621 l 474 726 l 474 565 l 315 460 l 315 188 l 749 188 l 749 0 l 115 0 l 115 326 z "},"Ń":{"ha":1026,"x_min":115,"x_max":910,"o":"m 115 972 l 354 972 l 710 321 l 710 972 l 910 972 l 910 0 l 671 0 l 315 653 l 315 0 l 115 0 l 115 972 m 511 1225 l 700 1225 l 606 1049 l 429 1049 l 511 1225 z "},"Ň":{"ha":1026,"x_min":115,"x_max":910,"o":"m 115 972 l 354 972 l 710 321 l 710 972 l 910 972 l 910 0 l 671 0 l 315 653 l 315 0 l 115 0 l 115 972 m 303 1225 l 464 1225 l 514 1122 l 564 1225 l 725 1225 l 617 1049 l 411 1049 l 303 1225 z "},"Ņ":{"ha":1026,"x_min":115,"x_max":910,"o":"m 115 972 l 354 972 l 710 321 l 710 972 l 910 972 l 910 0 l 671 0 l 315 653 l 315 0 l 115 0 l 115 972 m 414 -203 l 482 -203 q 501 -187 501 -203 l 501 -165 l 414 -165 l 414 -47 l 611 -47 l 611 -176 q 584 -249 611 -229 q 503 -268 557 -268 l 414 -268 l 414 -203 z "},"Ɲ":{"ha":1026,"x_min":-90,"x_max":910,"o":"m 354 972 l 710 321 l 710 972 l 910 972 l 910 0 l 671 0 l 315 653 l 315 -46 q 254 -212 315 -158 q 65 -265 193 -265 l -90 -265 l -90 -94 l 60 -94 q 115 -35 115 -94 l 115 972 l 354 972 z "},"Ñ":{"ha":1026,"x_min":115,"x_max":910,"o":"m 115 972 l 354 972 l 710 321 l 710 972 l 910 972 l 910 0 l 671 0 l 315 653 l 315 0 l 115 0 l 115 972 m 625 1047 q 526 1071 578 1047 l 488 1089 q 418 1111 443 1111 q 390 1101 400 1111 q 379 1072 379 1090 l 379 1053 l 258 1053 l 258 1076 q 296 1191 258 1151 q 403 1231 333 1231 q 501 1206 451 1231 l 540 1188 q 610 1167 586 1167 q 638 1176 628 1167 q 649 1204 649 1186 l 649 1225 l 769 1225 l 769 1201 q 731 1087 769 1126 q 625 1047 693 1047 z "},"Ŋ":{"ha":1026,"x_min":115,"x_max":910,"o":"m 115 972 l 354 972 l 710 321 l 710 972 l 910 972 l 910 -46 q 849 -212 910 -158 q 660 -265 788 -265 l 504 -265 l 504 -94 l 654 -94 q 710 -35 710 -94 l 710 0 l 671 0 l 315 653 l 315 0 l 115 0 l 115 972 z "},"Ó":{"ha":1033,"x_min":68,"x_max":965,"o":"m 517 -22 q 283 37 385 -22 q 125 210 182 96 q 68 486 68 325 q 125 762 68 647 q 283 935 182 876 q 517 994 385 994 q 751 935 650 994 q 909 762 853 876 q 965 486 965 647 q 909 210 965 325 q 751 37 853 96 q 517 -22 650 -22 m 275 486 q 341 247 275 328 q 517 165 407 165 q 693 247 626 165 q 760 486 760 328 q 693 726 760 644 q 517 807 626 807 q 341 726 407 807 q 275 486 275 644 m 515 1225 l 704 1225 l 610 1049 l 433 1049 l 515 1225 z "},"Ŏ":{"ha":1033,"x_min":68,"x_max":965,"o":"m 517 -22 q 283 37 385 -22 q 125 210 182 96 q 68 486 68 325 q 125 762 68 647 q 283 935 182 876 q 517 994 385 994 q 751 935 650 994 q 909 762 853 876 q 965 486 965 647 q 909 210 965 325 q 751 37 853 96 q 517 -22 650 -22 m 275 486 q 341 247 275 328 q 517 165 407 165 q 693 247 626 165 q 760 486 760 328 q 693 726 760 644 q 517 807 626 807 q 341 726 407 807 q 275 486 275 644 m 517 1044 q 372 1090 428 1044 q 315 1225 315 1135 l 451 1225 q 469 1173 451 1190 q 517 1156 488 1156 q 564 1173 546 1156 q 582 1225 582 1190 l 718 1225 q 662 1090 718 1135 q 517 1044 606 1044 z "},"Ô":{"ha":1033,"x_min":68,"x_max":965,"o":"m 517 -22 q 283 37 385 -22 q 125 210 182 96 q 68 486 68 325 q 125 762 68 647 q 283 935 182 876 q 517 994 385 994 q 751 935 650 994 q 909 762 853 876 q 965 486 965 647 q 909 210 965 325 q 751 37 853 96 q 517 -22 650 -22 m 275 486 q 341 247 275 328 q 517 165 407 165 q 693 247 626 165 q 760 486 760 328 q 693 726 760 644 q 517 807 626 807 q 341 726 407 807 q 275 486 275 644 m 414 1225 l 619 1225 l 728 1049 l 567 1049 l 517 1150 l 467 1049 l 306 1049 l 414 1225 z "},"Ö":{"ha":1033,"x_min":68,"x_max":965,"o":"m 517 -22 q 283 37 385 -22 q 125 210 182 96 q 68 486 68 325 q 125 762 68 647 q 283 935 182 876 q 517 994 385 994 q 751 935 650 994 q 909 762 853 876 q 965 486 965 647 q 909 210 965 325 q 751 37 853 96 q 517 -22 650 -22 m 275 486 q 341 247 275 328 q 517 165 407 165 q 693 247 626 165 q 760 486 760 328 q 693 726 760 644 q 517 807 626 807 q 341 726 407 807 q 275 486 275 644 m 567 1218 l 744 1218 l 744 1049 l 567 1049 l 567 1218 m 289 1218 l 467 1218 l 467 1049 l 289 1049 l 289 1218 z "},"Ọ":{"ha":1033,"x_min":68,"x_max":965,"o":"m 517 -22 q 283 37 385 -22 q 125 210 182 96 q 68 486 68 325 q 125 762 68 647 q 283 935 182 876 q 517 994 385 994 q 751 935 650 994 q 909 762 853 876 q 965 486 965 647 q 909 210 965 325 q 751 37 853 96 q 517 -22 650 -22 m 275 486 q 341 247 275 328 q 517 165 407 165 q 693 247 626 165 q 760 486 760 328 q 693 726 760 644 q 517 807 626 807 q 341 726 407 807 q 275 486 275 644 m 415 -71 l 619 -71 l 619 -250 l 415 -250 l 415 -71 z "},"Œ":{"ha":1286,"x_min":68,"x_max":1189,"o":"m 524 0 q 278 58 381 0 q 122 226 176 117 q 68 486 68 336 q 122 746 68 636 q 279 914 176 856 q 524 972 382 972 l 1189 972 l 1189 785 l 804 785 l 804 603 l 1189 603 l 1189 415 l 804 415 l 804 188 l 1189 188 l 1189 0 l 524 0 m 275 486 q 335 269 275 350 q 511 188 394 188 l 610 188 l 610 785 l 511 785 q 335 703 394 785 q 275 486 275 622 z "},"Ò":{"ha":1033,"x_min":68,"x_max":965,"o":"m 517 -22 q 283 37 385 -22 q 125 210 182 96 q 68 486 68 325 q 125 762 68 647 q 283 935 182 876 q 517 994 385 994 q 751 935 650 994 q 909 762 853 876 q 965 486 965 647 q 909 210 965 325 q 751 37 853 96 q 517 -22 650 -22 m 275 486 q 341 247 275 328 q 517 165 407 165 q 693 247 626 165 q 760 486 760 328 q 693 726 760 644 q 517 807 626 807 q 341 726 407 807 q 275 486 275 644 m 328 1225 l 517 1225 l 599 1049 l 422 1049 l 328 1225 z "},"Ő":{"ha":1033,"x_min":68,"x_max":965,"o":"m 517 -22 q 283 37 385 -22 q 125 210 182 96 q 68 486 68 325 q 125 762 68 647 q 283 935 182 876 q 517 994 385 994 q 751 935 650 994 q 909 762 853 876 q 965 486 965 647 q 909 210 965 325 q 751 37 853 96 q 517 -22 650 -22 m 275 486 q 341 247 275 328 q 517 165 407 165 q 693 247 626 165 q 760 486 760 328 q 693 726 760 644 q 517 807 626 807 q 341 726 407 807 q 275 486 275 644 m 408 1225 l 557 1225 l 475 1049 l 333 1049 l 408 1225 m 635 1225 l 783 1225 l 701 1049 l 560 1049 l 635 1225 z "},"Ō":{"ha":1033,"x_min":68,"x_max":965,"o":"m 517 -22 q 283 37 385 -22 q 125 210 182 96 q 68 486 68 325 q 125 762 68 647 q 283 935 182 876 q 517 994 385 994 q 751 935 650 994 q 909 762 853 876 q 965 486 965 647 q 909 210 965 325 q 751 37 853 96 q 517 -22 650 -22 m 275 486 q 341 247 275 328 q 517 165 407 165 q 693 247 626 165 q 760 486 760 328 q 693 726 760 644 q 517 807 626 807 q 341 726 407 807 q 275 486 275 644 m 310 1200 l 724 1200 l 724 1076 l 310 1076 l 310 1200 z "},"Ǫ":{"ha":1033,"x_min":68,"x_max":965,"o":"m 517 165 q 693 247 626 165 q 760 486 760 328 q 693 726 760 644 q 517 807 626 807 q 341 726 407 807 q 275 486 275 644 q 341 247 275 328 q 517 165 407 165 m 68 486 q 125 762 68 647 q 283 935 182 876 q 517 994 385 994 q 751 935 650 994 q 909 762 853 876 q 965 486 965 647 q 893 180 965 303 q 693 8 821 57 q 600 -110 600 -68 q 653 -151 600 -151 l 704 -151 l 704 -269 l 615 -269 q 499 -236 542 -269 q 456 -146 456 -203 q 515 -22 456 -82 q 282 38 383 -21 q 124 211 181 97 q 68 486 68 325 z "},"Ø":{"ha":1033,"x_min":68,"x_max":965,"o":"m 517 -22 q 257 53 364 -22 l 172 -56 l 81 14 l 172 133 q 68 486 68 268 q 125 762 68 647 q 283 935 182 876 q 517 994 385 994 q 781 917 671 994 l 867 1026 l 958 960 l 863 836 q 965 486 965 706 q 909 210 965 325 q 751 37 853 96 q 517 -22 650 -22 m 275 486 q 307 306 275 378 l 660 760 q 517 807 600 807 q 341 726 407 807 q 275 486 275 644 m 378 210 q 517 165 438 165 q 693 247 626 165 q 760 486 760 328 q 729 664 760 590 l 378 210 z "},"Ǿ":{"ha":1033,"x_min":68,"x_max":965,"o":"m 517 -22 q 257 53 364 -22 l 172 -56 l 81 14 l 172 133 q 68 486 68 268 q 125 762 68 647 q 283 935 182 876 q 517 994 385 994 q 781 917 671 994 l 867 1026 l 958 960 l 863 836 q 965 486 965 706 q 909 210 965 325 q 751 37 853 96 q 517 -22 650 -22 m 275 486 q 307 306 275 378 l 660 760 q 517 807 600 807 q 341 726 407 807 q 275 486 275 644 m 378 210 q 517 165 438 165 q 693 247 626 165 q 760 486 760 328 q 729 664 760 590 l 378 210 m 515 1225 l 704 1225 l 610 1049 l 433 1049 l 515 1225 z "},"Õ":{"ha":1033,"x_min":68,"x_max":965,"o":"m 517 -22 q 283 37 385 -22 q 125 210 182 96 q 68 486 68 325 q 125 762 68 647 q 283 935 182 876 q 517 994 385 994 q 751 935 650 994 q 909 762 853 876 q 965 486 965 647 q 909 210 965 325 q 751 37 853 96 q 517 -22 650 -22 m 275 486 q 341 247 275 328 q 517 165 407 165 q 693 247 626 165 q 760 486 760 328 q 693 726 760 644 q 517 807 626 807 q 341 726 407 807 q 275 486 275 644 m 628 1047 q 529 1071 581 1047 l 490 1089 q 421 1111 446 1111 q 392 1101 403 1111 q 382 1072 382 1090 l 382 1053 l 261 1053 l 261 1076 q 299 1191 261 1151 q 406 1231 336 1231 q 504 1206 454 1231 l 543 1188 q 613 1167 589 1167 q 641 1176 631 1167 q 651 1204 651 1186 l 651 1225 l 772 1225 l 772 1201 q 734 1087 772 1126 q 628 1047 696 1047 z "},"Ŕ":{"ha":969,"x_min":115,"x_max":918,"o":"m 115 972 l 553 972 q 799 892 708 972 q 890 672 890 813 q 825 478 890 556 q 646 379 760 401 l 918 0 l 674 0 l 404 378 l 315 378 l 315 0 l 115 0 l 115 972 m 551 560 q 652 590 617 560 q 688 672 688 619 q 652 755 688 725 q 551 785 617 785 l 315 785 l 315 560 l 551 560 m 476 1225 l 665 1225 l 571 1049 l 394 1049 l 476 1225 z "},"Ř":{"ha":969,"x_min":115,"x_max":918,"o":"m 115 972 l 553 972 q 799 892 708 972 q 890 672 890 813 q 825 478 890 556 q 646 379 760 401 l 918 0 l 674 0 l 404 378 l 315 378 l 315 0 l 115 0 l 115 972 m 551 560 q 652 590 617 560 q 688 672 688 619 q 652 755 688 725 q 551 785 617 785 l 315 785 l 315 560 l 551 560 m 268 1225 l 429 1225 l 479 1122 l 529 1225 l 690 1225 l 582 1049 l 376 1049 l 268 1225 z "},"Ŗ":{"ha":969,"x_min":115,"x_max":918,"o":"m 115 972 l 553 972 q 799 892 708 972 q 890 672 890 813 q 825 478 890 556 q 646 379 760 401 l 918 0 l 674 0 l 404 378 l 315 378 l 315 0 l 115 0 l 115 972 m 551 560 q 652 590 617 560 q 688 672 688 619 q 652 755 688 725 q 551 785 617 785 l 315 785 l 315 560 l 551 560 m 388 -203 l 456 -203 q 475 -187 475 -203 l 475 -165 l 388 -165 l 388 -47 l 585 -47 l 585 -176 q 558 -249 585 -229 q 476 -268 531 -268 l 388 -268 l 388 -203 z "},"Ś":{"ha":882,"x_min":47,"x_max":828,"o":"m 450 -22 q 156 65 264 -22 q 47 304 49 151 l 251 304 q 306 196 253 236 q 450 156 360 156 q 574 191 528 156 q 621 286 621 226 q 588 365 621 338 q 482 403 554 393 l 369 417 q 149 506 222 435 q 76 699 76 578 q 122 854 76 788 q 251 958 168 921 q 440 994 333 994 q 713 917 614 994 q 814 704 811 839 l 611 704 q 563 789 608 758 q 440 819 518 819 q 326 790 369 819 q 282 711 282 760 q 318 638 282 664 q 432 603 354 613 l 536 590 q 828 300 828 553 q 783 130 828 203 q 652 17 738 57 q 450 -22 567 -22 m 438 1225 l 626 1225 l 532 1049 l 356 1049 l 438 1225 z "},"Š":{"ha":882,"x_min":47,"x_max":828,"o":"m 450 -22 q 156 65 264 -22 q 47 304 49 151 l 251 304 q 306 196 253 236 q 450 156 360 156 q 574 191 528 156 q 621 286 621 226 q 588 365 621 338 q 482 403 554 393 l 369 417 q 149 506 222 435 q 76 699 76 578 q 122 854 76 788 q 251 958 168 921 q 440 994 333 994 q 713 917 614 994 q 814 704 811 839 l 611 704 q 563 789 608 758 q 440 819 518 819 q 326 790 369 819 q 282 711 282 760 q 318 638 282 664 q 432 603 354 613 l 536 590 q 828 300 828 553 q 783 130 828 203 q 652 17 738 57 q 450 -22 567 -22 m 228 1225 l 389 1225 l 439 1122 l 489 1225 l 650 1225 l 542 1049 l 336 1049 l 228 1225 z "},"Ş":{"ha":882,"x_min":47,"x_max":828,"o":"m 278 -175 l 386 -175 q 426 -164 411 -175 q 442 -135 442 -153 q 431 -112 442 -121 q 401 -103 419 -103 l 356 -103 l 388 -19 q 139 81 229 -4 q 47 304 49 165 l 251 304 q 306 196 253 236 q 450 156 360 156 q 574 191 528 156 q 621 286 621 226 q 588 365 621 338 q 482 403 554 393 l 369 417 q 149 506 222 435 q 76 699 76 578 q 122 854 76 788 q 251 958 168 921 q 440 994 333 994 q 713 917 614 994 q 814 704 811 839 l 611 704 q 563 789 608 758 q 440 819 518 819 q 326 790 369 819 q 282 711 282 760 q 318 638 282 664 q 432 603 354 613 l 536 590 q 828 300 828 553 q 742 80 828 165 q 506 -19 657 -6 l 496 -40 q 569 -143 569 -64 q 522 -233 569 -196 q 406 -269 475 -269 l 278 -269 l 278 -175 z "},"Ŝ":{"ha":882,"x_min":47,"x_max":828,"o":"m 450 -22 q 156 65 264 -22 q 47 304 49 151 l 251 304 q 306 196 253 236 q 450 156 360 156 q 574 191 528 156 q 621 286 621 226 q 588 365 621 338 q 482 403 554 393 l 369 417 q 149 506 222 435 q 76 699 76 578 q 122 854 76 788 q 251 958 168 921 q 440 994 333 994 q 713 917 614 994 q 814 704 811 839 l 611 704 q 563 789 608 758 q 440 819 518 819 q 326 790 369 819 q 282 711 282 760 q 318 638 282 664 q 432 603 354 613 l 536 590 q 828 300 828 553 q 783 130 828 203 q 652 17 738 57 q 450 -22 567 -22 m 336 1225 l 542 1225 l 650 1049 l 489 1049 l 439 1150 l 389 1049 l 228 1049 l 336 1225 z "},"Ș":{"ha":882,"x_min":47,"x_max":828,"o":"m 450 -22 q 156 65 264 -22 q 47 304 49 151 l 251 304 q 306 196 253 236 q 450 156 360 156 q 574 191 528 156 q 621 286 621 226 q 588 365 621 338 q 482 403 554 393 l 369 417 q 149 506 222 435 q 76 699 76 578 q 122 854 76 788 q 251 958 168 921 q 440 994 333 994 q 713 917 614 994 q 814 704 811 839 l 611 704 q 563 789 608 758 q 440 819 518 819 q 326 790 369 819 q 282 711 282 760 q 318 638 282 664 q 432 603 354 613 l 536 590 q 828 300 828 553 q 783 130 828 203 q 652 17 738 57 q 450 -22 567 -22 m 357 -203 l 425 -203 q 444 -187 444 -203 l 444 -165 l 357 -165 l 357 -47 l 554 -47 l 554 -176 q 527 -249 554 -229 q 446 -268 500 -268 l 357 -268 l 357 -203 z "},"Ŧ":{"ha":835,"x_min":22,"x_max":813,"o":"m 318 458 l 149 458 l 149 606 l 318 606 l 318 785 l 22 785 l 22 972 l 813 972 l 813 785 l 518 785 l 518 606 l 686 606 l 686 458 l 518 458 l 518 0 l 318 0 l 318 458 z "},"Ť":{"ha":835,"x_min":22,"x_max":813,"o":"m 318 785 l 22 785 l 22 972 l 813 972 l 813 785 l 518 785 l 518 0 l 318 0 l 318 785 m 207 1225 l 368 1225 l 418 1122 l 468 1225 l 629 1225 l 521 1049 l 315 1049 l 207 1225 z "},"Ţ":{"ha":835,"x_min":22,"x_max":813,"o":"m 318 785 l 22 785 l 22 972 l 813 972 l 813 785 l 518 785 l 518 0 l 476 0 l 458 -40 q 532 -143 532 -64 q 485 -233 532 -196 q 368 -269 438 -269 l 240 -269 l 240 -175 l 349 -175 q 389 -164 374 -175 q 404 -135 404 -153 q 393 -112 404 -121 q 364 -103 382 -103 l 318 -103 l 357 0 l 318 0 l 318 785 z "},"Ț":{"ha":835,"x_min":22,"x_max":813,"o":"m 318 785 l 22 785 l 22 972 l 813 972 l 813 785 l 518 785 l 518 0 l 318 0 l 318 785 m 319 -203 l 388 -203 q 407 -187 407 -203 l 407 -165 l 319 -165 l 319 -47 l 517 -47 l 517 -176 q 490 -249 517 -229 q 408 -268 463 -268 l 319 -268 l 319 -203 z "},"Þ":{"ha":956,"x_min":115,"x_max":899,"o":"m 115 972 l 315 972 l 315 824 l 539 824 q 728 783 647 824 q 854 667 810 743 q 899 488 899 590 q 854 308 899 385 q 728 190 810 232 q 539 149 647 149 l 315 149 l 315 0 l 115 0 l 115 972 m 518 336 q 646 377 601 336 q 690 488 690 418 q 646 597 690 557 q 518 636 601 636 l 315 636 l 315 336 l 518 336 z "},"Ú":{"ha":975,"x_min":103,"x_max":874,"o":"m 488 -22 q 206 81 308 -22 q 103 365 103 185 l 103 972 l 303 972 l 303 381 q 351 221 303 276 q 488 165 400 165 q 625 221 576 165 q 674 381 674 276 l 674 972 l 874 972 l 874 365 q 827 158 874 246 q 693 24 781 71 q 488 -22 606 -22 m 486 1225 l 675 1225 l 581 1049 l 404 1049 l 486 1225 z "},"Ŭ":{"ha":975,"x_min":103,"x_max":874,"o":"m 488 -22 q 206 81 308 -22 q 103 365 103 185 l 103 972 l 303 972 l 303 381 q 351 221 303 276 q 488 165 400 165 q 625 221 576 165 q 674 381 674 276 l 674 972 l 874 972 l 874 365 q 827 158 874 246 q 693 24 781 71 q 488 -22 606 -22 m 488 1044 q 342 1090 399 1044 q 286 1225 286 1135 l 422 1225 q 440 1173 422 1190 q 488 1156 458 1156 q 535 1173 517 1156 q 553 1225 553 1190 l 689 1225 q 633 1090 689 1135 q 488 1044 576 1044 z "},"Û":{"ha":975,"x_min":103,"x_max":874,"o":"m 488 -22 q 206 81 308 -22 q 103 365 103 185 l 103 972 l 303 972 l 303 381 q 351 221 303 276 q 488 165 400 165 q 625 221 576 165 q 674 381 674 276 l 674 972 l 874 972 l 874 365 q 827 158 874 246 q 693 24 781 71 q 488 -22 606 -22 m 385 1225 l 590 1225 l 699 1049 l 538 1049 l 488 1150 l 438 1049 l 276 1049 l 385 1225 z "},"Ü":{"ha":975,"x_min":103,"x_max":874,"o":"m 488 -22 q 206 81 308 -22 q 103 365 103 185 l 103 972 l 303 972 l 303 381 q 351 221 303 276 q 488 165 400 165 q 625 221 576 165 q 674 381 674 276 l 674 972 l 874 972 l 874 365 q 827 158 874 246 q 693 24 781 71 q 488 -22 606 -22 m 538 1218 l 715 1218 l 715 1049 l 538 1049 l 538 1218 m 260 1218 l 438 1218 l 438 1049 l 260 1049 l 260 1218 z "},"Ụ":{"ha":975,"x_min":103,"x_max":874,"o":"m 488 -22 q 206 81 308 -22 q 103 365 103 185 l 103 972 l 303 972 l 303 381 q 351 221 303 276 q 488 165 400 165 q 625 221 576 165 q 674 381 674 276 l 674 972 l 874 972 l 874 365 q 827 158 874 246 q 693 24 781 71 q 488 -22 606 -22 m 386 -71 l 590 -71 l 590 -250 l 386 -250 l 386 -71 z "},"Ù":{"ha":975,"x_min":103,"x_max":874,"o":"m 488 -22 q 206 81 308 -22 q 103 365 103 185 l 103 972 l 303 972 l 303 381 q 351 221 303 276 q 488 165 400 165 q 625 221 576 165 q 674 381 674 276 l 674 972 l 874 972 l 874 365 q 827 158 874 246 q 693 24 781 71 q 488 -22 606 -22 m 299 1225 l 488 1225 l 569 1049 l 393 1049 l 299 1225 z "},"Ű":{"ha":975,"x_min":103,"x_max":874,"o":"m 488 -22 q 206 81 308 -22 q 103 365 103 185 l 103 972 l 303 972 l 303 381 q 351 221 303 276 q 488 165 400 165 q 625 221 576 165 q 674 381 674 276 l 674 972 l 874 972 l 874 365 q 827 158 874 246 q 693 24 781 71 q 488 -22 606 -22 m 379 1225 l 528 1225 l 446 1049 l 304 1049 l 379 1225 m 606 1225 l 754 1225 l 672 1049 l 531 1049 l 606 1225 z "},"Ū":{"ha":975,"x_min":103,"x_max":874,"o":"m 488 -22 q 206 81 308 -22 q 103 365 103 185 l 103 972 l 303 972 l 303 381 q 351 221 303 276 q 488 165 400 165 q 625 221 576 165 q 674 381 674 276 l 674 972 l 874 972 l 874 365 q 827 158 874 246 q 693 24 781 71 q 488 -22 606 -22 m 281 1200 l 694 1200 l 694 1076 l 281 1076 l 281 1200 z "},"Ų":{"ha":975,"x_min":103,"x_max":874,"o":"m 585 -269 q 468 -236 511 -269 q 425 -146 425 -203 q 485 -22 425 -82 q 205 83 307 -21 q 103 365 103 186 l 103 972 l 303 972 l 303 381 q 351 221 303 276 q 488 165 400 165 q 625 221 576 165 q 674 381 674 276 l 674 972 l 874 972 l 874 365 q 819 144 874 236 q 665 11 765 53 q 594 -56 619 -26 q 569 -110 569 -86 q 622 -151 569 -151 l 674 -151 l 674 -269 l 585 -269 z "},"Ů":{"ha":975,"x_min":103,"x_max":874,"o":"m 488 -22 q 206 81 308 -22 q 103 365 103 185 l 103 972 l 303 972 l 303 381 q 351 221 303 276 q 488 165 400 165 q 625 221 576 165 q 674 381 674 276 l 674 972 l 874 972 l 874 365 q 827 158 874 246 q 693 24 781 71 q 488 -22 606 -22 m 489 1019 q 372 1062 417 1019 q 326 1169 326 1104 q 372 1277 326 1235 q 489 1319 417 1319 q 605 1277 560 1319 q 650 1169 650 1235 q 605 1062 650 1104 q 489 1019 560 1019 m 425 1169 q 442 1124 425 1142 q 489 1107 460 1107 q 534 1124 517 1107 q 551 1169 551 1142 q 534 1215 551 1197 q 489 1233 517 1233 q 442 1215 460 1233 q 425 1169 425 1197 z "},"Ũ":{"ha":975,"x_min":103,"x_max":874,"o":"m 488 -22 q 206 81 308 -22 q 103 365 103 185 l 103 972 l 303 972 l 303 381 q 351 221 303 276 q 488 165 400 165 q 625 221 576 165 q 674 381 674 276 l 674 972 l 874 972 l 874 365 q 827 158 874 246 q 693 24 781 71 q 488 -22 606 -22 m 599 1047 q 500 1071 551 1047 l 461 1089 q 392 1111 417 1111 q 363 1101 374 1111 q 353 1072 353 1090 l 353 1053 l 232 1053 l 232 1076 q 269 1191 232 1151 q 376 1231 307 1231 q 475 1206 425 1231 l 514 1188 q 583 1167 560 1167 q 612 1176 601 1167 q 622 1204 622 1186 l 622 1225 l 743 1225 l 743 1201 q 705 1087 743 1126 q 599 1047 667 1047 z "},"Ẃ":{"ha":1332,"x_min":32,"x_max":1301,"o":"m 32 972 l 247 972 l 401 275 l 556 972 l 776 972 l 932 278 l 1086 972 l 1301 972 l 1060 0 l 822 0 l 667 693 l 510 0 l 272 0 l 32 972 m 664 1225 l 853 1225 l 758 1049 l 582 1049 l 664 1225 z "},"Ŵ":{"ha":1332,"x_min":32,"x_max":1301,"o":"m 32 972 l 247 972 l 401 275 l 556 972 l 776 972 l 932 278 l 1086 972 l 1301 972 l 1060 0 l 822 0 l 667 693 l 510 0 l 272 0 l 32 972 m 563 1225 l 768 1225 l 876 1049 l 715 1049 l 665 1150 l 615 1049 l 454 1049 l 563 1225 z "},"Ẅ":{"ha":1332,"x_min":32,"x_max":1301,"o":"m 32 972 l 247 972 l 401 275 l 556 972 l 776 972 l 932 278 l 1086 972 l 1301 972 l 1060 0 l 822 0 l 667 693 l 510 0 l 272 0 l 32 972 m 715 1218 l 893 1218 l 893 1049 l 715 1049 l 715 1218 m 438 1218 l 615 1218 l 615 1049 l 438 1049 l 438 1218 z "},"Ẁ":{"ha":1332,"x_min":32,"x_max":1301,"o":"m 32 972 l 247 972 l 401 275 l 556 972 l 776 972 l 932 278 l 1086 972 l 1301 972 l 1060 0 l 822 0 l 667 693 l 510 0 l 272 0 l 32 972 m 476 1225 l 665 1225 l 747 1049 l 571 1049 l 476 1225 z "},"Ý":{"ha":963,"x_min":10,"x_max":954,"o":"m 382 403 l 10 972 l 247 972 l 482 601 l 715 972 l 954 972 l 582 403 l 582 0 l 382 0 l 382 403 m 479 1225 l 668 1225 l 574 1049 l 397 1049 l 479 1225 z "},"Ŷ":{"ha":963,"x_min":10,"x_max":954,"o":"m 382 403 l 10 972 l 247 972 l 482 601 l 715 972 l 954 972 l 582 403 l 582 0 l 382 0 l 382 403 m 378 1225 l 583 1225 l 692 1049 l 531 1049 l 481 1150 l 431 1049 l 269 1049 l 378 1225 z "},"Ÿ":{"ha":963,"x_min":10,"x_max":954,"o":"m 382 403 l 10 972 l 247 972 l 482 601 l 715 972 l 954 972 l 582 403 l 582 0 l 382 0 l 382 403 m 531 1218 l 708 1218 l 708 1049 l 531 1049 l 531 1218 m 253 1218 l 431 1218 l 431 1049 l 253 1049 l 253 1218 z "},"Ỳ":{"ha":963,"x_min":10,"x_max":954,"o":"m 382 403 l 10 972 l 247 972 l 482 601 l 715 972 l 954 972 l 582 403 l 582 0 l 382 0 l 382 403 m 292 1225 l 481 1225 l 563 1049 l 386 1049 l 292 1225 z "},"Ȳ":{"ha":963,"x_min":10,"x_max":954,"o":"m 382 403 l 10 972 l 247 972 l 482 601 l 715 972 l 954 972 l 582 403 l 582 0 l 382 0 l 382 403 m 274 1200 l 688 1200 l 688 1076 l 274 1076 l 274 1200 z "},"Ỹ":{"ha":963,"x_min":10,"x_max":954,"o":"m 382 403 l 10 972 l 247 972 l 482 601 l 715 972 l 954 972 l 582 403 l 582 0 l 382 0 l 382 403 m 592 1047 q 493 1071 544 1047 l 454 1089 q 385 1111 410 1111 q 356 1101 367 1111 q 346 1072 346 1090 l 346 1053 l 225 1053 l 225 1076 q 263 1191 225 1151 q 369 1231 300 1231 q 468 1206 418 1231 l 507 1188 q 576 1167 553 1167 q 605 1176 594 1167 q 615 1204 615 1186 l 615 1225 l 736 1225 l 736 1201 q 698 1087 736 1126 q 592 1047 660 1047 z "},"Ź":{"ha":861,"x_min":53,"x_max":804,"o":"m 53 188 l 546 785 l 67 785 l 67 972 l 797 972 l 797 785 l 304 188 l 804 188 l 804 0 l 53 0 l 53 188 m 431 1225 l 619 1225 l 525 1049 l 349 1049 l 431 1225 z "},"Ž":{"ha":861,"x_min":53,"x_max":804,"o":"m 53 188 l 546 785 l 67 785 l 67 972 l 797 972 l 797 785 l 304 188 l 804 188 l 804 0 l 53 0 l 53 188 m 221 1225 l 382 1225 l 432 1122 l 482 1225 l 643 1225 l 535 1049 l 329 1049 l 221 1225 z "},"Ż":{"ha":861,"x_min":53,"x_max":804,"o":"m 53 188 l 546 785 l 67 785 l 67 972 l 797 972 l 797 785 l 304 188 l 804 188 l 804 0 l 53 0 l 53 188 m 328 1218 l 538 1218 l 538 1049 l 328 1049 l 328 1218 z "},"ẞ":{"ha":978,"x_min":115,"x_max":929,"o":"m 115 972 l 883 972 l 883 785 l 718 554 q 874 453 818 526 q 929 288 929 379 q 848 72 929 153 q 613 -8 767 -8 l 424 -8 l 424 168 l 589 168 q 687 203 651 168 q 722 297 722 238 q 686 390 722 356 q 589 425 650 425 l 507 425 l 507 554 l 667 785 l 315 785 l 315 0 l 115 0 l 115 972 z "},"Ə":{"ha":1014,"x_min":68,"x_max":944,"o":"m 490 -22 q 273 29 368 -22 q 123 187 178 81 q 68 451 68 293 l 68 542 l 736 542 q 661 744 725 681 q 493 807 597 807 q 356 762 411 807 q 285 643 300 717 l 76 643 q 213 903 101 813 q 493 994 325 994 q 825 865 706 994 q 944 485 944 736 q 887 206 944 319 q 727 35 829 92 q 490 -22 625 -22 m 274 365 q 342 217 283 269 q 490 165 400 165 q 641 214 579 165 q 726 365 703 263 l 274 365 z "},"a":{"ha":758,"x_min":42,"x_max":732,"o":"m 306 -21 q 113 38 185 -21 q 42 197 42 96 q 106 357 42 297 q 293 425 169 417 l 469 436 l 469 465 q 446 530 469 510 q 369 550 422 550 q 296 535 319 550 q 267 486 272 519 l 75 486 q 383 707 97 707 q 581 647 510 707 q 653 478 653 586 l 653 174 q 671 154 653 154 l 732 154 l 732 0 l 593 0 q 537 18 557 0 q 514 68 517 36 q 430 3 485 26 q 306 -21 375 -21 m 235 204 q 260 154 235 172 q 332 136 285 136 q 431 168 392 136 q 469 260 469 200 l 469 292 l 325 279 q 258 254 281 275 q 235 204 235 233 z "},"b":{"ha":863,"x_min":96,"x_max":808,"o":"m 479 -21 q 356 2 413 -21 q 267 67 300 25 l 267 0 l 96 0 l 96 972 l 290 972 l 290 633 q 371 688 321 668 q 479 707 421 707 q 651 662 576 707 q 767 534 725 617 q 808 343 808 451 q 767 152 808 235 q 651 24 725 69 q 479 -21 576 -21 m 288 343 q 331 206 288 258 q 447 154 375 154 q 564 206 519 154 q 608 343 608 258 q 564 480 608 428 q 447 532 519 532 q 331 480 375 532 q 288 343 288 428 z "},"c":{"ha":763,"x_min":53,"x_max":728,"o":"m 396 -21 q 214 26 292 -21 q 94 154 136 72 q 53 340 53 236 q 97 531 53 447 q 222 660 142 614 q 407 707 301 707 q 628 635 542 707 q 725 446 715 564 l 529 446 q 488 507 521 482 q 404 532 456 532 q 294 481 335 532 q 253 342 253 431 q 294 204 253 254 q 403 154 335 154 q 490 181 456 154 q 532 254 524 208 l 728 254 q 678 118 719 181 q 563 17 636 56 q 396 -21 490 -21 z "},"d":{"ha":863,"x_min":53,"x_max":765,"o":"m 382 -21 q 210 24 285 -21 q 94 152 136 69 q 53 343 53 235 q 94 534 53 451 q 210 662 136 617 q 382 707 285 707 q 491 688 440 707 q 572 633 542 668 l 572 972 l 765 972 l 765 0 l 596 0 l 596 67 q 506 2 563 25 q 382 -21 449 -21 m 253 343 q 297 206 253 258 q 414 154 342 154 q 531 206 486 154 q 575 343 575 258 q 531 480 575 428 q 414 532 486 532 q 297 480 342 532 q 253 343 253 428 z "},"e":{"ha":781,"x_min":53,"x_max":735,"o":"m 401 -21 q 218 25 297 -21 q 96 154 139 71 q 53 347 53 238 q 96 536 53 454 q 217 663 139 618 q 394 707 294 707 q 644 612 553 707 q 735 353 735 517 q 731 274 735 318 l 244 274 q 292 175 250 210 q 403 140 333 140 q 479 158 449 140 q 524 204 510 175 l 722 204 q 610 39 690 99 q 401 -21 529 -21 m 539 421 l 539 424 q 501 519 539 483 q 394 554 464 554 q 288 518 328 554 q 243 421 247 482 l 539 421 z "},"f":{"ha":614,"x_min":10,"x_max":628,"o":"m 181 769 q 235 920 181 868 q 389 972 289 972 l 628 972 l 628 803 l 438 803 q 375 746 375 803 l 375 686 l 586 686 l 586 517 l 375 517 l 375 0 l 181 0 l 181 517 l 10 517 l 10 686 l 181 686 l 181 769 z "},"g":{"ha":804,"x_min":26,"x_max":788,"o":"m 247 -250 q 81 -201 136 -250 q 26 -75 26 -151 q 48 3 26 -32 q 110 63 69 39 q 67 111 82 82 q 53 174 53 140 q 79 253 53 217 q 161 307 106 289 q 100 381 121 339 q 79 472 79 424 q 113 592 79 539 q 210 676 146 644 q 363 707 274 707 q 508 672 443 707 q 597 579 574 636 l 597 600 q 622 667 597 649 q 685 686 647 686 l 788 686 l 788 517 l 669 517 q 646 490 646 517 l 646 457 q 570 285 646 349 q 374 222 494 222 l 264 222 q 230 212 242 222 q 218 182 218 201 q 231 153 218 164 q 264 143 243 143 l 499 143 q 668 94 608 143 q 728 -42 728 44 q 671 -193 728 -136 q 496 -250 614 -250 l 247 -250 m 208 -54 q 225 -93 208 -79 q 274 -107 242 -107 l 481 -107 q 526 -92 508 -107 q 544 -51 544 -78 q 528 -14 544 -28 q 483 0 511 0 l 275 0 q 226 -15 243 0 q 208 -54 208 -29 m 260 464 q 288 394 260 421 q 363 368 315 368 q 436 394 408 368 q 464 464 464 421 q 436 535 464 508 q 363 561 408 561 q 288 535 315 561 q 260 464 260 508 z "},"h":{"ha":815,"x_min":96,"x_max":733,"o":"m 96 972 l 290 972 l 290 643 q 365 690 321 674 q 460 707 410 707 q 660 630 586 707 q 733 417 733 553 l 733 0 l 539 0 l 539 396 q 419 532 539 532 q 325 494 360 532 q 290 390 290 456 l 290 0 l 96 0 l 96 972 z "},"i":{"ha":386,"x_min":90,"x_max":294,"o":"m 96 686 l 290 686 l 290 0 l 96 0 l 96 686 m 90 969 l 294 969 l 294 789 l 90 789 l 90 969 z "},"j":{"ha":394,"x_min":-31,"x_max":304,"o":"m -31 -76 l 67 -76 q 97 -65 89 -76 q 106 -24 106 -54 l 106 686 l 299 686 l 299 -50 q 242 -201 299 -151 q 85 -250 186 -250 l -31 -250 l -31 -76 m 100 969 l 304 969 l 304 789 l 100 789 l 100 969 z "},"k":{"ha":783,"x_min":96,"x_max":767,"o":"m 350 282 l 290 282 l 290 0 l 96 0 l 96 972 l 290 972 l 290 458 l 350 458 l 531 686 l 767 686 l 518 375 l 767 0 l 535 0 l 350 282 z "},"l":{"ha":438,"x_min":96,"x_max":408,"o":"m 250 0 q 133 33 169 0 q 96 143 96 67 l 96 972 l 290 972 l 290 213 q 300 180 290 190 q 333 169 310 169 l 408 169 l 408 0 l 250 0 z "},"m":{"ha":1153,"x_min":96,"x_max":1071,"o":"m 96 686 l 267 686 l 267 621 q 439 707 325 707 q 549 680 503 707 q 624 601 596 653 q 818 707 693 707 q 1004 634 938 707 q 1071 431 1071 561 l 1071 0 l 876 0 l 876 417 q 851 503 876 474 q 779 532 826 532 q 707 499 733 532 q 681 411 681 467 l 681 0 l 486 0 l 486 417 q 462 503 486 474 q 390 532 438 532 q 317 499 344 532 q 290 411 290 467 l 290 0 l 96 0 l 96 686 z "},"n":{"ha":815,"x_min":96,"x_max":733,"o":"m 96 686 l 267 686 l 267 617 q 347 684 296 661 q 460 707 399 707 q 660 630 586 707 q 733 417 733 553 l 733 0 l 539 0 l 539 396 q 419 532 539 532 q 325 494 360 532 q 290 390 290 456 l 290 0 l 96 0 l 96 686 z "},"o":{"ha":831,"x_min":53,"x_max":778,"o":"m 415 -21 q 227 24 310 -21 q 99 152 144 69 q 53 343 53 235 q 99 533 53 450 q 227 661 144 615 q 415 707 310 707 q 603 661 521 707 q 732 533 686 615 q 778 343 778 450 q 732 152 778 235 q 603 24 686 69 q 415 -21 521 -21 m 253 343 q 298 206 253 258 q 415 154 343 154 q 533 206 488 154 q 578 343 578 258 q 533 480 578 428 q 415 532 488 532 q 298 480 343 532 q 253 343 253 428 z "},"p":{"ha":863,"x_min":96,"x_max":808,"o":"m 96 686 l 267 686 l 267 619 q 356 684 300 661 q 479 707 413 707 q 651 662 576 707 q 767 534 725 617 q 808 343 808 451 q 767 152 808 235 q 651 24 725 69 q 479 -21 576 -21 q 371 -1 421 -21 q 290 53 321 18 l 290 -250 l 96 -250 l 96 686 m 288 343 q 331 206 288 258 q 447 154 375 154 q 564 206 519 154 q 608 343 608 258 q 564 480 608 428 q 447 532 519 532 q 331 480 375 532 q 288 343 288 428 z "},"q":{"ha":863,"x_min":53,"x_max":765,"o":"m 572 53 q 491 -1 542 18 q 382 -21 440 -21 q 210 24 285 -21 q 94 152 136 69 q 53 343 53 235 q 94 534 53 451 q 210 662 136 617 q 382 707 285 707 q 506 684 449 707 q 596 619 563 661 l 596 686 l 765 686 l 765 -250 l 572 -250 l 572 53 m 253 343 q 297 206 253 258 q 414 154 342 154 q 531 206 486 154 q 575 343 575 258 q 531 480 575 428 q 414 532 486 532 q 297 480 342 532 q 253 343 253 428 z "},"r":{"ha":569,"x_min":96,"x_max":549,"o":"m 96 686 l 267 686 l 267 565 q 320 655 279 624 q 426 686 361 686 l 549 686 l 549 517 l 403 517 q 290 400 290 517 l 290 0 l 96 0 l 96 686 z "},"s":{"ha":699,"x_min":38,"x_max":653,"o":"m 349 -21 q 124 37 206 -21 q 38 204 43 94 l 238 204 q 357 133 246 133 q 431 151 403 133 q 458 200 458 169 q 376 258 458 250 l 268 269 q 116 337 172 281 q 60 481 60 393 q 138 647 60 586 q 349 707 215 707 q 561 651 483 707 q 646 486 639 596 l 454 486 q 346 553 450 553 q 274 537 300 553 q 249 492 249 521 q 336 432 249 443 l 447 419 q 598 353 543 410 q 653 211 653 297 q 571 42 653 104 q 349 -21 489 -21 z "},"t":{"ha":614,"x_min":8,"x_max":578,"o":"m 363 0 q 223 42 267 0 q 179 182 179 85 l 179 517 l 8 517 l 8 686 l 179 686 l 179 885 l 374 885 l 374 686 l 578 686 l 578 517 l 374 517 l 374 229 q 388 184 374 199 q 433 169 401 169 l 578 169 l 578 0 l 363 0 z "},"u":{"ha":792,"x_min":78,"x_max":708,"o":"m 347 -21 q 150 56 222 -21 q 78 269 78 133 l 78 686 l 271 686 l 271 290 q 388 154 271 154 q 481 192 447 154 q 514 296 514 231 l 514 686 l 708 686 l 708 0 l 538 0 l 538 56 q 456 -1 506 18 q 347 -21 406 -21 z "},"v":{"ha":793,"x_min":11,"x_max":782,"o":"m 11 686 l 226 686 l 396 208 l 567 686 l 782 686 l 507 0 l 286 0 l 11 686 z "},"w":{"ha":1131,"x_min":18,"x_max":1113,"o":"m 18 686 l 219 686 l 338 215 l 454 686 l 676 686 l 794 215 l 911 686 l 1113 686 l 913 0 l 683 0 l 565 468 l 447 0 l 218 0 l 18 686 z "},"x":{"ha":778,"x_min":17,"x_max":761,"o":"m 264 354 l 31 686 l 263 686 l 388 493 l 515 686 l 747 686 l 513 354 l 761 0 l 529 0 l 389 203 l 249 0 l 17 0 l 264 354 z "},"y":{"ha":779,"x_min":11,"x_max":769,"o":"m 36 -79 l 178 -79 q 249 -35 229 -79 l 290 56 l 11 686 l 232 686 l 393 278 l 553 686 l 769 686 l 403 -140 q 340 -224 378 -197 q 231 -250 301 -250 l 36 -250 l 36 -79 z "},"z":{"ha":732,"x_min":61,"x_max":676,"o":"m 61 169 l 404 517 l 68 517 l 68 686 l 663 686 l 663 517 l 318 169 l 676 169 l 676 0 l 61 0 l 61 169 z "},"á":{"ha":758,"x_min":42,"x_max":732,"o":"m 306 -21 q 113 38 185 -21 q 42 197 42 96 q 106 357 42 297 q 293 425 169 417 l 469 436 l 469 465 q 446 530 469 510 q 369 550 422 550 q 296 535 319 550 q 267 486 272 519 l 75 486 q 383 707 97 707 q 581 647 510 707 q 653 478 653 586 l 653 174 q 671 154 653 154 l 732 154 l 732 0 l 593 0 q 537 18 557 0 q 514 68 517 36 q 430 3 485 26 q 306 -21 375 -21 m 235 204 q 260 154 235 172 q 332 136 285 136 q 431 168 392 136 q 469 260 469 200 l 469 292 l 325 279 q 258 254 281 275 q 235 204 235 233 m 392 989 l 571 989 l 463 783 l 297 783 l 392 989 z "},"ă":{"ha":758,"x_min":42,"x_max":732,"o":"m 306 -21 q 113 38 185 -21 q 42 197 42 96 q 106 357 42 297 q 293 425 169 417 l 469 436 l 469 465 q 446 530 469 510 q 369 550 422 550 q 296 535 319 550 q 267 486 272 519 l 75 486 q 383 707 97 707 q 581 647 510 707 q 653 478 653 586 l 653 174 q 671 154 653 154 l 732 154 l 732 0 l 593 0 q 537 18 557 0 q 514 68 517 36 q 430 3 485 26 q 306 -21 375 -21 m 235 204 q 260 154 235 172 q 332 136 285 136 q 431 168 392 136 q 469 260 469 200 l 469 292 l 325 279 q 258 254 281 275 q 235 204 235 233 m 378 778 q 217 831 272 778 q 163 989 163 885 l 304 989 q 322 922 304 943 q 378 900 340 900 q 433 922 415 900 q 451 989 451 943 l 593 989 q 538 831 593 885 q 378 778 483 778 z "},"â":{"ha":758,"x_min":42,"x_max":732,"o":"m 306 -21 q 113 38 185 -21 q 42 197 42 96 q 106 357 42 297 q 293 425 169 417 l 469 436 l 469 465 q 446 530 469 510 q 369 550 422 550 q 296 535 319 550 q 267 486 272 519 l 75 486 q 383 707 97 707 q 581 647 510 707 q 653 478 653 586 l 653 174 q 671 154 653 154 l 732 154 l 732 0 l 593 0 q 537 18 557 0 q 514 68 517 36 q 430 3 485 26 q 306 -21 375 -21 m 235 204 q 260 154 235 172 q 332 136 285 136 q 431 168 392 136 q 469 260 469 200 l 469 292 l 325 279 q 258 254 281 275 q 235 204 235 233 m 257 989 l 496 989 l 601 783 l 436 783 l 376 915 l 317 783 l 151 783 l 257 989 z "},"ä":{"ha":758,"x_min":42,"x_max":732,"o":"m 306 -21 q 113 38 185 -21 q 42 197 42 96 q 106 357 42 297 q 293 425 169 417 l 469 436 l 469 465 q 446 530 469 510 q 369 550 422 550 q 296 535 319 550 q 267 486 272 519 l 75 486 q 383 707 97 707 q 581 647 510 707 q 653 478 653 586 l 653 174 q 671 154 653 154 l 732 154 l 732 0 l 593 0 q 537 18 557 0 q 514 68 517 36 q 430 3 485 26 q 306 -21 375 -21 m 235 204 q 260 154 235 172 q 332 136 285 136 q 431 168 392 136 q 469 260 469 200 l 469 292 l 325 279 q 258 254 281 275 q 235 204 235 233 m 418 969 l 589 969 l 589 789 l 418 789 l 418 969 m 165 969 l 336 969 l 336 789 l 165 789 l 165 969 z "},"ạ":{"ha":758,"x_min":42,"x_max":732,"o":"m 306 -21 q 113 38 185 -21 q 42 197 42 96 q 106 357 42 297 q 293 425 169 417 l 469 436 l 469 465 q 446 530 469 510 q 369 550 422 550 q 296 535 319 550 q 267 486 272 519 l 75 486 q 383 707 97 707 q 581 647 510 707 q 653 478 653 586 l 653 174 q 671 154 653 154 l 732 154 l 732 0 l 593 0 q 537 18 557 0 q 514 68 517 36 q 430 3 485 26 q 306 -21 375 -21 m 235 204 q 260 154 235 172 q 332 136 285 136 q 431 168 392 136 q 469 260 469 200 l 469 292 l 325 279 q 258 254 281 275 q 235 204 235 233 m 274 -71 l 478 -71 l 478 -250 l 274 -250 l 274 -71 z "},"æ":{"ha":1179,"x_min":42,"x_max":1133,"o":"m 306 -21 q 111 37 181 -21 q 42 201 42 94 q 114 359 42 297 q 317 421 186 421 l 481 421 l 481 451 q 454 526 481 503 q 375 550 428 550 q 300 534 329 550 q 267 486 271 518 l 75 486 q 163 649 85 590 q 369 707 242 707 q 586 624 515 707 q 808 707 674 707 q 1047 612 960 707 q 1133 353 1133 517 q 1129 274 1133 318 l 671 274 q 713 175 676 210 q 815 140 750 140 q 883 158 857 140 q 922 204 910 175 l 1122 204 q 1013 39 1090 99 q 814 -21 936 -21 q 672 8 736 -21 q 564 89 608 36 q 455 8 522 38 q 306 -21 388 -21 m 235 203 q 258 155 235 174 q 322 136 282 136 q 433 175 389 136 q 481 274 478 214 l 325 274 q 235 203 235 274 m 938 421 l 938 424 q 904 519 938 483 q 808 554 871 554 q 710 518 746 554 q 669 421 674 482 l 938 421 z "},"ǽ":{"ha":1179,"x_min":42,"x_max":1133,"o":"m 306 -21 q 111 37 181 -21 q 42 201 42 94 q 114 359 42 297 q 317 421 186 421 l 481 421 l 481 451 q 454 526 481 503 q 375 550 428 550 q 300 534 329 550 q 267 486 271 518 l 75 486 q 163 649 85 590 q 369 707 242 707 q 586 624 515 707 q 808 707 674 707 q 1047 612 960 707 q 1133 353 1133 517 q 1129 274 1133 318 l 671 274 q 713 175 676 210 q 815 140 750 140 q 883 158 857 140 q 922 204 910 175 l 1122 204 q 1013 39 1090 99 q 814 -21 936 -21 q 672 8 736 -21 q 564 89 608 36 q 455 8 522 38 q 306 -21 388 -21 m 235 203 q 258 155 235 174 q 322 136 282 136 q 433 175 389 136 q 481 274 478 214 l 325 274 q 235 203 235 274 m 938 421 l 938 424 q 904 519 938 483 q 808 554 871 554 q 710 518 746 554 q 669 421 674 482 l 938 421 m 597 989 l 776 989 l 668 783 l 503 783 l 597 989 z "},"à":{"ha":758,"x_min":42,"x_max":732,"o":"m 306 -21 q 113 38 185 -21 q 42 197 42 96 q 106 357 42 297 q 293 425 169 417 l 469 436 l 469 465 q 446 530 469 510 q 369 550 422 550 q 296 535 319 550 q 267 486 272 519 l 75 486 q 383 707 97 707 q 581 647 510 707 q 653 478 653 586 l 653 174 q 671 154 653 154 l 732 154 l 732 0 l 593 0 q 537 18 557 0 q 514 68 517 36 q 430 3 485 26 q 306 -21 375 -21 m 235 204 q 260 154 235 172 q 332 136 285 136 q 431 168 392 136 q 469 260 469 200 l 469 292 l 325 279 q 258 254 281 275 q 235 204 235 233 m 178 989 l 356 989 l 451 783 l 286 783 l 178 989 z "},"ā":{"ha":758,"x_min":42,"x_max":732,"o":"m 306 -21 q 113 38 185 -21 q 42 197 42 96 q 106 357 42 297 q 293 425 169 417 l 469 436 l 469 465 q 446 530 469 510 q 369 550 422 550 q 296 535 319 550 q 267 486 272 519 l 75 486 q 383 707 97 707 q 581 647 510 707 q 653 478 653 586 l 653 174 q 671 154 653 154 l 732 154 l 732 0 l 593 0 q 537 18 557 0 q 514 68 517 36 q 430 3 485 26 q 306 -21 375 -21 m 235 204 q 260 154 235 172 q 332 136 285 136 q 431 168 392 136 q 469 260 469 200 l 469 292 l 325 279 q 258 254 281 275 q 235 204 235 233 m 158 938 l 596 938 l 596 814 l 158 814 l 158 938 z "},"ą":{"ha":758,"x_min":42,"x_max":732,"o":"m 306 -21 q 113 38 185 -21 q 42 197 42 96 q 106 357 42 297 q 293 425 169 417 l 469 436 l 469 465 q 446 530 469 510 q 369 550 422 550 q 296 535 319 550 q 267 486 272 519 l 75 486 q 383 707 97 707 q 581 647 510 707 q 653 478 653 586 l 653 174 q 671 154 653 154 l 732 154 l 732 0 l 646 0 q 585 -62 607 -35 q 564 -110 564 -89 q 617 -151 564 -151 l 668 -151 l 668 -269 l 579 -269 q 463 -236 506 -269 q 419 -146 419 -203 q 447 -60 419 -101 q 531 24 474 -19 q 514 68 517 40 q 430 3 485 26 q 306 -21 375 -21 m 235 204 q 260 154 235 172 q 332 136 285 136 q 431 168 392 136 q 469 260 469 200 l 469 292 l 325 279 q 258 254 281 275 q 235 204 235 233 z "},"å":{"ha":758,"x_min":42,"x_max":732,"o":"m 306 -21 q 113 38 185 -21 q 42 197 42 96 q 106 357 42 297 q 293 425 169 417 l 469 436 l 469 465 q 446 530 469 510 q 369 550 422 550 q 296 535 319 550 q 267 486 272 519 l 75 486 q 383 707 97 707 q 581 647 510 707 q 653 478 653 586 l 653 174 q 671 154 653 154 l 732 154 l 732 0 l 593 0 q 537 18 557 0 q 514 68 517 36 q 430 3 485 26 q 306 -21 375 -21 m 235 204 q 260 154 235 172 q 332 136 285 136 q 431 168 392 136 q 469 260 469 200 l 469 292 l 325 279 q 258 254 281 275 q 235 204 235 233 m 376 749 q 255 795 303 749 q 207 913 207 842 q 255 1031 207 985 q 376 1078 303 1078 q 499 1031 451 1078 q 547 913 547 985 q 499 795 547 842 q 376 749 451 749 m 314 913 q 331 867 314 885 q 376 849 349 849 q 422 866 404 849 q 440 913 440 883 q 422 960 440 942 q 376 978 404 978 q 331 960 349 978 q 314 913 314 942 z "},"ã":{"ha":758,"x_min":42,"x_max":732,"o":"m 306 -21 q 113 38 185 -21 q 42 197 42 96 q 106 357 42 297 q 293 425 169 417 l 469 436 l 469 465 q 446 530 469 510 q 369 550 422 550 q 296 535 319 550 q 267 486 272 519 l 75 486 q 383 707 97 707 q 581 647 510 707 q 653 478 653 586 l 653 174 q 671 154 653 154 l 732 154 l 732 0 l 593 0 q 537 18 557 0 q 514 68 517 36 q 430 3 485 26 q 306 -21 375 -21 m 235 204 q 260 154 235 172 q 332 136 285 136 q 431 168 392 136 q 469 260 469 200 l 469 292 l 325 279 q 258 254 281 275 q 235 204 235 233 m 490 781 q 389 807 442 781 l 350 828 q 312 845 328 839 q 279 851 296 851 q 248 842 260 851 q 236 811 236 832 l 236 788 l 122 788 l 122 840 q 164 956 122 922 q 265 989 206 989 q 367 963 314 989 l 404 942 q 476 918 449 918 q 508 928 496 918 q 519 958 519 938 l 519 981 l 633 981 l 633 929 q 592 814 633 847 q 490 781 550 781 z "},"ć":{"ha":763,"x_min":53,"x_max":728,"o":"m 396 -21 q 214 26 292 -21 q 94 154 136 72 q 53 340 53 236 q 97 531 53 447 q 222 660 142 614 q 407 707 301 707 q 628 635 542 707 q 725 446 715 564 l 529 446 q 488 507 521 482 q 404 532 456 532 q 294 481 335 532 q 253 342 253 431 q 294 204 253 254 q 403 154 335 154 q 490 181 456 154 q 532 254 524 208 l 728 254 q 678 118 719 181 q 563 17 636 56 q 396 -21 490 -21 m 429 989 l 608 989 l 500 783 l 335 783 l 429 989 z "},"č":{"ha":763,"x_min":53,"x_max":728,"o":"m 396 -21 q 214 26 292 -21 q 94 154 136 72 q 53 340 53 236 q 97 531 53 447 q 222 660 142 614 q 407 707 301 707 q 628 635 542 707 q 725 446 715 564 l 529 446 q 488 507 521 482 q 404 532 456 532 q 294 481 335 532 q 253 342 253 431 q 294 204 253 254 q 403 154 335 154 q 490 181 456 154 q 532 254 524 208 l 728 254 q 678 118 719 181 q 563 17 636 56 q 396 -21 490 -21 m 189 989 l 354 989 l 415 858 l 474 989 l 639 989 l 533 783 l 294 783 l 189 989 z "},"ç":{"ha":763,"x_min":53,"x_max":728,"o":"m 226 -175 l 335 -175 q 375 -164 360 -175 q 390 -135 390 -153 q 379 -112 390 -121 q 350 -103 368 -103 l 304 -103 l 338 -17 q 128 100 204 3 q 53 340 53 197 q 97 531 53 447 q 222 660 142 614 q 407 707 301 707 q 628 635 542 707 q 725 446 715 564 l 529 446 q 488 507 521 482 q 404 532 456 532 q 294 481 335 532 q 253 342 253 431 q 294 204 253 254 q 403 154 335 154 q 490 181 456 154 q 532 254 524 208 l 728 254 q 644 77 717 154 q 456 -17 572 0 l 444 -40 q 518 -143 518 -64 q 471 -233 518 -196 q 354 -269 424 -269 l 226 -269 l 226 -175 z "},"ĉ":{"ha":763,"x_min":53,"x_max":728,"o":"m 396 -21 q 214 26 292 -21 q 94 154 136 72 q 53 340 53 236 q 97 531 53 447 q 222 660 142 614 q 407 707 301 707 q 628 635 542 707 q 725 446 715 564 l 529 446 q 488 507 521 482 q 404 532 456 532 q 294 481 335 532 q 253 342 253 431 q 294 204 253 254 q 403 154 335 154 q 490 181 456 154 q 532 254 524 208 l 728 254 q 678 118 719 181 q 563 17 636 56 q 396 -21 490 -21 m 294 989 l 533 989 l 639 783 l 474 783 l 414 915 l 354 783 l 189 783 l 294 989 z "},"ċ":{"ha":763,"x_min":53,"x_max":728,"o":"m 396 -21 q 214 26 292 -21 q 94 154 136 72 q 53 340 53 236 q 97 531 53 447 q 222 660 142 614 q 407 707 301 707 q 628 635 542 707 q 725 446 715 564 l 529 446 q 488 507 521 482 q 404 532 456 532 q 294 481 335 532 q 253 342 253 431 q 294 204 253 254 q 403 154 335 154 q 490 181 456 154 q 532 254 524 208 l 728 254 q 678 118 719 181 q 563 17 636 56 q 396 -21 490 -21 m 313 969 l 517 969 l 517 789 l 313 789 l 313 969 z "},"ď":{"ha":863,"x_min":53,"x_max":1018,"o":"m 382 -21 q 210 24 285 -21 q 94 152 136 69 q 53 343 53 235 q 94 534 53 451 q 210 662 136 617 q 382 707 285 707 q 491 688 440 707 q 572 633 542 668 l 572 972 l 765 972 l 765 0 l 596 0 l 596 67 q 506 2 563 25 q 382 -21 449 -21 m 253 343 q 297 206 253 258 q 414 154 342 154 q 531 206 486 154 q 575 343 575 258 q 531 480 575 428 q 414 532 486 532 q 297 480 342 532 q 253 343 253 428 m 839 972 l 1018 972 l 961 753 l 818 753 l 839 972 z "},"đ":{"ha":863,"x_min":53,"x_max":839,"o":"m 382 -21 q 210 24 285 -21 q 94 152 136 69 q 53 343 53 235 q 94 534 53 451 q 210 662 136 617 q 382 707 285 707 q 491 688 440 707 q 572 633 542 668 l 572 758 l 364 758 l 364 876 l 572 876 l 572 972 l 765 972 l 765 876 l 839 876 l 839 758 l 765 758 l 765 0 l 596 0 l 596 67 q 506 2 563 25 q 382 -21 449 -21 m 253 343 q 297 206 253 258 q 414 154 342 154 q 531 206 486 154 q 575 343 575 258 q 531 480 575 428 q 414 532 486 532 q 297 480 342 532 q 253 343 253 428 z "},"é":{"ha":781,"x_min":53,"x_max":735,"o":"m 401 -21 q 218 25 297 -21 q 96 154 139 71 q 53 347 53 238 q 96 536 53 454 q 217 663 139 618 q 394 707 294 707 q 644 612 553 707 q 735 353 735 517 q 731 274 735 318 l 244 274 q 292 175 250 210 q 403 140 333 140 q 479 158 449 140 q 524 204 510 175 l 722 204 q 610 39 690 99 q 401 -21 529 -21 m 539 421 l 539 424 q 501 519 539 483 q 394 554 464 554 q 288 518 328 554 q 243 421 247 482 l 539 421 m 421 989 l 600 989 l 492 783 l 326 783 l 421 989 z "},"ĕ":{"ha":781,"x_min":53,"x_max":735,"o":"m 401 -21 q 218 25 297 -21 q 96 154 139 71 q 53 347 53 238 q 96 536 53 454 q 217 663 139 618 q 394 707 294 707 q 644 612 553 707 q 735 353 735 517 q 731 274 735 318 l 244 274 q 292 175 250 210 q 403 140 333 140 q 479 158 449 140 q 524 204 510 175 l 722 204 q 610 39 690 99 q 401 -21 529 -21 m 539 421 l 539 424 q 501 519 539 483 q 394 554 464 554 q 288 518 328 554 q 243 421 247 482 l 539 421 m 406 778 q 245 831 300 778 q 190 989 190 885 l 332 989 q 350 922 332 943 q 406 900 368 900 q 461 922 443 900 q 479 989 479 943 l 621 989 q 566 831 621 885 q 406 778 511 778 z "},"ě":{"ha":781,"x_min":53,"x_max":735,"o":"m 401 -21 q 218 25 297 -21 q 96 154 139 71 q 53 347 53 238 q 96 536 53 454 q 217 663 139 618 q 394 707 294 707 q 644 612 553 707 q 735 353 735 517 q 731 274 735 318 l 244 274 q 292 175 250 210 q 403 140 333 140 q 479 158 449 140 q 524 204 510 175 l 722 204 q 610 39 690 99 q 401 -21 529 -21 m 539 421 l 539 424 q 501 519 539 483 q 394 554 464 554 q 288 518 328 554 q 243 421 247 482 l 539 421 m 181 989 l 346 989 l 407 858 l 465 989 l 631 989 l 525 783 l 286 783 l 181 989 z "},"ê":{"ha":781,"x_min":53,"x_max":735,"o":"m 401 -21 q 218 25 297 -21 q 96 154 139 71 q 53 347 53 238 q 96 536 53 454 q 217 663 139 618 q 394 707 294 707 q 644 612 553 707 q 735 353 735 517 q 731 274 735 318 l 244 274 q 292 175 250 210 q 403 140 333 140 q 479 158 449 140 q 524 204 510 175 l 722 204 q 610 39 690 99 q 401 -21 529 -21 m 539 421 l 539 424 q 501 519 539 483 q 394 554 464 554 q 288 518 328 554 q 243 421 247 482 l 539 421 m 286 989 l 525 989 l 631 783 l 465 783 l 406 915 l 346 783 l 181 783 l 286 989 z "},"ë":{"ha":781,"x_min":53,"x_max":735,"o":"m 401 -21 q 218 25 297 -21 q 96 154 139 71 q 53 347 53 238 q 96 536 53 454 q 217 663 139 618 q 394 707 294 707 q 644 612 553 707 q 735 353 735 517 q 731 274 735 318 l 244 274 q 292 175 250 210 q 403 140 333 140 q 479 158 449 140 q 524 204 510 175 l 722 204 q 610 39 690 99 q 401 -21 529 -21 m 539 421 l 539 424 q 501 519 539 483 q 394 554 464 554 q 288 518 328 554 q 243 421 247 482 l 539 421 m 447 969 l 618 969 l 618 789 l 447 789 l 447 969 m 194 969 l 365 969 l 365 789 l 194 789 l 194 969 z "},"ė":{"ha":781,"x_min":53,"x_max":735,"o":"m 401 -21 q 218 25 297 -21 q 96 154 139 71 q 53 347 53 238 q 96 536 53 454 q 217 663 139 618 q 394 707 294 707 q 644 612 553 707 q 735 353 735 517 q 731 274 735 318 l 244 274 q 292 175 250 210 q 403 140 333 140 q 479 158 449 140 q 524 204 510 175 l 722 204 q 610 39 690 99 q 401 -21 529 -21 m 539 421 l 539 424 q 501 519 539 483 q 394 554 464 554 q 288 518 328 554 q 243 421 247 482 l 539 421 m 304 969 l 508 969 l 508 789 l 304 789 l 304 969 z "},"ẹ":{"ha":781,"x_min":53,"x_max":735,"o":"m 401 -21 q 218 25 297 -21 q 96 154 139 71 q 53 347 53 238 q 96 536 53 454 q 217 663 139 618 q 394 707 294 707 q 644 612 553 707 q 735 353 735 517 q 731 274 735 318 l 244 274 q 292 175 250 210 q 403 140 333 140 q 479 158 449 140 q 524 204 510 175 l 722 204 q 610 39 690 99 q 401 -21 529 -21 m 539 421 l 539 424 q 501 519 539 483 q 394 554 464 554 q 288 518 328 554 q 243 421 247 482 l 539 421 m 308 -71 l 513 -71 l 513 -250 l 308 -250 l 308 -71 z "},"è":{"ha":781,"x_min":53,"x_max":735,"o":"m 401 -21 q 218 25 297 -21 q 96 154 139 71 q 53 347 53 238 q 96 536 53 454 q 217 663 139 618 q 394 707 294 707 q 644 612 553 707 q 735 353 735 517 q 731 274 735 318 l 244 274 q 292 175 250 210 q 403 140 333 140 q 479 158 449 140 q 524 204 510 175 l 722 204 q 610 39 690 99 q 401 -21 529 -21 m 539 421 l 539 424 q 501 519 539 483 q 394 554 464 554 q 288 518 328 554 q 243 421 247 482 l 539 421 m 207 989 l 385 989 l 481 783 l 315 783 l 207 989 z "},"ē":{"ha":781,"x_min":53,"x_max":735,"o":"m 401 -21 q 218 25 297 -21 q 96 154 139 71 q 53 347 53 238 q 96 536 53 454 q 217 663 139 618 q 394 707 294 707 q 644 612 553 707 q 735 353 735 517 q 731 274 735 318 l 244 274 q 292 175 250 210 q 403 140 333 140 q 479 158 449 140 q 524 204 510 175 l 722 204 q 610 39 690 99 q 401 -21 529 -21 m 539 421 l 539 424 q 501 519 539 483 q 394 554 464 554 q 288 518 328 554 q 243 421 247 482 l 539 421 m 186 938 l 624 938 l 624 814 l 186 814 l 186 938 z "},"ę":{"ha":781,"x_min":53,"x_max":735,"o":"m 481 -269 q 364 -236 407 -269 q 321 -146 321 -203 q 382 -21 321 -82 q 209 31 283 -17 q 94 159 135 78 q 53 347 53 240 q 96 536 53 454 q 217 663 139 618 q 394 707 294 707 q 644 612 553 707 q 735 353 735 517 q 731 274 735 318 l 244 274 q 292 175 250 210 q 403 140 333 140 q 479 158 449 140 q 524 204 510 175 l 722 204 q 560 10 681 65 q 465 -110 465 -68 q 518 -151 465 -151 l 569 -151 l 569 -269 l 481 -269 m 539 421 l 539 424 q 501 519 539 483 q 394 554 464 554 q 288 518 328 554 q 243 421 247 482 l 539 421 z "},"ẽ":{"ha":781,"x_min":53,"x_max":735,"o":"m 401 -21 q 218 25 297 -21 q 96 154 139 71 q 53 347 53 238 q 96 536 53 454 q 217 663 139 618 q 394 707 294 707 q 644 612 553 707 q 735 353 735 517 q 731 274 735 318 l 244 274 q 292 175 250 210 q 403 140 333 140 q 479 158 449 140 q 524 204 510 175 l 722 204 q 610 39 690 99 q 401 -21 529 -21 m 539 421 l 539 424 q 501 519 539 483 q 394 554 464 554 q 288 518 328 554 q 243 421 247 482 l 539 421 m 518 781 q 417 807 469 781 l 378 828 q 340 845 356 839 q 307 851 324 851 q 276 842 288 851 q 264 811 264 832 l 264 788 l 150 788 l 150 840 q 192 956 150 922 q 293 989 233 989 q 394 963 342 989 l 432 942 q 504 918 476 918 q 535 928 524 918 q 547 958 547 938 l 547 981 l 661 981 l 661 929 q 619 814 661 847 q 518 781 578 781 z "},"ğ":{"ha":804,"x_min":26,"x_max":788,"o":"m 247 -250 q 81 -201 136 -250 q 26 -75 26 -151 q 48 3 26 -32 q 110 63 69 39 q 67 111 82 82 q 53 174 53 140 q 79 253 53 217 q 161 307 106 289 q 100 381 121 339 q 79 472 79 424 q 113 592 79 539 q 210 676 146 644 q 363 707 274 707 q 508 672 443 707 q 597 579 574 636 l 597 600 q 622 667 597 649 q 685 686 647 686 l 788 686 l 788 517 l 669 517 q 646 490 646 517 l 646 457 q 570 285 646 349 q 374 222 494 222 l 264 222 q 230 212 242 222 q 218 182 218 201 q 231 153 218 164 q 264 143 243 143 l 499 143 q 668 94 608 143 q 728 -42 728 44 q 671 -193 728 -136 q 496 -250 614 -250 l 247 -250 m 208 -54 q 225 -93 208 -79 q 274 -107 242 -107 l 481 -107 q 526 -92 508 -107 q 544 -51 544 -78 q 528 -14 544 -28 q 483 0 511 0 l 275 0 q 226 -15 243 0 q 208 -54 208 -29 m 260 464 q 288 394 260 421 q 363 368 315 368 q 436 394 408 368 q 464 464 464 421 q 436 535 464 508 q 363 561 408 561 q 288 535 315 561 q 260 464 260 508 m 364 778 q 203 831 258 778 q 149 989 149 885 l 290 989 q 308 922 290 943 q 364 900 326 900 q 419 922 401 900 q 438 989 438 943 l 579 989 q 524 831 579 885 q 364 778 469 778 z "},"ǧ":{"ha":804,"x_min":26,"x_max":788,"o":"m 247 -250 q 81 -201 136 -250 q 26 -75 26 -151 q 48 3 26 -32 q 110 63 69 39 q 67 111 82 82 q 53 174 53 140 q 79 253 53 217 q 161 307 106 289 q 100 381 121 339 q 79 472 79 424 q 113 592 79 539 q 210 676 146 644 q 363 707 274 707 q 508 672 443 707 q 597 579 574 636 l 597 600 q 622 667 597 649 q 685 686 647 686 l 788 686 l 788 517 l 669 517 q 646 490 646 517 l 646 457 q 570 285 646 349 q 374 222 494 222 l 264 222 q 230 212 242 222 q 218 182 218 201 q 231 153 218 164 q 264 143 243 143 l 499 143 q 668 94 608 143 q 728 -42 728 44 q 671 -193 728 -136 q 496 -250 614 -250 l 247 -250 m 208 -54 q 225 -93 208 -79 q 274 -107 242 -107 l 481 -107 q 526 -92 508 -107 q 544 -51 544 -78 q 528 -14 544 -28 q 483 0 511 0 l 275 0 q 226 -15 243 0 q 208 -54 208 -29 m 260 464 q 288 394 260 421 q 363 368 315 368 q 436 394 408 368 q 464 464 464 421 q 436 535 464 508 q 363 561 408 561 q 288 535 315 561 q 260 464 260 508 m 138 989 l 303 989 l 364 858 l 422 989 l 588 989 l 482 783 l 243 783 l 138 989 z "},"ĝ":{"ha":804,"x_min":26,"x_max":788,"o":"m 247 -250 q 81 -201 136 -250 q 26 -75 26 -151 q 48 3 26 -32 q 110 63 69 39 q 67 111 82 82 q 53 174 53 140 q 79 253 53 217 q 161 307 106 289 q 100 381 121 339 q 79 472 79 424 q 113 592 79 539 q 210 676 146 644 q 363 707 274 707 q 508 672 443 707 q 597 579 574 636 l 597 600 q 622 667 597 649 q 685 686 647 686 l 788 686 l 788 517 l 669 517 q 646 490 646 517 l 646 457 q 570 285 646 349 q 374 222 494 222 l 264 222 q 230 212 242 222 q 218 182 218 201 q 231 153 218 164 q 264 143 243 143 l 499 143 q 668 94 608 143 q 728 -42 728 44 q 671 -193 728 -136 q 496 -250 614 -250 l 247 -250 m 208 -54 q 225 -93 208 -79 q 274 -107 242 -107 l 481 -107 q 526 -92 508 -107 q 544 -51 544 -78 q 528 -14 544 -28 q 483 0 511 0 l 275 0 q 226 -15 243 0 q 208 -54 208 -29 m 260 464 q 288 394 260 421 q 363 368 315 368 q 436 394 408 368 q 464 464 464 421 q 436 535 464 508 q 363 561 408 561 q 288 535 315 561 q 260 464 260 508 m 243 989 l 482 989 l 588 783 l 422 783 l 363 915 l 303 783 l 138 783 l 243 989 z "},"ģ":{"ha":804,"x_min":26,"x_max":788,"o":"m 247 -250 q 81 -201 136 -250 q 26 -75 26 -151 q 48 3 26 -32 q 110 63 69 39 q 67 111 82 82 q 53 174 53 140 q 79 253 53 217 q 161 307 106 289 q 100 381 121 339 q 79 472 79 424 q 113 592 79 539 q 210 676 146 644 q 363 707 274 707 q 508 672 443 707 q 597 579 574 636 l 597 600 q 622 667 597 649 q 685 686 647 686 l 788 686 l 788 517 l 669 517 q 646 490 646 517 l 646 457 q 570 285 646 349 q 374 222 494 222 l 264 222 q 230 212 242 222 q 218 182 218 201 q 231 153 218 164 q 264 143 243 143 l 499 143 q 668 94 608 143 q 728 -42 728 44 q 671 -193 728 -136 q 496 -250 614 -250 l 247 -250 m 208 -54 q 225 -93 208 -79 q 274 -107 242 -107 l 481 -107 q 526 -92 508 -107 q 544 -51 544 -78 q 528 -14 544 -28 q 483 0 511 0 l 275 0 q 226 -15 243 0 q 208 -54 208 -29 m 260 464 q 288 394 260 421 q 363 368 315 368 q 436 394 408 368 q 464 464 464 421 q 436 535 464 508 q 363 561 408 561 q 288 535 315 561 q 260 464 260 508 m 263 953 q 291 1015 263 994 q 371 1035 319 1035 l 460 1035 l 460 961 l 392 961 q 376 956 381 961 q 372 940 372 951 l 372 903 l 460 903 l 460 767 l 263 767 l 263 953 z "},"ġ":{"ha":804,"x_min":26,"x_max":788,"o":"m 247 -250 q 81 -201 136 -250 q 26 -75 26 -151 q 48 3 26 -32 q 110 63 69 39 q 67 111 82 82 q 53 174 53 140 q 79 253 53 217 q 161 307 106 289 q 100 381 121 339 q 79 472 79 424 q 113 592 79 539 q 210 676 146 644 q 363 707 274 707 q 508 672 443 707 q 597 579 574 636 l 597 600 q 622 667 597 649 q 685 686 647 686 l 788 686 l 788 517 l 669 517 q 646 490 646 517 l 646 457 q 570 285 646 349 q 374 222 494 222 l 264 222 q 230 212 242 222 q 218 182 218 201 q 231 153 218 164 q 264 143 243 143 l 499 143 q 668 94 608 143 q 728 -42 728 44 q 671 -193 728 -136 q 496 -250 614 -250 l 247 -250 m 208 -54 q 225 -93 208 -79 q 274 -107 242 -107 l 481 -107 q 526 -92 508 -107 q 544 -51 544 -78 q 528 -14 544 -28 q 483 0 511 0 l 275 0 q 226 -15 243 0 q 208 -54 208 -29 m 260 464 q 288 394 260 421 q 363 368 315 368 q 436 394 408 368 q 464 464 464 421 q 436 535 464 508 q 363 561 408 561 q 288 535 315 561 q 260 464 260 508 m 261 969 l 465 969 l 465 789 l 261 789 l 261 969 z "},"ħ":{"ha":815,"x_min":28,"x_max":733,"o":"m 96 758 l 28 758 l 28 876 l 96 876 l 96 972 l 290 972 l 290 876 l 503 876 l 503 758 l 290 758 l 290 643 q 365 690 321 674 q 460 707 410 707 q 660 630 586 707 q 733 417 733 553 l 733 0 l 539 0 l 539 396 q 419 532 539 532 q 325 494 360 532 q 290 390 290 456 l 290 0 l 96 0 l 96 758 z "},"ĥ":{"ha":815,"x_min":96,"x_max":733,"o":"m 96 972 l 290 972 l 290 643 q 365 690 321 674 q 460 707 410 707 q 660 630 586 707 q 733 417 733 553 l 733 0 l 539 0 l 539 396 q 419 532 539 532 q 325 494 360 532 q 290 390 290 456 l 290 0 l 96 0 l 96 972 m 297 1225 l 503 1225 l 611 1049 l 450 1049 l 400 1150 l 350 1049 l 189 1049 l 297 1225 z "},"í":{"ha":386,"x_min":96,"x_max":388,"o":"m 96 686 l 290 686 l 290 0 l 96 0 l 96 686 m 208 989 l 388 989 l 279 783 l 114 783 l 208 989 z "},"ĭ":{"ha":386,"x_min":-22,"x_max":408,"o":"m 96 686 l 290 686 l 290 0 l 96 0 l 96 686 m 193 778 q 33 831 88 778 q -22 989 -22 885 l 119 989 q 138 922 119 943 q 193 900 156 900 q 249 922 231 900 q 267 989 267 943 l 408 989 q 353 831 408 885 q 193 778 299 778 z "},"î":{"ha":386,"x_min":-32,"x_max":418,"o":"m 96 686 l 290 686 l 290 0 l 96 0 l 96 686 m 74 989 l 313 989 l 418 783 l 253 783 l 193 915 l 133 783 l -32 783 l 74 989 z "},"ï":{"ha":386,"x_min":-19,"x_max":404,"o":"m 96 686 l 290 686 l 290 0 l 96 0 l 96 686 m 233 969 l 404 969 l 404 789 l 233 789 l 233 969 m -19 969 l 151 969 l 151 789 l -19 789 l -19 969 z "},"ị":{"ha":386,"x_min":90,"x_max":294,"o":"m 96 686 l 290 686 l 290 0 l 96 0 l 96 686 m 90 969 l 294 969 l 294 789 l 90 789 l 90 969 m 90 -71 l 294 -71 l 294 -250 l 90 -250 l 90 -71 z "},"ı":{"ha":386,"x_min":96,"x_max":290,"o":"m 96 686 l 290 686 l 290 0 l 96 0 l 96 686 z "},"ì":{"ha":386,"x_min":-7,"x_max":290,"o":"m 96 686 l 290 686 l 290 0 l 96 0 l 96 686 m -7 989 l 171 989 l 267 783 l 101 783 l -7 989 z "},"ĳ":{"ha":778,"x_min":90,"x_max":688,"o":"m 96 686 l 290 686 l 290 0 l 96 0 l 96 686 m 90 969 l 294 969 l 294 789 l 90 789 l 90 969 m 353 -76 l 450 -76 q 481 -65 472 -76 q 489 -24 489 -54 l 489 686 l 682 686 l 682 -50 q 626 -201 682 -151 q 468 -250 569 -250 l 353 -250 l 353 -76 m 483 969 l 688 969 l 688 789 l 483 789 l 483 969 z "},"ī":{"ha":386,"x_min":-26,"x_max":411,"o":"m 96 686 l 290 686 l 290 0 l 96 0 l 96 686 m -26 938 l 411 938 l 411 814 l -26 814 l -26 938 z "},"į":{"ha":386,"x_min":-26,"x_max":294,"o":"m 90 969 l 294 969 l 294 789 l 90 789 l 90 969 m -26 -146 q 3 -57 -26 -100 q 96 32 33 -14 l 96 686 l 290 686 l 290 0 l 200 0 q 140 -62 161 -35 q 118 -110 118 -89 q 171 -151 118 -151 l 222 -151 l 222 -269 l 133 -269 q 17 -236 60 -269 q -26 -146 -26 -203 z "},"ĩ":{"ha":386,"x_min":-62,"x_max":449,"o":"m 96 686 l 290 686 l 290 0 l 96 0 l 96 686 m 306 781 q 204 807 257 781 l 165 828 q 127 845 143 839 q 94 851 111 851 q 63 842 75 851 q 51 811 51 832 l 51 788 l -62 788 l -62 840 q -21 956 -62 922 q 81 989 21 989 q 182 963 129 989 l 219 942 q 292 918 264 918 q 323 928 311 918 q 335 958 335 938 l 335 981 l 449 981 l 449 929 q 407 814 449 847 q 306 781 365 781 z "},"ĵ":{"ha":394,"x_min":-31,"x_max":426,"o":"m -31 -76 l 67 -76 q 97 -65 89 -76 q 106 -24 106 -54 l 106 686 l 299 686 l 299 -50 q 242 -201 299 -151 q 85 -250 186 -250 l -31 -250 l -31 -76 m 82 989 l 321 989 l 426 783 l 261 783 l 201 915 l 142 783 l -24 783 l 82 989 z "},"ȷ":{"ha":394,"x_min":-31,"x_max":299,"o":"m -31 -76 l 67 -76 q 97 -65 89 -76 q 106 -24 106 -54 l 106 686 l 299 686 l 299 -50 q 242 -201 299 -151 q 85 -250 186 -250 l -31 -250 l -31 -76 z "},"ķ":{"ha":783,"x_min":96,"x_max":767,"o":"m 350 282 l 290 282 l 290 0 l 96 0 l 96 972 l 290 972 l 290 458 l 350 458 l 531 686 l 767 686 l 518 375 l 767 0 l 535 0 l 350 282 m 303 -203 l 371 -203 q 390 -187 390 -203 l 390 -165 l 303 -165 l 303 -47 l 500 -47 l 500 -176 q 473 -249 500 -229 q 392 -268 446 -268 l 303 -268 l 303 -203 z "},"ĸ":{"ha":783,"x_min":96,"x_max":767,"o":"m 350 282 l 290 282 l 290 0 l 96 0 l 96 686 l 290 686 l 290 458 l 350 458 l 531 686 l 767 686 l 518 375 l 767 0 l 535 0 l 350 282 z "},"ĺ":{"ha":438,"x_min":96,"x_max":408,"o":"m 250 0 q 133 33 169 0 q 96 143 96 67 l 96 972 l 290 972 l 290 213 q 300 180 290 190 q 333 169 310 169 l 408 169 l 408 0 l 250 0 m 190 1225 l 379 1225 l 285 1049 l 108 1049 l 190 1225 z "},"ľ":{"ha":438,"x_min":96,"x_max":543,"o":"m 250 0 q 133 33 169 0 q 96 143 96 67 l 96 972 l 290 972 l 290 213 q 300 180 290 190 q 333 169 310 169 l 408 169 l 408 0 l 250 0 m 364 972 l 543 972 l 486 753 l 343 753 l 364 972 z "},"ļ":{"ha":438,"x_min":96,"x_max":408,"o":"m 250 0 q 133 33 169 0 q 96 143 96 67 l 96 972 l 290 972 l 290 213 q 300 180 290 190 q 333 169 310 169 l 408 169 l 408 0 l 250 0 m 165 -203 l 233 -203 q 253 -187 253 -203 l 253 -165 l 165 -165 l 165 -47 l 363 -47 l 363 -176 q 335 -249 363 -229 q 254 -268 308 -268 l 165 -268 l 165 -203 z "},"ŀ":{"ha":542,"x_min":96,"x_max":572,"o":"m 250 0 q 133 33 169 0 q 96 143 96 67 l 96 972 l 290 972 l 290 213 q 300 180 290 190 q 333 169 310 169 l 408 169 l 408 0 l 250 0 m 360 642 l 572 642 l 572 413 l 360 413 l 360 642 z "},"ł":{"ha":438,"x_min":24,"x_max":408,"o":"m 250 0 q 133 33 169 0 q 96 143 96 67 l 96 342 l 24 297 l 24 454 l 96 499 l 96 972 l 290 972 l 290 619 l 385 678 l 385 518 l 290 460 l 290 213 q 300 180 290 190 q 333 169 310 169 l 408 169 l 408 0 l 250 0 z "},"ń":{"ha":815,"x_min":96,"x_max":733,"o":"m 96 686 l 267 686 l 267 617 q 347 684 296 661 q 460 707 399 707 q 660 630 586 707 q 733 417 733 553 l 733 0 l 539 0 l 539 396 q 419 532 539 532 q 325 494 360 532 q 290 390 290 456 l 290 0 l 96 0 l 96 686 m 429 989 l 608 989 l 500 783 l 335 783 l 429 989 z "},"ŉ":{"ha":1082,"x_min":63,"x_max":1000,"o":"m 63 678 l 144 678 q 165 692 165 678 l 165 763 l 63 763 l 63 974 l 271 974 l 271 689 q 242 600 271 629 q 158 571 213 571 l 63 571 l 63 678 m 363 686 l 533 686 l 533 617 q 614 684 563 661 q 726 707 665 707 q 926 630 853 707 q 1000 417 1000 553 l 1000 0 l 806 0 l 806 396 q 686 532 806 532 q 592 494 626 532 q 557 390 557 456 l 557 0 l 363 0 l 363 686 z "},"ň":{"ha":815,"x_min":96,"x_max":733,"o":"m 96 686 l 267 686 l 267 617 q 347 684 296 661 q 460 707 399 707 q 660 630 586 707 q 733 417 733 553 l 733 0 l 539 0 l 539 396 q 419 532 539 532 q 325 494 360 532 q 290 390 290 456 l 290 0 l 96 0 l 96 686 m 188 989 l 353 989 l 414 858 l 472 989 l 638 989 l 532 783 l 293 783 l 188 989 z "},"ņ":{"ha":815,"x_min":96,"x_max":733,"o":"m 96 686 l 267 686 l 267 617 q 347 684 296 661 q 460 707 399 707 q 660 630 586 707 q 733 417 733 553 l 733 0 l 539 0 l 539 396 q 419 532 539 532 q 325 494 360 532 q 290 390 290 456 l 290 0 l 96 0 l 96 686 m 315 -203 l 383 -203 q 403 -187 403 -203 l 403 -165 l 315 -165 l 315 -47 l 513 -47 l 513 -176 q 485 -249 513 -229 q 404 -268 458 -268 l 315 -268 l 315 -203 z "},"ɲ":{"ha":815,"x_min":-60,"x_max":733,"o":"m 267 686 l 267 617 q 347 684 296 661 q 460 707 399 707 q 660 630 586 707 q 733 417 733 553 l 733 0 l 539 0 l 539 396 q 419 532 539 532 q 325 494 360 532 q 290 390 290 456 l 290 -58 q 234 -208 290 -151 q 85 -264 178 -264 l -60 -264 l -60 -100 l 32 -100 q 80 -83 64 -100 q 96 -35 96 -65 l 96 686 l 267 686 z "},"ñ":{"ha":815,"x_min":96,"x_max":733,"o":"m 96 686 l 267 686 l 267 617 q 347 684 296 661 q 460 707 399 707 q 660 630 586 707 q 733 417 733 553 l 733 0 l 539 0 l 539 396 q 419 532 539 532 q 325 494 360 532 q 290 390 290 456 l 290 0 l 96 0 l 96 686 m 526 781 q 425 807 478 781 l 386 828 q 348 845 364 839 q 315 851 332 851 q 284 842 296 851 q 272 811 272 832 l 272 788 l 158 788 l 158 840 q 200 956 158 922 q 301 989 242 989 q 403 963 350 989 l 440 942 q 513 918 485 918 q 544 928 532 918 q 556 958 556 938 l 556 981 l 669 981 l 669 929 q 628 814 669 847 q 526 781 586 781 z "},"ŋ":{"ha":815,"x_min":96,"x_max":733,"o":"m 96 686 l 267 686 l 267 617 q 347 684 296 661 q 460 707 399 707 q 660 630 586 707 q 733 417 733 553 l 733 -58 q 677 -208 733 -151 q 528 -264 621 -264 l 383 -264 l 383 -100 l 475 -100 q 523 -83 507 -100 q 539 -35 539 -65 l 539 396 q 419 532 539 532 q 325 494 360 532 q 290 390 290 456 l 290 0 l 96 0 l 96 686 z "},"ó":{"ha":831,"x_min":53,"x_max":778,"o":"m 415 -21 q 227 24 310 -21 q 99 152 144 69 q 53 343 53 235 q 99 533 53 450 q 227 661 144 615 q 415 707 310 707 q 603 661 521 707 q 732 533 686 615 q 778 343 778 450 q 732 152 778 235 q 603 24 686 69 q 415 -21 521 -21 m 253 343 q 298 206 253 258 q 415 154 343 154 q 533 206 488 154 q 578 343 578 258 q 533 480 578 428 q 415 532 488 532 q 298 480 343 532 q 253 343 253 428 m 431 989 l 610 989 l 501 783 l 336 783 l 431 989 z "},"ŏ":{"ha":831,"x_min":53,"x_max":778,"o":"m 415 -21 q 227 24 310 -21 q 99 152 144 69 q 53 343 53 235 q 99 533 53 450 q 227 661 144 615 q 415 707 310 707 q 603 661 521 707 q 732 533 686 615 q 778 343 778 450 q 732 152 778 235 q 603 24 686 69 q 415 -21 521 -21 m 253 343 q 298 206 253 258 q 415 154 343 154 q 533 206 488 154 q 578 343 578 258 q 533 480 578 428 q 415 532 488 532 q 298 480 343 532 q 253 343 253 428 m 415 778 q 255 831 310 778 q 200 989 200 885 l 342 989 q 360 922 342 943 q 415 900 378 900 q 471 922 453 900 q 489 989 489 943 l 631 989 q 576 831 631 885 q 415 778 521 778 z "},"ô":{"ha":831,"x_min":53,"x_max":778,"o":"m 415 -21 q 227 24 310 -21 q 99 152 144 69 q 53 343 53 235 q 99 533 53 450 q 227 661 144 615 q 415 707 310 707 q 603 661 521 707 q 732 533 686 615 q 778 343 778 450 q 732 152 778 235 q 603 24 686 69 q 415 -21 521 -21 m 253 343 q 298 206 253 258 q 415 154 343 154 q 533 206 488 154 q 578 343 578 258 q 533 480 578 428 q 415 532 488 532 q 298 480 343 532 q 253 343 253 428 m 296 989 l 535 989 l 640 783 l 475 783 l 415 915 l 356 783 l 190 783 l 296 989 z "},"ö":{"ha":831,"x_min":53,"x_max":778,"o":"m 415 -21 q 227 24 310 -21 q 99 152 144 69 q 53 343 53 235 q 99 533 53 450 q 227 661 144 615 q 415 707 310 707 q 603 661 521 707 q 732 533 686 615 q 778 343 778 450 q 732 152 778 235 q 603 24 686 69 q 415 -21 521 -21 m 253 343 q 298 206 253 258 q 415 154 343 154 q 533 206 488 154 q 578 343 578 258 q 533 480 578 428 q 415 532 488 532 q 298 480 343 532 q 253 343 253 428 m 456 969 l 626 969 l 626 789 l 456 789 l 456 969 m 203 969 l 374 969 l 374 789 l 203 789 l 203 969 z "},"ọ":{"ha":831,"x_min":53,"x_max":778,"o":"m 415 -21 q 227 24 310 -21 q 99 152 144 69 q 53 343 53 235 q 99 533 53 450 q 227 661 144 615 q 415 707 310 707 q 603 661 521 707 q 732 533 686 615 q 778 343 778 450 q 732 152 778 235 q 603 24 686 69 q 415 -21 521 -21 m 253 343 q 298 206 253 258 q 415 154 343 154 q 533 206 488 154 q 578 343 578 258 q 533 480 578 428 q 415 532 488 532 q 298 480 343 532 q 253 343 253 428 m 314 -71 l 518 -71 l 518 -250 l 314 -250 l 314 -71 z "},"œ":{"ha":1297,"x_min":53,"x_max":1251,"o":"m 401 -21 q 221 24 300 -21 q 97 150 142 68 q 53 343 53 232 q 97 536 53 454 q 221 663 142 618 q 401 707 300 707 q 546 678 481 707 q 656 597 611 650 q 767 678 701 650 q 913 707 833 707 q 1161 612 1071 707 q 1251 353 1251 517 q 1247 274 1251 318 l 761 274 q 808 175 767 210 q 919 140 850 140 q 997 158 965 140 q 1040 204 1028 175 l 1240 204 q 1128 39 1208 99 q 919 -21 1047 -21 q 769 8 838 -21 q 656 90 701 36 q 546 8 611 36 q 401 -21 481 -21 m 251 343 q 292 205 251 256 q 401 154 333 154 q 511 205 469 154 q 553 343 553 256 q 511 481 553 431 q 401 532 469 532 q 292 481 333 532 q 251 343 251 431 m 1057 421 l 1057 424 q 1019 519 1057 483 q 913 554 982 554 q 804 518 844 554 q 760 421 764 482 l 1057 421 z "},"ò":{"ha":831,"x_min":53,"x_max":778,"o":"m 415 -21 q 227 24 310 -21 q 99 152 144 69 q 53 343 53 235 q 99 533 53 450 q 227 661 144 615 q 415 707 310 707 q 603 661 521 707 q 732 533 686 615 q 778 343 778 450 q 732 152 778 235 q 603 24 686 69 q 415 -21 521 -21 m 253 343 q 298 206 253 258 q 415 154 343 154 q 533 206 488 154 q 578 343 578 258 q 533 480 578 428 q 415 532 488 532 q 298 480 343 532 q 253 343 253 428 m 215 989 l 393 989 l 489 783 l 324 783 l 215 989 z "},"ő":{"ha":831,"x_min":53,"x_max":778,"o":"m 415 -21 q 227 24 310 -21 q 99 152 144 69 q 53 343 53 235 q 99 533 53 450 q 227 661 144 615 q 415 707 310 707 q 603 661 521 707 q 732 533 686 615 q 778 343 778 450 q 732 152 778 235 q 603 24 686 69 q 415 -21 521 -21 m 253 343 q 298 206 253 258 q 415 154 343 154 q 533 206 488 154 q 578 343 578 258 q 533 480 578 428 q 415 532 488 532 q 298 480 343 532 q 253 343 253 428 m 319 989 l 461 989 l 376 783 l 247 783 l 319 989 m 536 989 l 678 989 l 593 783 l 464 783 l 536 989 z "},"ō":{"ha":831,"x_min":53,"x_max":778,"o":"m 415 -21 q 227 24 310 -21 q 99 152 144 69 q 53 343 53 235 q 99 533 53 450 q 227 661 144 615 q 415 707 310 707 q 603 661 521 707 q 732 533 686 615 q 778 343 778 450 q 732 152 778 235 q 603 24 686 69 q 415 -21 521 -21 m 253 343 q 298 206 253 258 q 415 154 343 154 q 533 206 488 154 q 578 343 578 258 q 533 480 578 428 q 415 532 488 532 q 298 480 343 532 q 253 343 253 428 m 196 938 l 633 938 l 633 814 l 196 814 l 196 938 z "},"ǫ":{"ha":831,"x_min":53,"x_max":778,"o":"m 415 154 q 533 206 488 154 q 578 343 578 258 q 533 480 578 428 q 415 532 488 532 q 298 480 343 532 q 253 343 253 428 q 298 206 253 258 q 415 154 343 154 m 53 343 q 99 533 53 450 q 227 661 144 615 q 415 707 310 707 q 603 661 521 707 q 732 533 686 615 q 778 343 778 450 q 723 138 778 225 q 572 10 668 50 q 479 -110 479 -68 q 532 -151 479 -151 l 583 -151 l 583 -269 l 494 -269 q 378 -236 421 -269 q 335 -146 335 -203 q 396 -21 335 -82 q 217 30 294 -17 q 96 158 139 76 q 53 343 53 239 z "},"ø":{"ha":831,"x_min":53,"x_max":778,"o":"m 415 -21 q 225 26 308 -21 l 151 -61 l 75 11 l 143 92 q 76 203 100 139 q 53 343 53 267 q 99 533 53 450 q 227 661 144 615 q 415 707 310 707 q 615 654 531 707 l 685 738 l 761 665 l 696 586 q 778 343 778 489 q 732 152 778 235 q 603 24 686 69 q 415 -21 521 -21 m 253 343 q 272 246 253 289 l 494 511 q 415 532 461 532 q 298 480 343 532 q 253 343 253 428 m 344 169 q 415 154 378 154 q 533 206 488 154 q 578 343 578 258 q 563 429 578 390 l 344 169 z "},"ǿ":{"ha":831,"x_min":53,"x_max":778,"o":"m 415 -21 q 225 26 308 -21 l 151 -61 l 75 11 l 143 92 q 76 203 100 139 q 53 343 53 267 q 99 533 53 450 q 227 661 144 615 q 415 707 310 707 q 615 654 531 707 l 685 738 l 761 665 l 696 586 q 778 343 778 489 q 732 152 778 235 q 603 24 686 69 q 415 -21 521 -21 m 253 343 q 272 246 253 289 l 494 511 q 415 532 461 532 q 298 480 343 532 q 253 343 253 428 m 344 169 q 415 154 378 154 q 533 206 488 154 q 578 343 578 258 q 563 429 578 390 l 344 169 m 431 989 l 610 989 l 501 783 l 336 783 l 431 989 z "},"õ":{"ha":831,"x_min":53,"x_max":778,"o":"m 415 -21 q 227 24 310 -21 q 99 152 144 69 q 53 343 53 235 q 99 533 53 450 q 227 661 144 615 q 415 707 310 707 q 603 661 521 707 q 732 533 686 615 q 778 343 778 450 q 732 152 778 235 q 603 24 686 69 q 415 -21 521 -21 m 253 343 q 298 206 253 258 q 415 154 343 154 q 533 206 488 154 q 578 343 578 258 q 533 480 578 428 q 415 532 488 532 q 298 480 343 532 q 253 343 253 428 m 528 781 q 426 807 479 781 l 388 828 q 349 845 365 839 q 317 851 333 851 q 285 842 297 851 q 274 811 274 832 l 274 788 l 160 788 l 160 840 q 201 956 160 922 q 303 989 243 989 q 404 963 351 989 l 442 942 q 514 918 486 918 q 545 928 533 918 q 557 958 557 938 l 557 981 l 671 981 l 671 929 q 629 814 671 847 q 528 781 588 781 z "},"ŕ":{"ha":569,"x_min":96,"x_max":549,"o":"m 96 686 l 267 686 l 267 565 q 320 655 279 624 q 426 686 361 686 l 549 686 l 549 517 l 403 517 q 290 400 290 517 l 290 0 l 96 0 l 96 686 m 347 989 l 526 989 l 418 783 l 253 783 l 347 989 z "},"ř":{"ha":569,"x_min":96,"x_max":557,"o":"m 96 686 l 267 686 l 267 565 q 320 655 279 624 q 426 686 361 686 l 549 686 l 549 517 l 403 517 q 290 400 290 517 l 290 0 l 96 0 l 96 686 m 107 989 l 272 989 l 333 858 l 392 989 l 557 989 l 451 783 l 213 783 l 107 989 z "},"ŗ":{"ha":569,"x_min":94,"x_max":549,"o":"m 96 686 l 267 686 l 267 565 q 320 655 279 624 q 426 686 361 686 l 549 686 l 549 517 l 403 517 q 290 400 290 517 l 290 0 l 96 0 l 96 686 m 94 -203 l 163 -203 q 182 -187 182 -203 l 182 -165 l 94 -165 l 94 -47 l 292 -47 l 292 -176 q 265 -249 292 -229 q 183 -268 238 -268 l 94 -268 l 94 -203 z "},"ś":{"ha":699,"x_min":38,"x_max":653,"o":"m 349 -21 q 124 37 206 -21 q 38 204 43 94 l 238 204 q 357 133 246 133 q 431 151 403 133 q 458 200 458 169 q 376 258 458 250 l 268 269 q 116 337 172 281 q 60 481 60 393 q 138 647 60 586 q 349 707 215 707 q 561 651 483 707 q 646 486 639 596 l 454 486 q 346 553 450 553 q 274 537 300 553 q 249 492 249 521 q 336 432 249 443 l 447 419 q 598 353 543 410 q 653 211 653 297 q 571 42 653 104 q 349 -21 489 -21 m 363 989 l 542 989 l 433 783 l 268 783 l 363 989 z "},"š":{"ha":699,"x_min":38,"x_max":653,"o":"m 349 -21 q 124 37 206 -21 q 38 204 43 94 l 238 204 q 357 133 246 133 q 431 151 403 133 q 458 200 458 169 q 376 258 458 250 l 268 269 q 116 337 172 281 q 60 481 60 393 q 138 647 60 586 q 349 707 215 707 q 561 651 483 707 q 646 486 639 596 l 454 486 q 346 553 450 553 q 274 537 300 553 q 249 492 249 521 q 336 432 249 443 l 447 419 q 598 353 543 410 q 653 211 653 297 q 571 42 653 104 q 349 -21 489 -21 m 121 989 l 286 989 l 347 858 l 406 989 l 571 989 l 465 783 l 226 783 l 121 989 z "},"ş":{"ha":699,"x_min":38,"x_max":653,"o":"m 193 -175 l 301 -175 q 342 -164 326 -175 q 357 -135 357 -153 q 346 -112 357 -121 q 317 -103 335 -103 l 271 -103 l 303 -19 q 112 47 181 -10 q 38 204 43 103 l 238 204 q 357 133 246 133 q 431 151 403 133 q 458 200 458 169 q 376 258 458 250 l 268 269 q 116 337 172 281 q 60 481 60 393 q 138 647 60 586 q 349 707 215 707 q 561 651 483 707 q 646 486 639 596 l 454 486 q 346 553 450 553 q 274 537 300 553 q 249 492 249 521 q 336 432 249 443 l 447 419 q 598 353 543 410 q 653 211 653 297 q 592 60 653 119 q 422 -15 531 0 l 411 -40 q 485 -143 485 -64 q 438 -233 485 -196 q 321 -269 390 -269 l 193 -269 l 193 -175 z "},"ŝ":{"ha":699,"x_min":38,"x_max":653,"o":"m 349 -21 q 124 37 206 -21 q 38 204 43 94 l 238 204 q 357 133 246 133 q 431 151 403 133 q 458 200 458 169 q 376 258 458 250 l 268 269 q 116 337 172 281 q 60 481 60 393 q 138 647 60 586 q 349 707 215 707 q 561 651 483 707 q 646 486 639 596 l 454 486 q 346 553 450 553 q 274 537 300 553 q 249 492 249 521 q 336 432 249 443 l 447 419 q 598 353 543 410 q 653 211 653 297 q 571 42 653 104 q 349 -21 489 -21 m 226 989 l 465 989 l 571 783 l 406 783 l 346 915 l 286 783 l 121 783 l 226 989 z "},"ș":{"ha":699,"x_min":38,"x_max":653,"o":"m 349 -21 q 124 37 206 -21 q 38 204 43 94 l 238 204 q 357 133 246 133 q 431 151 403 133 q 458 200 458 169 q 376 258 458 250 l 268 269 q 116 337 172 281 q 60 481 60 393 q 138 647 60 586 q 349 707 215 707 q 561 651 483 707 q 646 486 639 596 l 454 486 q 346 553 450 553 q 274 537 300 553 q 249 492 249 521 q 336 432 249 443 l 447 419 q 598 353 543 410 q 653 211 653 297 q 571 42 653 104 q 349 -21 489 -21 m 272 -203 l 340 -203 q 360 -187 360 -203 l 360 -165 l 272 -165 l 272 -47 l 469 -47 l 469 -176 q 442 -249 469 -229 q 361 -268 415 -268 l 272 -268 l 272 -203 z "},"ŧ":{"ha":614,"x_min":8,"x_max":578,"o":"m 363 0 q 223 42 267 0 q 179 182 179 85 l 179 308 l 58 308 l 58 426 l 179 426 l 179 517 l 8 517 l 8 686 l 179 686 l 179 885 l 374 885 l 374 686 l 578 686 l 578 517 l 374 517 l 374 426 l 533 426 l 533 308 l 374 308 l 374 229 q 388 184 374 199 q 433 169 401 169 l 578 169 l 578 0 l 363 0 z "},"ť":{"ha":614,"x_min":8,"x_max":622,"o":"m 363 0 q 223 42 267 0 q 179 182 179 85 l 179 517 l 8 517 l 8 686 l 179 686 l 179 885 l 374 885 l 374 686 l 578 686 l 578 517 l 374 517 l 374 229 q 388 184 374 199 q 433 169 401 169 l 578 169 l 578 0 l 363 0 m 443 972 l 622 972 l 565 753 l 422 753 l 443 972 z "},"ţ":{"ha":614,"x_min":8,"x_max":578,"o":"m 8 686 l 179 686 l 179 885 l 374 885 l 374 686 l 578 686 l 578 517 l 374 517 l 374 229 q 388 184 374 199 q 433 169 401 169 l 578 169 l 578 0 l 413 0 l 394 -40 q 468 -143 468 -64 q 421 -233 468 -196 q 304 -269 374 -269 l 176 -269 l 176 -175 l 285 -175 q 325 -164 310 -175 q 340 -135 340 -153 q 329 -112 340 -121 q 300 -103 318 -103 l 254 -103 l 296 6 q 208 62 236 19 q 179 182 179 104 l 179 517 l 8 517 l 8 686 z "},"ț":{"ha":614,"x_min":8,"x_max":578,"o":"m 363 0 q 223 42 267 0 q 179 182 179 85 l 179 517 l 8 517 l 8 686 l 179 686 l 179 885 l 374 885 l 374 686 l 578 686 l 578 517 l 374 517 l 374 229 q 388 184 374 199 q 433 169 401 169 l 578 169 l 578 0 l 363 0 m 256 -203 l 324 -203 q 343 -187 343 -203 l 343 -165 l 256 -165 l 256 -47 l 453 -47 l 453 -176 q 426 -249 453 -229 q 344 -268 399 -268 l 256 -268 l 256 -203 z "},"þ":{"ha":863,"x_min":96,"x_max":808,"o":"m 96 972 l 290 972 l 290 647 q 467 707 363 707 q 644 661 567 707 q 765 533 722 615 q 808 343 808 450 q 765 152 808 235 q 644 24 722 69 q 467 -21 567 -21 q 290 40 363 -21 l 290 -250 l 96 -250 l 96 972 m 288 343 q 331 206 288 258 q 447 154 375 154 q 564 206 519 154 q 608 343 608 258 q 564 480 608 428 q 447 532 519 532 q 331 480 375 532 q 288 343 288 428 z "},"ú":{"ha":792,"x_min":78,"x_max":708,"o":"m 347 -21 q 150 56 222 -21 q 78 269 78 133 l 78 686 l 271 686 l 271 290 q 388 154 271 154 q 481 192 447 154 q 514 296 514 231 l 514 686 l 708 686 l 708 0 l 538 0 l 538 56 q 456 -1 506 18 q 347 -21 406 -21 m 407 989 l 586 989 l 478 783 l 313 783 l 407 989 z "},"ŭ":{"ha":792,"x_min":78,"x_max":708,"o":"m 347 -21 q 150 56 222 -21 q 78 269 78 133 l 78 686 l 271 686 l 271 290 q 388 154 271 154 q 481 192 447 154 q 514 296 514 231 l 514 686 l 708 686 l 708 0 l 538 0 l 538 56 q 456 -1 506 18 q 347 -21 406 -21 m 393 778 q 233 831 288 778 q 178 989 178 885 l 319 989 q 338 922 319 943 q 393 900 356 900 q 449 922 431 900 q 467 989 467 943 l 608 989 q 553 831 608 885 q 393 778 499 778 z "},"û":{"ha":792,"x_min":78,"x_max":708,"o":"m 347 -21 q 150 56 222 -21 q 78 269 78 133 l 78 686 l 271 686 l 271 290 q 388 154 271 154 q 481 192 447 154 q 514 296 514 231 l 514 686 l 708 686 l 708 0 l 538 0 l 538 56 q 456 -1 506 18 q 347 -21 406 -21 m 272 989 l 511 989 l 617 783 l 451 783 l 392 915 l 332 783 l 167 783 l 272 989 z "},"ü":{"ha":792,"x_min":78,"x_max":708,"o":"m 347 -21 q 150 56 222 -21 q 78 269 78 133 l 78 686 l 271 686 l 271 290 q 388 154 271 154 q 481 192 447 154 q 514 296 514 231 l 514 686 l 708 686 l 708 0 l 538 0 l 538 56 q 456 -1 506 18 q 347 -21 406 -21 m 433 969 l 604 969 l 604 789 l 433 789 l 433 969 m 181 969 l 351 969 l 351 789 l 181 789 l 181 969 z "},"ụ":{"ha":792,"x_min":78,"x_max":708,"o":"m 347 -21 q 150 56 222 -21 q 78 269 78 133 l 78 686 l 271 686 l 271 290 q 388 154 271 154 q 481 192 447 154 q 514 296 514 231 l 514 686 l 708 686 l 708 0 l 538 0 l 538 56 q 456 -1 506 18 q 347 -21 406 -21 m 313 -71 l 517 -71 l 517 -250 l 313 -250 l 313 -71 z "},"ù":{"ha":792,"x_min":78,"x_max":708,"o":"m 347 -21 q 150 56 222 -21 q 78 269 78 133 l 78 686 l 271 686 l 271 290 q 388 154 271 154 q 481 192 447 154 q 514 296 514 231 l 514 686 l 708 686 l 708 0 l 538 0 l 538 56 q 456 -1 506 18 q 347 -21 406 -21 m 193 989 l 371 989 l 467 783 l 301 783 l 193 989 z "},"ű":{"ha":792,"x_min":78,"x_max":708,"o":"m 347 -21 q 150 56 222 -21 q 78 269 78 133 l 78 686 l 271 686 l 271 290 q 388 154 271 154 q 481 192 447 154 q 514 296 514 231 l 514 686 l 708 686 l 708 0 l 538 0 l 538 56 q 456 -1 506 18 q 347 -21 406 -21 m 296 989 l 438 989 l 353 783 l 224 783 l 296 989 m 513 989 l 654 989 l 569 783 l 440 783 l 513 989 z "},"ū":{"ha":792,"x_min":78,"x_max":708,"o":"m 347 -21 q 150 56 222 -21 q 78 269 78 133 l 78 686 l 271 686 l 271 290 q 388 154 271 154 q 481 192 447 154 q 514 296 514 231 l 514 686 l 708 686 l 708 0 l 538 0 l 538 56 q 456 -1 506 18 q 347 -21 406 -21 m 174 938 l 611 938 l 611 814 l 174 814 l 174 938 z "},"ų":{"ha":792,"x_min":78,"x_max":708,"o":"m 347 -21 q 150 56 222 -21 q 78 269 78 133 l 78 686 l 271 686 l 271 290 q 388 154 271 154 q 481 192 447 154 q 514 296 514 231 l 514 686 l 708 686 l 708 0 l 661 0 q 601 -62 622 -35 q 579 -110 579 -89 q 632 -151 579 -151 l 683 -151 l 683 -269 l 594 -269 q 478 -236 521 -269 q 435 -146 435 -203 q 460 -65 435 -104 q 538 17 486 -25 l 538 56 q 456 -1 506 18 q 347 -21 406 -21 z "},"ů":{"ha":792,"x_min":78,"x_max":708,"o":"m 347 -21 q 150 56 222 -21 q 78 269 78 133 l 78 686 l 271 686 l 271 290 q 388 154 271 154 q 481 192 447 154 q 514 296 514 231 l 514 686 l 708 686 l 708 0 l 538 0 l 538 56 q 456 -1 506 18 q 347 -21 406 -21 m 392 749 q 270 795 318 749 q 222 913 222 842 q 270 1031 222 985 q 392 1078 318 1078 q 515 1031 467 1078 q 563 913 563 985 q 515 795 563 842 q 392 749 467 749 m 329 913 q 347 867 329 885 q 392 849 364 849 q 438 866 419 849 q 456 913 456 883 q 438 960 456 942 q 392 978 419 978 q 347 960 364 978 q 329 913 329 942 z "},"ũ":{"ha":792,"x_min":78,"x_max":708,"o":"m 347 -21 q 150 56 222 -21 q 78 269 78 133 l 78 686 l 271 686 l 271 290 q 388 154 271 154 q 481 192 447 154 q 514 296 514 231 l 514 686 l 708 686 l 708 0 l 538 0 l 538 56 q 456 -1 506 18 q 347 -21 406 -21 m 506 781 q 404 807 457 781 l 365 828 q 327 845 343 839 q 294 851 311 851 q 263 842 275 851 q 251 811 251 832 l 251 788 l 138 788 l 138 840 q 179 956 138 922 q 281 989 221 989 q 382 963 329 989 l 419 942 q 492 918 464 918 q 523 928 511 918 q 535 958 535 938 l 535 981 l 649 981 l 649 929 q 607 814 649 847 q 506 781 565 781 z "},"ẃ":{"ha":1131,"x_min":18,"x_max":1113,"o":"m 18 686 l 219 686 l 338 215 l 454 686 l 676 686 l 794 215 l 911 686 l 1113 686 l 913 0 l 683 0 l 565 468 l 447 0 l 218 0 l 18 686 m 581 989 l 760 989 l 651 783 l 486 783 l 581 989 z "},"ŵ":{"ha":1131,"x_min":18,"x_max":1113,"o":"m 18 686 l 219 686 l 338 215 l 454 686 l 676 686 l 794 215 l 911 686 l 1113 686 l 913 0 l 683 0 l 565 468 l 447 0 l 218 0 l 18 686 m 446 989 l 685 989 l 790 783 l 625 783 l 565 915 l 506 783 l 340 783 l 446 989 z "},"ẅ":{"ha":1131,"x_min":18,"x_max":1113,"o":"m 18 686 l 219 686 l 338 215 l 454 686 l 676 686 l 794 215 l 911 686 l 1113 686 l 913 0 l 683 0 l 565 468 l 447 0 l 218 0 l 18 686 m 607 969 l 778 969 l 778 789 l 607 789 l 607 969 m 354 969 l 525 969 l 525 789 l 354 789 l 354 969 z "},"ẁ":{"ha":1131,"x_min":18,"x_max":1113,"o":"m 18 686 l 219 686 l 338 215 l 454 686 l 676 686 l 794 215 l 911 686 l 1113 686 l 913 0 l 683 0 l 565 468 l 447 0 l 218 0 l 18 686 m 367 989 l 544 989 l 640 783 l 475 783 l 367 989 z "},"ý":{"ha":779,"x_min":11,"x_max":769,"o":"m 36 -79 l 178 -79 q 249 -35 229 -79 l 290 56 l 11 686 l 232 686 l 393 278 l 553 686 l 769 686 l 403 -140 q 340 -224 378 -197 q 231 -250 301 -250 l 36 -250 l 36 -79 m 404 989 l 583 989 l 475 783 l 310 783 l 404 989 z "},"ŷ":{"ha":779,"x_min":11,"x_max":769,"o":"m 36 -79 l 178 -79 q 249 -35 229 -79 l 290 56 l 11 686 l 232 686 l 393 278 l 553 686 l 769 686 l 403 -140 q 340 -224 378 -197 q 231 -250 301 -250 l 36 -250 l 36 -79 m 269 989 l 508 989 l 614 783 l 449 783 l 389 915 l 329 783 l 164 783 l 269 989 z "},"ÿ":{"ha":779,"x_min":11,"x_max":769,"o":"m 36 -79 l 178 -79 q 249 -35 229 -79 l 290 56 l 11 686 l 232 686 l 393 278 l 553 686 l 769 686 l 403 -140 q 340 -224 378 -197 q 231 -250 301 -250 l 36 -250 l 36 -79 m 431 969 l 601 969 l 601 789 l 431 789 l 431 969 m 178 969 l 349 969 l 349 789 l 178 789 l 178 969 z "},"ỳ":{"ha":779,"x_min":11,"x_max":769,"o":"m 36 -79 l 178 -79 q 249 -35 229 -79 l 290 56 l 11 686 l 232 686 l 393 278 l 553 686 l 769 686 l 403 -140 q 340 -224 378 -197 q 231 -250 301 -250 l 36 -250 l 36 -79 m 190 989 l 368 989 l 464 783 l 299 783 l 190 989 z "},"ȳ":{"ha":779,"x_min":11,"x_max":769,"o":"m 36 -79 l 178 -79 q 249 -35 229 -79 l 290 56 l 11 686 l 232 686 l 393 278 l 553 686 l 769 686 l 403 -140 q 340 -224 378 -197 q 231 -250 301 -250 l 36 -250 l 36 -79 m 171 938 l 608 938 l 608 814 l 171 814 l 171 938 z "},"ỹ":{"ha":779,"x_min":11,"x_max":769,"o":"m 36 -79 l 178 -79 q 249 -35 229 -79 l 290 56 l 11 686 l 232 686 l 393 278 l 553 686 l 769 686 l 403 -140 q 340 -224 378 -197 q 231 -250 301 -250 l 36 -250 l 36 -79 m 503 781 q 401 807 454 781 l 363 828 q 324 845 340 839 q 292 851 308 851 q 260 842 272 851 q 249 811 249 832 l 249 788 l 135 788 l 135 840 q 176 956 135 922 q 278 989 218 989 q 379 963 326 989 l 417 942 q 489 918 461 918 q 520 928 508 918 q 532 958 532 938 l 532 981 l 646 981 l 646 929 q 604 814 646 847 q 503 781 563 781 z "},"ź":{"ha":732,"x_min":61,"x_max":676,"o":"m 61 169 l 404 517 l 68 517 l 68 686 l 663 686 l 663 517 l 318 169 l 676 169 l 676 0 l 61 0 l 61 169 m 383 989 l 563 989 l 454 783 l 289 783 l 383 989 z "},"ž":{"ha":732,"x_min":61,"x_max":676,"o":"m 61 169 l 404 517 l 68 517 l 68 686 l 663 686 l 663 517 l 318 169 l 676 169 l 676 0 l 61 0 l 61 169 m 143 989 l 308 989 l 369 858 l 428 989 l 593 989 l 488 783 l 249 783 l 143 989 z "},"ż":{"ha":732,"x_min":61,"x_max":676,"o":"m 61 169 l 404 517 l 68 517 l 68 686 l 663 686 l 663 517 l 318 169 l 676 169 l 676 0 l 61 0 l 61 169 m 267 969 l 471 969 l 471 789 l 267 789 l 267 969 z "},"ß":{"ha":853,"x_min":10,"x_max":813,"o":"m 414 153 l 461 153 q 571 192 529 153 q 613 297 613 232 q 570 403 613 364 q 456 442 528 442 l 414 442 l 414 599 l 442 599 q 525 633 493 599 q 557 719 557 667 q 525 800 557 771 q 442 829 493 829 q 357 797 389 829 q 325 711 325 764 l 325 0 l 131 0 l 131 517 l 10 517 l 10 686 l 131 686 l 131 693 q 217 917 131 840 q 446 993 304 993 q 607 960 538 993 q 714 866 676 926 q 751 728 751 806 q 725 615 751 665 q 656 538 699 565 q 769 447 725 511 q 813 293 813 382 q 770 134 813 203 q 654 27 728 65 q 489 -11 581 -11 l 414 -11 l 414 153 z "},"ð":{"ha":836,"x_min":53,"x_max":783,"o":"m 410 -21 q 224 24 306 -21 q 98 144 143 68 q 53 317 53 221 q 95 484 53 411 q 213 598 138 557 q 382 639 288 639 q 509 616 456 639 q 592 556 563 593 q 568 685 589 632 q 506 771 547 739 l 249 668 l 249 771 l 379 818 q 304 822 344 822 l 108 822 l 108 972 l 304 972 q 565 915 463 972 l 736 994 l 736 892 l 650 853 q 783 443 783 719 q 735 188 783 292 q 601 31 686 83 q 410 -21 517 -21 m 254 308 q 299 197 254 240 q 414 154 343 154 q 528 197 483 154 q 574 308 574 240 q 529 421 574 378 q 414 464 485 464 q 299 421 343 464 q 254 308 254 378 z "},"ə":{"ha":781,"x_min":46,"x_max":728,"o":"m 379 707 q 563 661 483 707 q 685 532 642 615 q 728 339 728 449 q 685 150 728 232 q 564 24 642 68 q 386 -21 486 -21 q 137 74 228 -21 q 46 333 46 169 q 50 413 46 369 l 536 413 q 489 511 531 476 q 378 546 447 546 q 301 528 332 546 q 257 482 271 511 l 58 482 q 171 647 90 588 q 379 707 251 707 m 242 263 q 279 167 242 203 q 386 132 317 132 q 493 168 453 132 q 538 265 533 204 l 242 265 l 242 263 z "},"ª":{"ha":600,"x_min":43,"x_max":567,"o":"m 243 481 q 97 523 151 481 q 43 638 43 565 q 92 752 43 710 q 233 800 140 794 l 361 807 l 361 826 q 344 867 361 854 q 292 881 328 881 q 221 838 228 881 l 68 838 q 303 997 85 997 q 453 954 399 997 q 507 835 507 911 l 507 629 q 519 617 507 617 l 567 617 l 567 496 l 458 496 q 417 507 433 496 q 399 539 401 518 q 335 497 376 513 q 243 481 294 481 m 190 649 q 264 597 190 597 q 334 619 307 597 q 361 686 361 642 l 361 707 l 258 699 q 208 683 226 697 q 190 649 190 668 z "},"º":{"ha":653,"x_min":53,"x_max":600,"o":"m 326 482 q 184 514 246 482 q 88 605 122 546 q 53 740 53 664 q 88 876 53 817 q 184 967 122 935 q 326 999 246 999 q 468 966 406 999 q 565 875 531 933 q 600 740 600 817 q 565 606 600 664 q 468 515 531 547 q 326 482 406 482 m 211 740 q 243 655 211 688 q 326 622 275 622 q 410 655 378 622 q 442 740 442 688 q 410 826 442 793 q 326 860 378 860 q 243 826 275 860 q 211 740 211 793 z "},"`":{"ha":413,"x_min":69,"x_max":343,"o":"m 69 989 l 247 989 l 343 783 l 178 783 l 69 989 z "},"´":{"ha":413,"x_min":69,"x_max":343,"o":"m 164 989 l 343 989 l 235 783 l 69 783 l 164 989 z "},"ˆ":{"ha":589,"x_min":69,"x_max":519,"o":"m 175 989 l 414 989 l 519 783 l 354 783 l 294 915 l 235 783 l 69 783 l 175 989 z "},"˜":{"ha":650,"x_min":69,"x_max":581,"o":"m 438 781 q 336 807 389 781 l 297 828 q 259 845 275 839 q 226 851 243 851 q 195 842 207 851 q 183 811 183 832 l 183 788 l 69 788 l 69 840 q 111 956 69 922 q 213 989 153 989 q 314 963 261 989 l 351 942 q 424 918 396 918 q 455 928 443 918 q 467 958 467 938 l 467 981 l 581 981 l 581 929 q 539 814 581 847 q 438 781 497 781 z "},"ˇ":{"ha":589,"x_min":69,"x_max":519,"o":"m 69 989 l 235 989 l 296 858 l 354 989 l 519 989 l 414 783 l 175 783 l 69 989 z "},"¨":{"ha":563,"x_min":69,"x_max":493,"o":"m 322 969 l 493 969 l 493 789 l 322 789 l 322 969 m 69 969 l 240 969 l 240 789 l 69 789 l 69 969 z "},"¯":{"ha":576,"x_min":69,"x_max":507,"o":"m 69 938 l 507 938 l 507 814 l 69 814 l 69 938 z "},"˘":{"ha":569,"x_min":69,"x_max":500,"o":"m 285 778 q 124 831 179 778 q 69 989 69 885 l 211 989 q 229 922 211 943 q 285 900 247 900 q 340 922 322 900 q 358 989 358 943 l 500 989 q 445 831 500 885 q 285 778 390 778 z "},"˚":{"ha":479,"x_min":69,"x_max":410,"o":"m 239 749 q 117 795 165 749 q 69 913 69 842 q 117 1031 69 985 q 239 1078 165 1078 q 362 1031 314 1078 q 410 913 410 985 q 362 795 410 842 q 239 749 314 749 m 176 913 q 194 867 176 885 q 239 849 211 849 q 285 866 267 849 q 303 913 303 883 q 285 960 303 942 q 239 978 267 978 q 194 960 211 978 q 176 913 176 942 z "},"˝":{"ha":569,"x_min":69,"x_max":500,"o":"m 142 989 l 283 989 l 199 783 l 69 783 l 142 989 m 358 989 l 500 989 l 415 783 l 286 783 l 358 989 z "},"˙":{"ha":343,"x_min":69,"x_max":274,"o":"m 69 969 l 274 969 l 274 789 l 69 789 l 69 969 z "},"¸":{"ha":431,"x_min":69,"x_max":361,"o":"m 69 -175 l 178 -175 q 218 -164 203 -175 q 233 -135 233 -153 q 222 -112 233 -121 q 193 -103 211 -103 l 147 -103 l 200 36 l 321 36 l 288 -40 q 361 -143 361 -64 q 314 -233 361 -196 q 197 -269 267 -269 l 69 -269 l 69 -175 z "},"˛":{"ha":389,"x_min":69,"x_max":318,"o":"m 229 -269 q 113 -236 156 -269 q 69 -146 69 -203 q 110 -43 69 -93 q 236 63 151 7 l 311 13 q 214 -110 214 -68 q 267 -151 214 -151 l 318 -151 l 318 -269 l 229 -269 z "},",":{"ha":408,"x_min":92,"x_max":317,"o":"m 92 -92 l 181 -92 q 198 -88 193 -92 q 203 -76 203 -85 l 203 0 l 92 0 l 92 229 l 317 229 l 317 -79 q 285 -176 317 -144 q 196 -207 254 -207 l 92 -207 l 92 -92 z "},";":{"ha":408,"x_min":92,"x_max":317,"o":"m 92 -92 l 181 -92 q 198 -88 193 -92 q 203 -76 203 -85 l 203 0 l 92 0 l 92 229 l 317 229 l 317 -79 q 285 -176 317 -144 q 196 -207 254 -207 l 92 -207 l 92 -92 m 92 692 l 317 692 l 317 463 l 92 463 l 92 692 z "},":":{"ha":408,"x_min":92,"x_max":317,"o":"m 92 692 l 317 692 l 317 463 l 92 463 l 92 692 m 92 229 l 317 229 l 317 0 l 92 0 l 92 229 z "},".":{"ha":408,"x_min":92,"x_max":317,"o":"m 92 229 l 317 229 l 317 0 l 92 0 l 92 229 z "},"…":{"ha":1181,"x_min":92,"x_max":1090,"o":"m 92 229 l 317 229 l 317 0 l 92 0 l 92 229 m 478 229 l 703 229 l 703 0 l 478 0 l 478 229 m 865 229 l 1090 229 l 1090 0 l 865 0 l 865 229 z "},"-":{"ha":581,"x_min":67,"x_max":514,"o":"m 67 460 l 514 460 l 514 278 l 67 278 l 67 460 z "},"!":{"ha":499,"x_min":143,"x_max":354,"o":"m 150 972 l 350 972 l 350 304 l 150 304 l 150 972 m 143 197 l 354 197 l 354 0 l 143 0 l 143 197 z "},"¡":{"ha":453,"x_min":99,"x_max":310,"o":"m 303 -250 l 103 -250 l 103 418 l 303 418 l 303 -250 m 99 722 l 310 722 l 310 525 l 99 525 l 99 722 z "},"?":{"ha":758,"x_min":63,"x_max":717,"o":"m 214 197 l 424 197 l 424 0 l 214 0 l 214 197 m 63 972 l 404 972 q 633 900 549 972 q 717 703 717 828 q 667 548 717 611 q 544 461 618 485 l 478 438 q 433 407 447 426 q 418 356 418 388 l 418 304 l 225 304 l 225 388 q 265 525 225 479 q 382 594 306 571 l 438 611 q 517 704 517 635 q 488 767 517 743 q 404 790 458 790 l 63 790 l 63 972 z "},"¿":{"ha":726,"x_min":18,"x_max":672,"o":"m 521 525 l 311 525 l 311 722 l 521 722 l 521 525 m 18 19 q 67 174 18 111 q 190 261 117 238 l 257 285 q 302 315 288 296 q 317 367 317 335 l 317 418 l 510 418 l 510 335 q 469 197 510 243 q 353 128 429 151 l 297 111 q 218 18 218 88 q 247 -44 218 -21 q 331 -68 276 -68 l 672 -68 l 672 -250 l 331 -250 q 102 -178 186 -250 q 18 19 18 -106 z "},"‘":{"ha":328,"x_min":57,"x_max":265,"o":"m 265 888 l 183 888 q 167 885 172 888 q 163 874 163 882 l 163 803 l 265 803 l 265 592 l 57 592 l 57 876 q 86 965 57 936 q 169 994 115 994 l 265 994 l 265 888 z "},"’":{"ha":328,"x_min":63,"x_max":271,"o":"m 63 678 l 144 678 q 165 692 165 678 l 165 763 l 63 763 l 63 974 l 271 974 l 271 689 q 242 600 271 629 q 158 571 213 571 l 63 571 l 63 678 z "},"“":{"ha":601,"x_min":57,"x_max":538,"o":"m 538 888 l 456 888 q 440 885 444 888 q 436 874 436 882 l 436 803 l 538 803 l 538 592 l 331 592 l 331 876 q 442 994 331 994 l 538 994 l 538 888 m 57 876 q 86 965 57 936 q 169 994 115 994 l 265 994 l 265 888 l 183 888 q 167 885 172 888 q 163 874 163 882 l 163 803 l 265 803 l 265 592 l 57 592 l 57 876 z "},"”":{"ha":601,"x_min":63,"x_max":543,"o":"m 336 678 l 418 678 q 439 692 439 678 l 439 763 l 336 763 l 336 974 l 543 974 l 543 689 q 432 571 543 571 l 336 571 l 336 678 m 63 678 l 144 678 q 165 692 165 678 l 165 763 l 63 763 l 63 974 l 271 974 l 271 689 q 242 600 271 629 q 158 571 213 571 l 63 571 l 63 678 z "},"‚":{"ha":328,"x_min":63,"x_max":271,"o":"m 63 -85 l 144 -85 q 165 -71 165 -85 l 165 0 l 63 0 l 63 213 l 271 213 l 271 -74 q 242 -162 271 -133 q 158 -192 213 -192 l 63 -192 l 63 -85 z "},"„":{"ha":601,"x_min":63,"x_max":543,"o":"m 63 -85 l 144 -85 q 165 -71 165 -85 l 165 0 l 63 0 l 63 213 l 271 213 l 271 -74 q 242 -162 271 -133 q 158 -192 213 -192 l 63 -192 l 63 -85 m 336 -85 l 418 -85 q 439 -71 439 -85 l 439 0 l 336 0 l 336 213 l 543 213 l 543 -74 q 432 -192 543 -192 l 336 -192 l 336 -85 z "},"‹":{"ha":339,"x_min":21,"x_max":318,"o":"m 21 279 l 21 450 l 132 624 l 318 624 l 167 365 l 318 111 l 132 111 l 21 279 z "},"›":{"ha":339,"x_min":21,"x_max":318,"o":"m 318 456 l 318 285 l 207 111 l 21 111 l 172 369 l 21 624 l 207 624 l 318 456 z "},"·":{"ha":408,"x_min":92,"x_max":317,"o":"m 92 468 l 317 468 l 317 239 l 92 239 l 92 468 z "},"/":{"ha":696,"x_min":10,"x_max":688,"o":"m 489 1000 l 688 1000 l 207 -153 l 10 -153 l 489 1000 z "},"|":{"ha":371,"x_min":94,"x_max":276,"o":"m 94 1000 l 276 1000 l 276 -153 l 94 -153 l 94 1000 z "},"–":{"ha":694,"x_min":0,"x_max":694,"o":"m 0 457 l 694 457 l 694 281 l 0 281 l 0 457 z "},"—":{"ha":1389,"x_min":0,"x_max":1389,"o":"m 0 457 l 1389 457 l 1389 281 l 0 281 l 0 457 z "},"•":{"ha":529,"x_min":51,"x_max":478,"o":"m 264 161 q 156 189 204 161 q 79 265 107 217 q 51 374 51 314 q 79 483 51 435 q 156 560 107 532 q 264 588 204 588 q 417 527 357 588 q 478 374 478 467 q 450 265 478 314 q 374 189 422 217 q 264 161 325 161 z "},"(":{"ha":629,"x_min":118,"x_max":586,"o":"m 572 -236 q 339 -158 442 -236 q 177 75 236 -79 q 118 450 118 229 q 177 825 118 671 q 339 1058 236 979 q 572 1136 442 1136 l 586 1136 l 586 972 l 572 972 q 436 911 497 972 q 338 732 375 850 q 301 450 301 614 q 338 168 301 286 q 436 -11 375 50 q 572 -72 497 -72 l 586 -72 l 586 -236 l 572 -236 z "},")":{"ha":629,"x_min":43,"x_max":511,"o":"m 57 1136 q 290 1058 188 1136 q 452 825 393 979 q 511 450 511 671 q 452 75 511 229 q 290 -158 393 -79 q 57 -236 188 -236 l 43 -236 l 43 -72 l 57 -72 q 193 -11 132 -72 q 291 168 254 50 q 328 450 328 286 q 291 732 328 614 q 193 911 254 850 q 57 972 132 972 l 43 972 l 43 1136 l 57 1136 z "},"[":{"ha":563,"x_min":135,"x_max":535,"o":"m 135 1136 l 535 1136 l 535 972 l 306 972 l 306 -72 l 535 -72 l 535 -236 l 135 -236 l 135 1136 z "},"]":{"ha":563,"x_min":28,"x_max":428,"o":"m 428 -236 l 28 -236 l 28 -72 l 257 -72 l 257 972 l 28 972 l 28 1136 l 428 1136 l 428 -236 z "},"{":{"ha":568,"x_min":58,"x_max":539,"o":"m 417 -236 q 256 -177 308 -236 q 204 -31 204 -118 l 204 307 q 136 371 204 371 l 58 371 l 58 529 l 136 529 q 204 594 204 529 l 204 929 q 256 1077 204 1018 q 417 1136 308 1136 l 539 1136 l 539 983 l 417 983 q 383 969 394 983 q 371 929 371 954 l 371 599 q 276 451 371 488 q 371 301 371 408 l 371 -31 q 383 -69 371 -56 q 417 -83 394 -83 l 539 -83 l 539 -236 l 417 -236 z "},"}":{"ha":568,"x_min":29,"x_max":510,"o":"m 151 1136 q 312 1077 260 1136 q 364 931 364 1018 l 364 593 q 432 529 364 529 l 510 529 l 510 371 l 432 371 q 364 306 364 371 l 364 -29 q 312 -177 364 -118 q 151 -236 260 -236 l 29 -236 l 29 -83 l 151 -83 q 185 -69 174 -83 q 197 -29 197 -54 l 197 301 q 292 449 197 413 q 197 599 197 492 l 197 931 q 185 969 197 956 q 151 983 174 983 l 29 983 l 29 1136 l 151 1136 z "},"­":{"ha":581,"x_min":67,"x_max":514,"o":"m 67 460 l 514 460 l 514 278 l 67 278 l 67 460 z "},"«":{"ha":631,"x_min":21,"x_max":610,"o":"m 21 279 l 21 450 l 132 624 l 318 624 l 167 365 l 318 111 l 132 111 l 21 279 m 313 279 l 313 450 l 424 624 l 610 624 l 458 365 l 610 111 l 424 111 l 313 279 z "},"»":{"ha":632,"x_min":21,"x_max":611,"o":"m 611 456 l 611 285 l 500 111 l 314 111 l 465 369 l 314 624 l 500 624 l 611 456 m 318 456 l 318 285 l 207 111 l 21 111 l 172 369 l 21 624 l 207 624 l 318 456 z "},"*":{"ha":690,"x_min":58,"x_max":633,"o":"m 113 531 l 249 667 l 58 696 l 113 869 l 285 781 l 254 972 l 436 972 l 404 782 l 579 869 l 633 696 l 442 668 l 579 531 l 435 424 l 347 597 l 257 425 l 113 531 z "},"~":{"ha":889,"x_min":101,"x_max":786,"o":"m 621 296 q 542 306 579 296 q 457 333 506 315 q 359 364 397 354 q 272 374 321 374 q 101 306 174 374 l 101 472 q 272 531 178 531 q 380 519 333 531 q 489 485 426 507 q 565 460 538 468 q 621 453 592 453 q 786 518 713 453 l 786 353 q 621 296 717 296 z "},"¦":{"ha":414,"x_min":115,"x_max":299,"o":"m 115 1000 l 299 1000 l 299 493 l 115 493 l 115 1000 m 115 354 l 299 354 l 299 -153 l 115 -153 l 115 354 z "},"\\":{"ha":696,"x_min":10,"x_max":688,"o":"m 10 1000 l 207 1000 l 688 -153 l 489 -153 l 10 1000 z "},"_":{"ha":865,"x_min":7,"x_max":858,"o":"m 7 0 l 858 0 l 858 -160 l 7 -160 l 7 0 z "},"'":{"ha":472,"x_min":135,"x_max":338,"o":"m 135 972 l 338 972 l 318 568 l 154 568 l 135 972 z "},"\"":{"ha":779,"x_min":135,"x_max":646,"o":"m 443 972 l 646 972 l 626 568 l 463 568 l 443 972 m 135 972 l 338 972 l 318 568 l 154 568 l 135 972 z "},"ʼ":{"ha":328,"x_min":63,"x_max":271,"o":"m 63 678 l 144 678 q 165 692 165 678 l 165 763 l 63 763 l 63 974 l 271 974 l 271 689 q 242 600 271 629 q 158 571 213 571 l 63 571 l 63 678 z "},"&":{"ha":1029,"x_min":28,"x_max":994,"o":"m 390 -21 q 207 16 290 -21 q 76 120 124 53 q 28 274 28 188 q 256 554 28 483 q 198 649 215 604 q 181 747 181 693 q 217 874 181 818 q 320 962 254 931 q 472 993 386 993 q 624 963 558 993 q 726 878 690 932 q 763 754 763 824 q 713 594 763 664 q 560 488 664 525 l 681 365 l 760 508 q 790 546 774 535 q 833 557 807 557 l 994 557 l 994 392 l 906 392 q 869 372 879 392 l 799 246 l 799 244 l 860 182 q 880 167 871 171 q 907 164 889 164 l 994 164 l 994 0 l 879 0 q 818 8 842 0 q 774 36 794 17 l 701 108 q 390 -21 582 -21 m 225 281 q 274 183 225 221 q 399 144 322 144 q 503 164 458 144 q 586 222 549 183 l 371 436 q 225 281 225 396 m 367 743 q 383 681 367 710 q 443 607 399 653 q 579 747 579 647 q 551 815 579 789 q 478 842 524 842 q 397 814 428 842 q 367 743 367 786 z "},"@":{"ha":1328,"x_min":68,"x_max":1260,"o":"m 693 -143 q 360 -78 501 -143 q 144 108 219 -12 q 68 389 68 228 q 152 701 68 564 q 385 915 236 839 q 717 992 533 992 q 997 935 874 992 q 1190 770 1121 878 q 1260 517 1260 663 q 1222 313 1260 406 q 1119 167 1185 221 q 972 114 1053 114 q 869 140 910 114 q 819 204 828 165 q 736 138 789 164 q 618 111 683 111 q 426 185 499 111 q 354 376 354 258 q 399 533 354 461 q 525 649 443 606 q 714 693 607 693 l 990 693 l 932 350 q 928 311 928 329 q 988 244 928 244 q 1076 330 1043 244 q 1108 515 1108 415 q 1003 766 1108 682 q 719 850 897 850 q 454 790 565 850 q 285 624 343 729 q 228 390 228 519 q 354 101 228 204 q 701 -1 481 -1 l 1038 -1 l 1038 -143 l 693 -143 m 518 369 q 549 282 518 314 q 636 250 581 250 q 747 301 706 250 q 801 425 788 353 l 825 554 l 694 554 q 601 528 642 554 q 540 459 561 501 q 518 369 518 417 z "},"©":{"ha":1468,"x_min":68,"x_max":1400,"o":"m 733 158 q 514 244 597 158 q 431 493 431 329 q 513 744 431 658 q 738 829 596 829 q 928 771 853 829 q 1021 597 1004 713 l 872 597 q 826 670 861 646 q 740 694 790 694 q 583 496 583 694 q 626 342 583 392 q 740 293 668 293 q 826 321 792 293 q 869 400 860 349 l 1019 400 q 926 222 1001 285 q 733 158 851 158 m 68 486 q 155 827 68 675 q 394 1066 242 979 q 735 1153 546 1153 q 1075 1066 924 1153 q 1313 827 1226 979 q 1400 486 1400 675 q 1313 145 1400 297 q 1075 -94 1226 -7 q 735 -181 924 -181 q 394 -94 546 -181 q 155 145 242 -7 q 68 486 68 297 m 214 486 q 282 214 214 336 q 469 22 350 92 q 735 -47 588 -47 q 999 22 881 -47 q 1186 214 1118 92 q 1254 486 1254 336 q 1186 758 1254 636 q 999 950 1118 881 q 735 1019 881 1019 q 469 950 588 1019 q 282 758 350 881 q 214 486 214 636 z "},"®":{"ha":856,"x_min":58,"x_max":797,"o":"m 283 883 l 465 883 q 556 856 522 883 q 590 782 590 828 q 565 706 590 738 q 492 667 539 674 l 601 513 l 500 513 l 401 650 l 371 650 l 371 513 l 283 513 l 283 883 m 58 699 q 106 882 58 800 q 238 1010 154 964 q 426 1057 322 1057 q 617 1010 532 1057 q 749 882 701 964 q 797 699 797 800 q 749 515 797 597 q 617 387 701 433 q 426 340 532 340 q 238 387 322 340 q 106 515 154 433 q 58 699 58 597 m 146 699 q 183 556 146 619 q 284 456 219 493 q 426 419 349 419 q 570 456 506 419 q 672 556 635 492 q 708 699 708 619 q 672 842 708 778 q 570 942 635 906 q 426 978 506 978 q 284 941 349 978 q 183 841 219 904 q 146 699 146 778 m 456 729 q 488 739 476 729 q 500 767 500 749 q 456 803 500 803 l 371 803 l 371 729 l 456 729 z "},"™":{"ha":1140,"x_min":29,"x_max":1067,"o":"m 499 972 l 664 972 l 783 689 l 903 972 l 1067 972 l 1067 492 l 946 492 l 946 793 l 826 492 l 739 492 l 619 793 l 619 492 l 499 492 l 499 972 m 29 972 l 456 972 l 456 857 l 304 857 l 304 492 l 179 492 l 179 857 l 29 857 l 29 972 z "},"¶":{"ha":876,"x_min":53,"x_max":761,"o":"m 356 389 q 200 426 269 389 q 92 530 131 464 q 53 675 53 596 q 152 894 53 817 q 421 972 251 972 l 761 972 l 761 -250 l 625 -250 l 625 849 l 493 849 l 493 -250 l 356 -250 l 356 389 z "},"§":{"ha":768,"x_min":58,"x_max":710,"o":"m 103 -86 l 410 -86 q 465 -67 444 -86 q 486 -21 486 -49 q 465 28 486 8 q 378 74 443 49 l 251 122 q 109 221 160 157 q 58 358 58 285 q 196 563 58 499 q 121 639 149 592 q 93 743 93 686 q 128 862 93 810 q 224 943 163 914 q 367 972 286 972 l 651 972 l 651 808 l 360 808 q 303 790 325 808 q 282 744 282 772 q 305 699 282 719 q 378 660 328 679 l 518 606 q 661 512 613 568 q 710 382 710 456 q 676 258 710 317 q 579 168 642 200 q 650 92 625 139 q 675 -14 675 46 q 640 -135 675 -82 q 544 -219 606 -189 q 401 -250 482 -250 l 103 -250 l 103 -86 m 247 372 q 270 309 247 335 q 340 265 293 283 l 408 239 q 492 281 463 250 q 521 356 521 311 q 501 419 521 394 q 435 463 482 443 l 350 496 q 247 372 247 463 z "},"^":{"ha":810,"x_min":46,"x_max":763,"o":"m 313 972 l 496 972 l 763 486 l 567 486 l 407 811 l 242 486 l 46 486 l 313 972 z "},"†":{"ha":832,"x_min":57,"x_max":774,"o":"m 325 556 l 57 556 l 57 725 l 325 725 l 325 997 l 507 997 l 507 725 l 774 725 l 774 556 l 507 556 l 507 -153 l 325 -153 l 325 556 z "},"‡":{"ha":832,"x_min":57,"x_max":774,"o":"m 325 124 l 57 124 l 57 293 l 325 293 l 325 556 l 57 556 l 57 725 l 325 725 l 325 997 l 507 997 l 507 725 l 774 725 l 774 556 l 507 556 l 507 293 l 774 293 l 774 124 l 507 124 l 507 -153 l 325 -153 l 325 124 z "},"∅":{"ha":1468,"x_min":68,"x_max":1400,"o":"m 735 -181 q 497 -140 608 -181 q 297 -26 385 -100 l 193 -132 l 122 -53 l 222 47 q 108 247 149 135 q 68 486 68 360 q 155 827 68 675 q 394 1066 242 979 q 735 1153 546 1153 q 972 1113 861 1153 q 1171 1000 1083 1074 l 1275 1104 l 1347 1028 l 1244 925 q 1360 726 1319 838 q 1400 486 1400 614 q 1313 145 1400 297 q 1075 -94 1226 -7 q 735 -181 924 -181 m 214 486 q 242 305 214 390 q 324 150 271 219 l 1071 900 q 917 988 1003 957 q 735 1019 831 1019 q 469 950 588 1019 q 282 758 350 881 q 214 486 214 636 m 397 74 q 551 -16 465 15 q 735 -47 638 -47 q 999 22 881 -47 q 1186 214 1118 92 q 1254 486 1254 336 q 1226 669 1254 583 q 1143 824 1197 756 l 397 74 z "},"":{"ha":1226,"x_min":115,"x_max":1110,"o":"m 693 -17 q 643 -10 678 -17 q 613 -4 621 -4 q 569 -10 597 -4 q 551 -12 561 -11 q 528 -14 540 -14 q 318 68 413 -14 q 169 282 224 150 q 115 557 115 414 q 150 765 115 678 q 246 898 185 853 q 385 943 307 943 q 472 927 439 943 q 543 879 504 911 q 578 851 564 860 q 613 842 593 842 q 645 851 631 842 q 681 878 660 860 q 753 927 718 910 q 849 944 789 944 q 979 899 919 944 q 1074 766 1039 854 q 1110 557 1110 678 q 1053 278 1110 411 q 899 65 996 146 q 693 -17 803 -17 m 175 556 q 223 307 175 426 q 356 114 271 188 q 542 40 440 40 q 576 44 558 40 q 613 49 610 49 q 642 43 621 49 q 679 38 663 38 q 863 111 778 38 q 999 305 949 185 q 1050 556 1050 425 q 1022 731 1050 656 q 949 844 994 806 q 849 883 903 883 q 753 865 789 883 q 681 813 717 846 q 645 783 660 793 q 613 774 631 774 q 578 783 593 774 q 540 814 563 793 q 470 864 503 846 q 385 882 438 882 q 277 843 325 882 q 202 730 229 804 q 175 556 175 656 m 253 324 q 303 315 278 315 q 385 340 347 315 q 438 404 422 364 l 464 390 q 408 311 447 342 q 473 213 414 253 q 613 172 532 172 q 750 211 692 172 q 815 307 808 250 q 756 390 774 340 l 782 404 q 835 340 797 364 q 917 315 872 315 q 967 324 942 315 l 967 285 q 913 275 942 275 q 854 286 885 275 q 769 175 838 219 q 613 131 701 131 q 454 176 522 131 q 371 288 386 221 q 307 275 340 275 q 253 285 278 275 l 253 324 m 315 644 l 586 693 l 586 654 l 540 646 q 546 617 546 629 q 522 560 546 583 q 467 536 499 536 q 405 559 432 536 q 374 615 378 582 l 315 606 l 315 644 m 522 451 q 533 477 522 467 q 560 488 544 488 q 585 477 575 488 q 596 451 596 467 q 585 425 596 436 q 560 414 575 414 q 533 425 544 414 q 522 451 522 436 m 583 933 q 582 960 582 942 q 599 1075 582 1014 q 643 1174 615 1136 q 739 1240 671 1211 q 871 1274 807 1269 q 872 1240 872 1263 q 855 1124 872 1183 q 813 1032 838 1064 q 712 957 776 986 q 583 933 647 928 m 632 451 q 643 477 632 467 q 669 488 654 488 q 695 477 685 488 q 706 451 706 467 q 695 425 706 436 q 669 414 685 414 q 643 425 654 414 q 632 451 632 436 m 657 693 l 928 644 l 928 606 l 869 615 q 838 559 865 582 q 776 536 811 536 q 721 560 744 536 q 697 617 697 583 q 703 646 697 629 l 657 654 l 657 693 z "},"ℓ":{"ha":613,"x_min":33,"x_max":564,"o":"m 279 -4 q 160 35 199 -4 q 122 167 122 75 l 122 364 l 33 364 l 33 517 l 122 517 l 122 768 q 185 938 122 883 q 342 993 247 993 q 506 929 449 993 q 564 758 564 865 q 530 599 564 676 q 433 465 496 522 q 288 382 371 407 l 288 199 q 299 162 288 175 q 338 149 310 149 l 501 149 l 501 -4 l 279 -4 m 288 547 q 365 632 338 578 q 393 753 393 686 q 380 819 393 799 q 339 840 367 840 q 301 822 314 840 q 288 767 288 803 l 288 547 z "},"$":{"ha":851,"x_min":50,"x_max":803,"o":"m 375 189 l 375 392 l 365 392 q 182 435 253 392 q 81 544 111 478 q 50 682 50 610 q 93 835 50 769 q 210 935 136 900 q 375 972 283 971 l 375 1063 l 469 1063 l 469 972 l 739 972 l 739 783 l 469 783 l 469 594 l 490 594 q 733 505 664 594 q 803 299 803 415 q 711 81 803 158 q 469 0 619 3 l 469 -104 l 375 -104 l 375 0 l 71 0 l 71 189 l 375 189 m 256 692 q 285 622 256 649 q 368 594 314 594 l 375 594 l 375 783 l 371 783 q 287 758 318 783 q 256 692 256 732 m 469 189 q 563 218 531 189 q 594 294 594 247 q 566 364 594 336 q 472 392 538 392 l 469 392 l 469 189 z "},"¢":{"ha":650,"x_min":53,"x_max":599,"o":"m 369 3 q 135 108 218 15 q 53 340 53 200 q 136 574 53 482 q 369 683 219 667 l 369 788 l 465 788 l 465 686 l 596 686 l 596 510 l 465 510 l 465 176 l 599 176 l 599 0 l 465 0 l 465 -104 l 369 -104 l 369 3 m 253 342 q 283 238 253 279 q 369 183 314 197 l 369 503 q 283 447 314 489 q 253 342 253 406 z "},"£":{"ha":814,"x_min":53,"x_max":778,"o":"m 53 169 q 184 235 132 182 q 246 369 236 288 l 94 369 l 94 528 l 214 528 q 194 564 211 533 q 152 652 167 613 q 138 747 138 692 q 208 910 138 849 q 406 972 279 972 l 722 972 l 722 803 l 453 803 q 376 782 401 803 q 350 721 350 761 q 358 667 350 693 q 383 606 367 642 q 415 528 403 567 l 639 528 l 639 369 l 432 369 q 406 256 426 308 q 353 169 385 203 l 778 169 l 778 0 l 53 0 l 53 169 z "},"¥":{"ha":879,"x_min":24,"x_max":857,"o":"m 343 150 l 119 150 l 119 274 l 343 274 l 343 343 l 119 343 l 119 467 l 296 467 l 24 972 l 247 972 l 440 599 l 632 972 l 857 972 l 585 467 l 765 467 l 765 343 l 538 343 l 538 274 l 765 274 l 765 150 l 538 150 l 538 0 l 343 0 l 343 150 z "},"€":{"ha":858,"x_min":26,"x_max":810,"o":"m 614 0 q 308 86 436 0 q 129 319 179 172 l 26 319 l 26 443 l 104 443 q 103 488 103 457 q 104 522 103 511 l 26 522 l 26 646 l 126 646 q 300 884 172 796 q 607 972 428 972 l 803 972 l 803 790 l 601 790 q 444 753 513 790 q 340 646 376 715 l 657 646 l 657 522 l 304 522 q 303 488 303 511 q 306 443 303 471 l 594 443 l 594 319 l 350 319 q 458 219 390 256 q 608 182 525 182 l 810 182 l 810 0 l 614 0 z "},"¤":{"ha":806,"x_min":39,"x_max":764,"o":"m 401 40 q 253 78 324 40 l 154 -21 l 39 94 l 138 193 q 99 343 99 263 q 138 493 99 424 l 39 592 l 154 708 l 254 608 q 401 646 322 646 q 550 608 479 646 l 649 708 l 764 592 l 665 493 q 704 343 704 424 q 665 193 704 263 l 764 94 l 649 -21 l 550 78 q 401 40 479 40 m 231 343 q 280 214 231 264 q 401 164 329 164 q 523 214 474 164 q 572 343 572 264 q 523 472 572 422 q 401 522 474 522 q 280 472 329 522 q 231 343 231 422 z "},"ﬁ":{"ha":1000,"x_min":10,"x_max":908,"o":"z "},"ﬂ":{"ha":1051,"x_min":10,"x_max":1022,"o":"z "},"⁄":{"ha":268,"x_min":-337,"x_max":606,"o":"m 450 972 l 606 972 l -182 0 l -337 0 l 450 972 z "},"¼":{"ha":1242,"x_min":40,"x_max":1218,"o":"m 40 538 l 185 538 l 185 839 l 86 839 l 86 972 l 324 972 l 324 538 l 456 538 l 456 408 l 40 408 l 40 538 m 957 972 l 1113 972 l 325 0 l 169 0 l 957 972 z "},"½":{"ha":1321,"x_min":40,"x_max":1282,"o":"m 40 538 l 185 538 l 185 839 l 86 839 l 86 972 l 324 972 l 324 538 l 456 538 l 456 408 l 40 408 l 40 538 m 957 972 l 1113 972 l 325 0 l 169 0 l 957 972 z "},"¾":{"ha":1213,"x_min":33,"x_max":1189,"o":"m 42 538 l 246 538 q 316 551 292 538 q 340 589 340 565 q 316 625 340 613 q 246 638 292 638 l 146 638 l 146 749 l 271 843 l 33 843 l 33 972 l 457 972 l 457 843 l 328 744 q 440 694 399 736 q 481 589 481 651 q 415 458 481 508 q 246 408 349 408 l 42 408 l 42 538 m 928 972 l 1083 972 l 296 0 l 140 0 l 928 972 z "},"⅓":{"ha":1333,"x_min":40,"x_max":1299,"o":"m 40 538 l 185 538 l 185 839 l 86 839 l 86 972 l 324 972 l 324 538 l 456 538 l 456 408 l 40 408 l 40 538 m 957 972 l 1113 972 l 325 0 l 169 0 l 957 972 z "},"⅔":{"ha":1369,"x_min":40,"x_max":1331,"o":"m 40 538 q 80 656 40 614 q 190 715 119 697 l 278 738 q 333 759 317 747 q 350 792 350 771 q 330 829 350 815 q 275 843 310 843 l 68 843 l 68 972 l 275 972 q 432 924 372 972 q 492 793 492 876 q 449 690 492 733 q 344 629 407 646 l 232 597 q 194 581 204 590 q 183 558 183 572 l 183 538 l 483 538 l 483 408 l 40 408 l 40 538 m 989 972 l 1144 972 l 357 0 l 201 0 l 989 972 z "},"⅛":{"ha":1322,"x_min":40,"x_max":1279,"o":"m 40 538 l 185 538 l 185 839 l 86 839 l 86 972 l 324 972 l 324 538 l 456 538 l 456 408 l 40 408 l 40 538 m 957 972 l 1113 972 l 325 0 l 169 0 l 957 972 z "},"⅜":{"ha":1293,"x_min":33,"x_max":1250,"o":"m 42 538 l 246 538 q 316 551 292 538 q 340 589 340 565 q 316 625 340 613 q 246 638 292 638 l 146 638 l 146 749 l 271 843 l 33 843 l 33 972 l 457 972 l 457 843 l 328 744 q 440 694 399 736 q 481 589 481 651 q 415 458 481 508 q 246 408 349 408 l 42 408 l 42 538 m 928 972 l 1083 972 l 296 0 l 140 0 l 928 972 z "},"⅝":{"ha":1290,"x_min":50,"x_max":1246,"o":"m 50 538 l 247 538 q 309 553 286 538 q 332 593 332 568 q 310 634 332 618 q 249 650 289 650 l 65 650 l 65 972 l 450 972 l 450 843 l 201 843 l 201 775 l 268 775 q 416 725 358 775 q 474 597 474 675 q 412 461 474 514 q 247 408 350 408 l 50 408 l 50 538 m 924 972 l 1079 972 l 292 0 l 136 0 l 924 972 z "},"⅞":{"ha":1219,"x_min":53,"x_max":1176,"o":"m 165 506 q 188 687 165 621 q 274 807 211 753 l 315 843 l 53 843 l 53 972 l 506 972 l 506 843 l 394 753 q 328 665 347 715 q 308 515 308 615 l 308 408 l 165 408 l 165 506 m 854 972 l 1010 972 l 222 0 l 67 0 l 854 972 z "},"%":{"ha":1078,"x_min":35,"x_max":1043,"o":"m 851 972 l 1018 972 l 226 0 l 60 0 l 851 972 m 35 760 q 65 878 35 825 q 149 963 96 932 q 268 993 203 993 q 387 963 333 993 q 472 878 440 932 q 503 760 503 825 q 472 641 503 694 q 388 557 442 588 q 268 526 333 526 q 149 557 203 526 q 65 641 96 588 q 35 760 35 694 m 169 760 q 197 685 169 714 q 268 656 225 656 q 340 685 313 656 q 368 760 368 714 q 340 835 368 806 q 268 864 313 864 q 197 835 225 864 q 169 760 169 806 m 575 213 q 606 331 575 278 q 691 415 638 385 q 810 446 744 446 q 928 415 875 446 q 1013 331 982 385 q 1043 213 1043 278 q 1013 94 1043 147 q 928 10 982 40 q 810 -21 875 -21 q 690 10 744 -21 q 606 94 636 40 q 575 213 575 147 m 710 213 q 738 138 710 167 q 810 108 765 108 q 881 138 853 108 q 908 213 908 167 q 881 288 908 258 q 810 317 853 317 q 738 288 765 317 q 710 213 710 258 z "},"‰":{"ha":1407,"x_min":36,"x_max":1368,"o":"m 843 972 l 1015 972 l 229 0 l 56 0 l 843 972 m 36 760 q 67 878 36 825 q 151 963 97 932 q 269 993 204 993 q 388 963 335 993 q 473 878 442 932 q 504 760 504 825 q 474 641 504 694 q 389 557 443 588 q 269 526 335 526 q 151 557 204 526 q 67 641 97 588 q 36 760 36 694 m 171 760 q 199 685 171 714 q 269 656 226 656 q 342 685 314 656 q 369 760 369 714 q 342 835 369 806 q 269 864 314 864 q 199 835 226 864 q 171 760 171 806 m 568 213 q 599 331 568 278 q 683 415 629 385 q 801 446 736 446 q 893 428 850 446 q 968 379 936 411 q 1043 428 1000 411 q 1135 446 1086 446 q 1253 415 1200 446 q 1338 331 1307 385 q 1368 213 1368 278 q 1338 94 1368 147 q 1253 10 1307 40 q 1135 -21 1200 -21 q 1043 -3 1086 -21 q 968 46 1000 14 q 893 -3 936 14 q 801 -21 850 -21 q 683 10 736 -21 q 599 94 629 40 q 568 213 568 147 m 701 213 q 729 138 701 167 q 801 108 757 108 q 873 138 844 108 q 901 213 901 167 q 873 288 901 258 q 801 317 844 317 q 729 288 757 317 q 701 213 701 258 m 1035 213 q 1063 138 1035 167 q 1135 108 1090 108 q 1207 138 1179 108 q 1235 213 1235 167 q 1207 288 1235 258 q 1135 317 1179 317 q 1063 288 1090 317 q 1035 213 1035 258 z "},"#":{"ha":892,"x_min":39,"x_max":853,"o":"m 474 247 l 318 247 l 265 0 l 118 0 l 171 247 l 39 247 l 39 389 l 200 389 l 240 578 l 101 578 l 101 725 l 271 725 l 324 972 l 471 972 l 418 725 l 574 725 l 626 972 l 774 972 l 721 725 l 853 725 l 853 578 l 690 578 l 650 389 l 790 389 l 790 247 l 621 247 l 568 0 l 421 0 l 474 247 m 503 389 l 543 578 l 388 578 l 347 389 l 503 389 z "},"№":{"ha":1538,"x_min":115,"x_max":1421,"o":"m 115 972 l 336 972 l 613 339 l 613 972 l 1049 972 l 1049 790 l 796 790 l 796 0 l 575 0 l 299 633 l 299 0 l 115 0 l 115 972 m 906 482 q 939 610 906 554 q 1031 698 972 667 q 1164 729 1090 729 q 1296 698 1238 729 q 1388 610 1354 667 q 1421 482 1421 554 q 1388 353 1421 410 q 1296 265 1354 296 q 1164 233 1238 233 q 1031 265 1090 233 q 939 353 972 296 q 906 482 906 410 m 919 182 l 1407 182 l 1407 0 l 919 0 l 919 182 m 1074 482 q 1099 415 1074 440 q 1164 389 1124 389 q 1229 415 1204 389 q 1254 482 1254 440 q 1229 549 1254 524 q 1164 574 1204 574 q 1099 549 1124 574 q 1074 482 1074 524 z "},"+":{"ha":889,"x_min":89,"x_max":800,"o":"m 89 479 l 358 479 l 358 750 l 517 750 l 517 479 l 800 479 l 800 326 l 517 326 l 517 54 l 358 54 l 358 326 l 89 326 l 89 479 z "},"−":{"ha":889,"x_min":101,"x_max":786,"o":"m 101 479 l 786 479 l 786 326 l 101 326 l 101 479 z "},"±":{"ha":889,"x_min":114,"x_max":774,"o":"m 114 590 l 357 590 l 357 750 l 515 750 l 515 590 l 774 590 l 774 447 l 515 447 l 515 286 l 357 286 l 357 447 l 114 447 l 114 590 m 114 199 l 774 199 l 774 56 l 114 56 l 114 199 z "},"×":{"ha":889,"x_min":110,"x_max":779,"o":"m 444 296 l 218 69 l 110 178 l 335 404 l 110 629 l 218 738 l 443 513 l 668 738 l 778 629 l 553 404 l 779 176 l 671 68 l 444 296 z "},"÷":{"ha":889,"x_min":101,"x_max":786,"o":"m 101 479 l 786 479 l 786 326 l 101 326 l 101 479 m 357 233 l 517 233 l 517 54 l 357 54 l 357 233 m 357 751 l 517 751 l 517 572 l 357 572 l 357 751 z "},"=":{"ha":889,"x_min":103,"x_max":788,"o":"m 103 632 l 788 632 l 788 479 l 103 479 l 103 632 m 103 326 l 788 326 l 788 174 l 103 174 l 103 326 z "},"<":{"ha":889,"x_min":124,"x_max":765,"o":"m 124 326 l 124 481 l 765 729 l 765 568 l 318 403 l 765 238 l 765 76 l 124 326 z "},">":{"ha":889,"x_min":124,"x_max":765,"o":"m 765 479 l 765 325 l 124 76 l 124 238 l 571 403 l 124 568 l 124 729 l 765 479 z "},"°":{"ha":597,"x_min":53,"x_max":546,"o":"m 299 508 q 120 575 188 508 q 53 750 53 642 q 121 925 53 858 q 299 992 189 992 q 478 925 410 992 q 546 750 546 858 q 478 575 546 642 q 299 508 410 508 m 197 750 q 226 673 197 703 q 299 643 254 643 q 372 673 343 643 q 400 750 400 703 q 372 827 400 797 q 299 857 343 857 q 226 827 254 857 q 197 750 197 797 z "},"≈":{"ha":889,"x_min":103,"x_max":788,"o":"m 622 446 q 544 456 581 446 q 458 483 507 465 q 360 514 399 504 q 274 524 322 524 q 103 456 175 524 l 103 622 q 274 681 179 681 q 381 669 335 681 q 490 635 428 657 q 566 610 539 618 q 622 603 593 603 q 788 668 714 603 l 788 503 q 622 446 718 446 m 622 146 q 544 156 581 146 q 458 183 507 165 q 360 214 399 204 q 274 224 322 224 q 103 156 175 224 l 103 322 q 274 381 179 381 q 381 369 335 381 q 490 335 428 357 q 566 310 539 318 q 622 303 593 303 q 788 368 714 303 l 788 203 q 622 146 718 146 z "},"≥":{"ha":889,"x_min":114,"x_max":774,"o":"m 122 246 l 122 400 l 579 518 l 122 638 l 122 792 l 764 594 l 764 440 l 122 246 m 114 199 l 774 199 l 774 56 l 114 56 l 114 199 z "},"≤":{"ha":889,"x_min":114,"x_max":774,"o":"m 765 792 l 765 638 l 308 518 l 765 400 l 765 246 l 124 440 l 124 594 l 765 792 m 114 199 l 774 199 l 774 56 l 114 56 l 114 199 z "},"≠":{"ha":889,"x_min":103,"x_max":788,"o":"m 103 632 l 517 632 l 624 792 l 725 717 l 668 632 l 788 632 l 788 479 l 567 479 l 464 326 l 788 326 l 788 174 l 363 174 l 254 13 l 153 86 l 211 174 l 103 174 l 103 326 l 313 326 l 415 479 l 103 479 l 103 632 z "},"̈":{"ha":0,"x_min":69,"x_max":493,"o":"m 322 969 l 493 969 l 493 789 l 322 789 l 322 969 m 69 969 l 240 969 l 240 789 l 69 789 l 69 969 z "},"̇":{"ha":0,"x_min":69,"x_max":274,"o":"m 69 969 l 274 969 l 274 789 l 69 789 l 69 969 z "},"̀":{"ha":0,"x_min":69,"x_max":343,"o":"m 69 989 l 247 989 l 343 783 l 178 783 l 69 989 z "},"́":{"ha":0,"x_min":69,"x_max":343,"o":"m 164 989 l 343 989 l 235 783 l 69 783 l 164 989 z "},"̋":{"ha":0,"x_min":69,"x_max":500,"o":"m 142 989 l 283 989 l 199 783 l 69 783 l 142 989 m 358 989 l 500 989 l 415 783 l 286 783 l 358 989 z "},"̂":{"ha":0,"x_min":69,"x_max":519,"o":"m 175 989 l 414 989 l 519 783 l 354 783 l 294 915 l 235 783 l 69 783 l 175 989 z "},"̌":{"ha":0,"x_min":69,"x_max":519,"o":"m 69 989 l 235 989 l 296 858 l 354 989 l 519 989 l 414 783 l 175 783 l 69 989 z "},"̆":{"ha":0,"x_min":69,"x_max":500,"o":"m 285 778 q 124 831 179 778 q 69 989 69 885 l 211 989 q 229 922 211 943 q 285 900 247 900 q 340 922 322 900 q 358 989 358 943 l 500 989 q 445 831 500 885 q 285 778 390 778 z "},"̊":{"ha":0,"x_min":69,"x_max":410,"o":"m 239 749 q 117 795 165 749 q 69 913 69 842 q 117 1031 69 985 q 239 1078 165 1078 q 362 1031 314 1078 q 410 913 410 985 q 362 795 410 842 q 239 749 314 749 m 176 913 q 194 867 176 885 q 239 849 211 849 q 285 866 267 849 q 303 913 303 883 q 285 960 303 942 q 239 978 267 978 q 194 960 211 978 q 176 913 176 942 z "},"̃":{"ha":0,"x_min":69,"x_max":581,"o":"m 438 781 q 336 807 389 781 l 297 828 q 259 845 275 839 q 226 851 243 851 q 195 842 207 851 q 183 811 183 832 l 183 788 l 69 788 l 69 840 q 111 956 69 922 q 213 989 153 989 q 314 963 261 989 l 351 942 q 424 918 396 918 q 455 928 443 918 q 467 958 467 938 l 467 981 l 581 981 l 581 929 q 539 814 581 847 q 438 781 497 781 z "},"̄":{"ha":0,"x_min":69,"x_max":507,"o":"m 69 938 l 507 938 l 507 814 l 69 814 l 69 938 z "},"̒":{"ha":0,"x_min":69,"x_max":267,"o":"m 69 953 q 98 1015 69 994 q 178 1035 126 1035 l 267 1035 l 267 961 l 199 961 q 183 956 188 961 q 179 940 179 951 l 179 903 l 267 903 l 267 767 l 69 767 l 69 953 z "},"̦":{"ha":0,"x_min":69,"x_max":267,"o":"m 69 -203 l 138 -203 q 157 -187 157 -203 l 157 -165 l 69 -165 l 69 -47 l 267 -47 l 267 -176 q 240 -249 267 -229 q 158 -268 213 -268 l 69 -268 l 69 -203 z "},"̧":{"ha":0,"x_min":69,"x_max":361,"o":"m 69 -175 l 178 -175 q 218 -164 203 -175 q 233 -135 233 -153 q 222 -112 233 -121 q 193 -103 211 -103 l 147 -103 l 200 36 l 321 36 l 288 -40 q 361 -143 361 -64 q 314 -233 361 -196 q 197 -269 267 -269 l 69 -269 l 69 -175 z "},"̨":{"ha":0,"x_min":69,"x_max":318,"o":"m 229 -269 q 113 -236 156 -269 q 69 -146 69 -203 q 110 -43 69 -93 q 236 63 151 7 l 311 13 q 214 -110 214 -68 q 267 -151 214 -151 l 318 -151 l 318 -269 l 229 -269 z "}," ":{"ha":1389,"x_min":0,"x_max":0,"o":""}," ":{"ha":694,"x_min":0,"x_max":0,"o":""}," ":{"ha":347,"x_min":0,"x_max":0,"o":""}," ":{"ha":58,"x_min":0,"x_max":0,"o":""}," ":{"ha":174,"x_min":0,"x_max":0,"o":""}," ":{"ha":463,"x_min":0,"x_max":0,"o":""},"❶":{"ha":1468,"x_min":68,"x_max":1400,"o":"m 735 -181 q 394 -94 546 -181 q 155 145 242 -7 q 68 486 68 297 q 155 827 68 675 q 394 1066 242 979 q 735 1153 546 1153 q 1075 1066 924 1153 q 1313 827 1226 979 q 1400 486 1400 675 q 1313 145 1400 297 q 1075 -94 1226 -7 q 735 -181 924 -181 m 993 150 l 993 279 l 826 279 l 826 860 l 568 860 l 568 728 l 689 728 l 689 279 l 513 279 l 513 150 l 993 150 z "},"❷":{"ha":1468,"x_min":68,"x_max":1400,"o":"m 735 -181 q 394 -94 546 -181 q 155 145 242 -7 q 68 486 68 297 q 155 827 68 675 q 394 1066 242 979 q 735 1153 546 1153 q 1075 1066 924 1153 q 1313 827 1226 979 q 1400 486 1400 675 q 1313 145 1400 297 q 1075 -94 1226 -7 q 735 -181 924 -181 m 1001 150 l 1001 279 l 638 279 l 638 317 q 655 368 638 349 q 711 399 672 388 l 839 438 q 962 513 914 460 q 1010 643 1010 567 q 942 801 1010 742 q 765 860 874 860 l 529 860 l 529 731 l 765 731 q 840 706 813 731 q 868 642 868 682 q 845 583 868 604 q 772 546 822 561 l 671 518 q 540 441 585 493 q 494 293 494 389 l 494 150 l 1001 150 z "},"❸":{"ha":1468,"x_min":68,"x_max":1400,"o":"m 735 -181 q 394 -94 546 -181 q 155 145 242 -7 q 68 486 68 297 q 155 827 68 675 q 394 1066 242 979 q 735 1153 546 1153 q 1075 1066 924 1153 q 1313 827 1226 979 q 1400 486 1400 675 q 1313 145 1400 297 q 1075 -94 1226 -7 q 735 -181 924 -181 m 800 731 l 629 574 l 629 463 l 742 463 q 837 439 804 463 q 869 372 869 415 q 836 304 869 329 q 740 279 803 279 l 507 279 l 507 150 l 740 150 q 935 212 860 150 q 1011 374 1011 274 q 955 512 1011 458 q 801 571 899 565 l 983 731 l 983 860 l 497 860 l 497 731 l 800 731 z "},"❹":{"ha":1468,"x_min":68,"x_max":1400,"o":"m 735 -181 q 394 -94 546 -181 q 155 145 242 -7 q 68 486 68 297 q 155 827 68 675 q 394 1066 242 979 q 735 1153 546 1153 q 1075 1066 924 1153 q 1313 827 1226 979 q 1400 486 1400 675 q 1313 145 1400 297 q 1075 -94 1226 -7 q 735 -181 924 -181 m 783 344 l 783 150 l 921 150 l 921 344 l 1026 344 l 1026 468 l 921 468 l 921 860 l 732 860 l 421 468 l 421 344 l 783 344 m 783 740 l 783 468 l 567 468 l 783 740 z "},"❺":{"ha":1468,"x_min":68,"x_max":1400,"o":"m 735 -181 q 394 -94 546 -181 q 155 145 242 -7 q 68 486 68 297 q 155 827 68 675 q 394 1066 242 979 q 735 1153 546 1153 q 1075 1066 924 1153 q 1313 827 1226 979 q 1400 486 1400 675 q 1313 145 1400 297 q 1075 -94 1226 -7 q 735 -181 924 -181 m 742 150 q 877 179 818 150 q 969 261 936 208 q 1001 382 1001 314 q 934 541 1001 479 q 761 603 867 603 l 667 603 l 667 731 l 972 731 l 972 860 l 529 860 l 529 478 l 742 478 q 828 451 797 478 q 860 378 860 424 q 827 306 860 333 q 742 279 794 279 l 513 279 l 513 150 l 742 150 z "},"❻":{"ha":1468,"x_min":68,"x_max":1400,"o":"m 735 -181 q 394 -94 546 -181 q 155 145 242 -7 q 68 486 68 297 q 155 827 68 675 q 394 1066 242 979 q 735 1153 546 1153 q 1075 1066 924 1153 q 1313 827 1226 979 q 1400 486 1400 675 q 1313 145 1400 297 q 1075 -94 1226 -7 q 735 -181 924 -181 m 442 472 q 520 222 442 308 q 724 135 599 135 q 863 167 801 135 q 958 255 924 199 q 992 381 992 311 q 960 503 992 449 q 872 587 929 557 q 743 617 815 617 q 648 599 689 617 q 582 553 607 582 q 633 688 588 644 q 788 731 679 731 l 935 731 l 935 860 l 788 860 q 442 472 442 860 m 590 376 q 626 460 590 428 q 719 492 663 492 q 815 459 778 492 q 851 375 851 426 q 815 290 851 322 q 719 257 778 257 q 626 290 663 257 q 590 376 590 324 z "},"❼":{"ha":1468,"x_min":68,"x_max":1400,"o":"m 735 -181 q 394 -94 546 -181 q 155 145 242 -7 q 68 486 68 297 q 155 827 68 675 q 394 1066 242 979 q 735 1153 546 1153 q 1075 1066 924 1153 q 1313 827 1226 979 q 1400 486 1400 675 q 1313 145 1400 297 q 1075 -94 1226 -7 q 735 -181 924 -181 m 824 731 l 763 672 q 672 555 701 614 q 635 438 643 496 q 628 292 628 379 l 628 150 l 769 150 l 769 300 q 795 491 769 424 q 883 617 821 558 l 1011 731 l 1011 860 l 485 860 l 485 731 l 824 731 z "},"❽":{"ha":1468,"x_min":68,"x_max":1400,"o":"m 735 -181 q 394 -94 546 -181 q 155 145 242 -7 q 68 486 68 297 q 155 827 68 675 q 394 1066 242 979 q 735 1153 546 1153 q 1075 1066 924 1153 q 1313 827 1226 979 q 1400 486 1400 675 q 1313 145 1400 297 q 1075 -94 1226 -7 q 735 -181 924 -181 m 456 358 q 530 195 456 256 q 738 135 604 135 q 944 195 869 135 q 1018 358 1018 256 q 986 461 1018 414 q 904 528 954 508 q 973 586 949 546 q 997 676 997 626 q 926 820 997 765 q 738 875 854 875 q 548 820 619 875 q 476 676 476 765 q 501 586 476 626 q 569 528 525 546 q 488 461 519 507 q 456 358 456 415 m 596 361 q 633 439 596 410 q 738 468 671 468 q 840 439 803 468 q 878 361 878 410 q 840 282 878 313 q 738 251 803 251 q 633 282 671 251 q 596 361 596 313 m 617 669 q 649 734 617 710 q 738 758 681 758 q 825 734 793 758 q 857 669 857 710 q 825 606 857 629 q 738 582 793 582 q 649 606 682 582 q 617 669 617 629 z "},"❾":{"ha":1468,"x_min":68,"x_max":1400,"o":"m 735 -181 q 394 -94 546 -181 q 155 145 242 -7 q 68 486 68 297 q 155 827 68 675 q 394 1066 242 979 q 735 1153 546 1153 q 1075 1066 924 1153 q 1313 827 1226 979 q 1400 486 1400 675 q 1313 145 1400 297 q 1075 -94 1226 -7 q 735 -181 924 -181 m 482 629 q 513 507 482 561 q 601 423 544 453 q 731 393 658 393 q 827 411 786 393 q 893 458 868 429 q 842 323 888 367 q 686 279 796 279 l 539 279 l 539 150 l 686 150 q 950 253 867 150 q 1033 538 1033 356 q 955 788 1033 701 q 751 875 876 875 q 612 843 674 875 q 516 755 550 811 q 482 629 482 699 m 624 635 q 660 720 624 688 q 754 753 697 753 q 847 719 811 753 q 883 633 883 686 q 847 550 883 582 q 754 518 811 518 q 660 551 697 518 q 624 635 624 583 z "},"①":{"ha":1468,"x_min":68,"x_max":1400,"o":"m 735 -181 q 394 -94 546 -181 q 155 145 242 -7 q 68 486 68 297 q 155 827 68 675 q 394 1066 242 979 q 735 1153 546 1153 q 1075 1066 924 1153 q 1313 827 1226 979 q 1400 486 1400 675 q 1313 145 1400 297 q 1075 -94 1226 -7 q 735 -181 924 -181 m 214 486 q 282 214 214 336 q 469 22 350 92 q 735 -47 588 -47 q 999 22 881 -47 q 1186 214 1118 92 q 1254 486 1254 336 q 1186 758 1254 636 q 999 950 1118 881 q 735 1019 881 1019 q 469 950 588 1019 q 282 758 350 881 q 214 486 214 636 m 513 279 l 689 279 l 689 728 l 568 728 l 568 860 l 828 860 l 828 279 l 993 279 l 993 150 l 513 150 l 513 279 z "},"②":{"ha":1468,"x_min":68,"x_max":1400,"o":"m 735 -181 q 394 -94 546 -181 q 155 145 242 -7 q 68 486 68 297 q 155 827 68 675 q 394 1066 242 979 q 735 1153 546 1153 q 1075 1066 924 1153 q 1313 827 1226 979 q 1400 486 1400 675 q 1313 145 1400 297 q 1075 -94 1226 -7 q 735 -181 924 -181 m 214 486 q 282 214 214 336 q 469 22 350 92 q 735 -47 588 -47 q 999 22 881 -47 q 1186 214 1118 92 q 1254 486 1254 336 q 1186 758 1254 636 q 999 950 1118 881 q 735 1019 881 1019 q 469 950 588 1019 q 282 758 350 881 q 214 486 214 636 m 494 293 q 540 441 494 389 q 671 518 585 493 l 772 546 q 845 583 822 561 q 868 642 868 604 q 840 706 868 682 q 765 731 813 731 l 528 731 l 528 860 l 765 860 q 942 801 874 860 q 1010 643 1010 742 q 962 513 1010 567 q 839 438 914 460 l 711 399 q 655 369 672 388 q 638 317 638 350 l 638 279 l 1001 279 l 1001 150 l 494 150 l 494 293 z "},"③":{"ha":1468,"x_min":68,"x_max":1400,"o":"m 735 -181 q 394 -94 546 -181 q 155 145 242 -7 q 68 486 68 297 q 155 827 68 675 q 394 1066 242 979 q 735 1153 546 1153 q 1075 1066 924 1153 q 1313 827 1226 979 q 1400 486 1400 675 q 1313 145 1400 297 q 1075 -94 1226 -7 q 735 -181 924 -181 m 214 486 q 282 214 214 336 q 469 22 350 92 q 735 -47 588 -47 q 999 22 881 -47 q 1186 214 1118 92 q 1254 486 1254 336 q 1186 758 1254 636 q 999 950 1118 881 q 735 1019 881 1019 q 469 950 588 1019 q 282 758 350 881 q 214 486 214 636 m 496 860 l 983 860 l 983 731 l 801 572 q 954 513 897 568 q 1011 374 1011 458 q 976 256 1011 307 q 880 178 942 206 q 740 150 818 150 l 506 150 l 506 279 l 740 279 q 835 304 801 279 q 869 372 869 329 q 837 439 869 415 q 742 463 804 463 l 628 463 l 628 574 l 799 731 l 496 731 l 496 860 z "},"④":{"ha":1468,"x_min":68,"x_max":1400,"o":"m 735 -181 q 394 -94 546 -181 q 155 145 242 -7 q 68 486 68 297 q 155 827 68 675 q 394 1066 242 979 q 735 1153 546 1153 q 1075 1066 924 1153 q 1313 827 1226 979 q 1400 486 1400 675 q 1313 145 1400 297 q 1075 -94 1226 -7 q 735 -181 924 -181 m 214 486 q 282 214 214 336 q 469 22 350 92 q 735 -47 588 -47 q 999 22 881 -47 q 1186 214 1118 92 q 1254 486 1254 336 q 1186 758 1254 636 q 999 950 1118 881 q 735 1019 881 1019 q 469 950 588 1019 q 282 758 350 881 q 214 486 214 636 m 419 468 l 732 860 l 919 860 l 919 468 l 1026 468 l 1026 344 l 919 344 l 919 150 l 783 150 l 783 344 l 419 344 l 419 468 m 783 468 l 783 742 l 567 468 l 783 468 z "},"⑤":{"ha":1468,"x_min":68,"x_max":1400,"o":"m 735 -181 q 394 -94 546 -181 q 155 145 242 -7 q 68 486 68 297 q 155 827 68 675 q 394 1066 242 979 q 735 1153 546 1153 q 1075 1066 924 1153 q 1313 827 1226 979 q 1400 486 1400 675 q 1313 145 1400 297 q 1075 -94 1226 -7 q 735 -181 924 -181 m 214 486 q 282 214 214 336 q 469 22 350 92 q 735 -47 588 -47 q 999 22 881 -47 q 1186 214 1118 92 q 1254 486 1254 336 q 1186 758 1254 636 q 999 950 1118 881 q 735 1019 881 1019 q 469 950 588 1019 q 282 758 350 881 q 214 486 214 636 m 513 279 l 742 279 q 827 306 794 279 q 860 378 860 333 q 828 451 860 424 q 742 478 797 478 l 529 478 l 529 860 l 972 860 l 972 731 l 667 731 l 667 603 l 761 603 q 934 541 867 603 q 1001 382 1001 479 q 969 261 1001 314 q 877 179 936 208 q 742 150 818 150 l 513 150 l 513 279 z "},"⑥":{"ha":1468,"x_min":68,"x_max":1400,"o":"m 735 -181 q 394 -94 546 -181 q 155 145 242 -7 q 68 486 68 297 q 155 827 68 675 q 394 1066 242 979 q 735 1153 546 1153 q 1075 1066 924 1153 q 1313 827 1226 979 q 1400 486 1400 675 q 1313 145 1400 297 q 1075 -94 1226 -7 q 735 -181 924 -181 m 214 486 q 282 214 214 336 q 469 22 350 92 q 735 -47 588 -47 q 999 22 881 -47 q 1186 214 1118 92 q 1254 486 1254 336 q 1186 758 1254 636 q 999 950 1118 881 q 735 1019 881 1019 q 469 950 588 1019 q 282 758 350 881 q 214 486 214 636 m 442 472 q 788 860 442 860 l 935 860 l 935 731 l 788 731 q 633 688 679 731 q 582 557 588 646 q 648 600 607 583 q 743 617 689 617 q 872 587 815 617 q 960 503 929 557 q 992 381 992 449 q 958 255 992 311 q 863 167 924 199 q 724 135 801 135 q 520 222 599 135 q 442 472 442 308 m 589 376 q 626 290 589 324 q 719 257 663 257 q 815 290 778 257 q 851 375 851 322 q 815 459 851 426 q 719 492 778 492 q 625 460 661 492 q 589 376 589 428 z "},"⑦":{"ha":1468,"x_min":68,"x_max":1400,"o":"m 735 -181 q 394 -94 546 -181 q 155 145 242 -7 q 68 486 68 297 q 155 827 68 675 q 394 1066 242 979 q 735 1153 546 1153 q 1075 1066 924 1153 q 1313 827 1226 979 q 1400 486 1400 675 q 1313 145 1400 297 q 1075 -94 1226 -7 q 735 -181 924 -181 m 214 486 q 282 214 214 336 q 469 22 350 92 q 735 -47 588 -47 q 999 22 881 -47 q 1186 214 1118 92 q 1254 486 1254 336 q 1186 758 1254 636 q 999 950 1118 881 q 735 1019 881 1019 q 469 950 588 1019 q 282 758 350 881 q 214 486 214 636 m 486 860 l 1013 860 l 1013 731 l 885 617 q 796 491 821 558 q 771 300 771 424 l 771 150 l 629 150 l 629 292 q 637 438 629 379 q 674 555 644 496 q 764 672 703 614 l 825 731 l 486 731 l 486 860 z "},"⑧":{"ha":1468,"x_min":68,"x_max":1400,"o":"m 735 -181 q 394 -94 546 -181 q 155 145 242 -7 q 68 486 68 297 q 155 827 68 675 q 394 1066 242 979 q 735 1153 546 1153 q 1075 1066 924 1153 q 1313 827 1226 979 q 1400 486 1400 675 q 1313 145 1400 297 q 1075 -94 1226 -7 q 735 -181 924 -181 m 214 486 q 282 214 214 336 q 469 22 350 92 q 735 -47 588 -47 q 999 22 881 -47 q 1186 214 1118 92 q 1254 486 1254 336 q 1186 758 1254 636 q 999 950 1118 881 q 735 1019 881 1019 q 469 950 588 1019 q 282 758 350 881 q 214 486 214 636 m 456 358 q 488 460 456 414 q 571 528 521 507 q 501 587 526 546 q 476 676 476 628 q 548 820 476 765 q 738 875 619 875 q 926 820 854 875 q 999 676 999 765 q 974 587 999 628 q 904 528 949 546 q 987 461 954 508 q 1019 358 1019 414 q 944 195 1019 256 q 738 135 869 135 q 531 195 606 135 q 456 358 456 256 m 597 361 q 634 282 597 313 q 738 251 671 251 q 841 282 804 251 q 878 361 878 313 q 841 440 878 411 q 738 468 804 468 q 634 439 671 468 q 597 361 597 410 m 618 669 q 650 606 618 629 q 738 582 682 582 q 825 606 793 582 q 857 669 857 629 q 826 734 857 710 q 738 758 794 758 q 650 734 682 758 q 618 669 618 710 z "},"⑨":{"ha":1468,"x_min":68,"x_max":1400,"o":"m 735 -181 q 394 -94 546 -181 q 155 145 242 -7 q 68 486 68 297 q 155 827 68 675 q 394 1066 242 979 q 735 1153 546 1153 q 1075 1066 924 1153 q 1313 827 1226 979 q 1400 486 1400 675 q 1313 145 1400 297 q 1075 -94 1226 -7 q 735 -181 924 -181 m 214 486 q 282 214 214 336 q 469 22 350 92 q 735 -47 588 -47 q 999 22 881 -47 q 1186 214 1118 92 q 1254 486 1254 336 q 1186 758 1254 636 q 999 950 1118 881 q 735 1019 881 1019 q 469 950 588 1019 q 282 758 350 881 q 214 486 214 636 m 482 629 q 516 755 482 699 q 611 843 550 811 q 750 875 672 875 q 896 837 832 875 q 997 723 960 799 q 1033 538 1033 647 q 950 253 1033 356 q 686 150 867 150 l 539 150 l 539 279 l 686 279 q 840 322 794 279 q 892 454 886 364 q 826 410 868 426 q 729 393 785 393 q 601 423 657 393 q 513 507 544 453 q 482 629 482 561 m 624 635 q 660 551 624 583 q 753 518 696 518 q 847 550 811 518 q 883 633 883 582 q 847 719 883 686 q 753 753 811 753 q 660 720 696 753 q 624 635 624 688 z "},"¹":{"ha":585,"x_min":42,"x_max":546,"o":"m 42 535 l 217 535 l 217 890 l 97 890 l 97 1056 l 389 1056 l 389 535 l 546 535 l 546 375 l 42 375 l 42 535 z "},"²":{"ha":633,"x_min":43,"x_max":592,"o":"m 43 533 q 90 676 43 628 q 224 747 136 725 l 331 774 q 396 799 376 785 q 415 838 415 814 q 391 879 415 863 q 326 896 367 896 l 78 896 l 78 1056 l 326 1056 q 517 997 443 1056 q 592 839 592 939 q 542 714 592 767 q 413 639 493 661 l 276 601 q 233 584 246 593 q 221 560 221 575 l 221 535 l 581 535 l 581 375 l 43 375 l 43 533 z "},"³":{"ha":626,"x_min":38,"x_max":581,"o":"m 49 535 l 319 535 q 383 551 361 535 q 406 594 406 567 q 383 634 406 619 q 318 649 360 649 l 174 649 l 174 788 l 319 896 l 38 896 l 38 1056 l 551 1056 l 551 896 l 399 779 q 532 718 483 769 q 581 592 581 667 q 544 480 581 529 q 442 403 507 431 q 296 375 378 375 l 49 375 l 49 535 z "},"﻿":{"ha":0,"x_min":0,"x_max":0,"o":""}," ":{"ha":889,"x_min":0,"x_max":0,"o":""}," ":{"ha":408,"x_min":0,"x_max":0,"o":""}," ":{"ha":344,"x_min":0,"x_max":0,"o":""},"​":{"ha":0,"x_min":0,"x_max":0,"o":""},"₍":{"ha":497,"x_min":100,"x_max":442,"o":"m 432 -267 q 262 -209 338 -267 q 143 -39 186 -151 q 100 233 100 74 q 143 506 100 393 q 262 676 186 618 q 432 733 338 733 l 442 733 l 442 588 l 432 588 q 347 547 386 588 q 285 425 308 506 q 261 233 261 344 q 285 42 261 122 q 347 -81 308 -39 q 432 -122 386 -122 l 442 -122 l 442 -267 l 432 -267 z "},"₎":{"ha":497,"x_min":56,"x_max":396,"o":"m 65 733 q 235 676 160 733 q 353 506 310 619 q 396 233 396 393 q 353 -39 396 74 q 235 -209 310 -151 q 65 -267 160 -267 l 56 -267 l 56 -122 l 65 -122 q 150 -81 111 -122 q 213 42 189 -39 q 236 233 236 122 q 213 424 236 344 q 150 546 189 504 q 65 588 111 588 l 56 588 l 56 733 l 65 733 z "},"⁽":{"ha":497,"x_min":100,"x_max":442,"o":"m 432 192 q 262 249 338 192 q 143 419 186 307 q 100 692 100 532 q 143 964 100 851 q 262 1134 186 1076 q 432 1192 338 1192 l 442 1192 l 442 1046 l 432 1046 q 347 1005 386 1046 q 285 883 308 964 q 261 692 261 803 q 285 500 261 581 q 347 378 308 419 q 432 336 386 336 l 442 336 l 442 192 l 432 192 z "},"⁾":{"ha":497,"x_min":56,"x_max":396,"o":"m 65 1192 q 235 1135 160 1192 q 353 965 310 1078 q 396 692 396 851 q 353 419 396 532 q 235 249 310 307 q 65 192 160 192 l 56 192 l 56 336 l 65 336 q 150 378 111 336 q 213 500 189 419 q 236 692 236 581 q 213 883 236 803 q 150 1004 189 963 q 65 1046 111 1046 l 56 1046 l 56 1192 l 65 1192 z "},"☠":{"ha":1413,"x_min":115,"x_max":1296,"o":"m 115 1076 l 1296 1076 l 1296 -104 l 115 -104 l 115 1076 m 364 774 l 364 717 l 482 717 l 482 835 l 425 835 l 425 1010 l 307 1010 l 307 892 l 189 892 l 189 774 l 364 774 m 321 82 l 321 -36 l 439 -36 l 439 139 l 496 139 l 496 257 l 378 257 l 378 200 l 203 200 l 203 82 l 321 82 m 478 343 l 478 265 l 606 265 l 606 219 l 804 219 l 804 265 l 932 265 l 932 343 l 1015 343 l 1015 467 l 988 467 l 988 642 l 918 642 l 918 732 l 835 732 l 835 815 l 575 815 l 575 732 l 492 732 l 492 642 l 418 642 l 418 467 l 390 467 l 390 343 l 478 343 m 450 542 l 644 542 l 644 375 l 450 375 l 450 542 m 804 113 l 804 175 l 606 175 l 606 113 l 804 113 m 642 322 l 665 322 l 665 364 l 683 364 l 683 404 l 714 404 l 714 364 l 733 364 l 733 322 l 757 322 l 757 296 l 642 296 l 642 322 m 753 542 l 947 542 l 947 375 l 753 375 l 753 542 m 985 139 l 985 -36 l 1103 -36 l 1103 82 l 1221 82 l 1221 200 l 1044 200 l 1044 257 l 926 257 l 926 139 l 985 139 m 1044 717 l 1044 774 l 1221 774 l 1221 892 l 1103 892 l 1103 1010 l 985 1010 l 985 835 l 926 835 l 926 717 l 1044 717 z "},"℀":{"ha":1343,"x_min":68,"x_max":1275,"o":"m 1000 972 l 1167 972 l 429 0 l 263 0 l 1000 972 m 68 635 q 117 749 68 707 q 258 797 165 792 l 386 804 l 386 824 q 369 865 386 851 q 317 878 353 878 q 246 835 253 878 l 93 835 q 328 994 110 994 q 478 951 424 994 q 532 832 532 908 l 532 626 q 544 614 532 614 l 592 614 l 592 493 l 483 493 q 442 504 458 493 q 424 536 426 515 q 360 494 401 510 q 268 478 319 478 q 122 520 176 478 q 68 635 68 563 m 215 646 q 289 594 215 594 q 359 617 332 594 q 386 683 386 639 l 386 704 l 283 696 q 233 680 251 694 q 215 646 215 665 m 764 235 q 797 370 764 311 q 891 462 831 429 q 1031 494 951 494 q 1199 442 1133 494 q 1274 304 1265 390 l 1117 304 q 1088 341 1111 326 q 1029 356 1064 356 q 951 324 979 356 q 922 235 922 292 q 951 149 922 179 q 1028 118 979 118 q 1089 134 1064 118 q 1119 178 1114 150 l 1275 178 q 1236 79 1268 125 q 1149 6 1204 33 q 1024 -22 1094 -22 q 885 11 944 -22 q 795 103 826 44 q 764 235 764 161 z "},"℗":{"ha":1468,"x_min":68,"x_max":1400,"o":"m 522 813 l 810 813 q 969 758 910 813 q 1029 608 1029 703 q 969 458 1029 514 q 810 403 910 403 l 660 403 l 660 172 l 522 172 l 522 813 m 68 486 q 155 827 68 675 q 394 1066 242 979 q 735 1153 546 1153 q 1075 1066 924 1153 q 1313 827 1226 979 q 1400 486 1400 675 q 1313 145 1400 297 q 1075 -94 1226 -7 q 735 -181 924 -181 q 394 -94 546 -181 q 155 145 242 -7 q 68 486 68 297 m 214 486 q 282 214 214 336 q 469 22 350 92 q 735 -47 588 -47 q 999 22 881 -47 q 1186 214 1118 92 q 1254 486 1254 336 q 1186 758 1254 636 q 999 950 1118 881 q 735 1019 881 1019 q 469 950 588 1019 q 282 758 350 881 q 214 486 214 636 m 803 531 q 865 551 843 531 q 888 608 888 572 q 865 665 888 644 q 803 685 842 685 l 660 685 l 660 531 l 803 531 z "},"℅":{"ha":1313,"x_min":69,"x_max":1244,"o":"m 936 972 l 1103 972 l 365 0 l 199 0 l 936 972 m 69 735 q 103 870 69 811 q 197 962 136 929 q 336 994 257 994 q 505 942 439 994 q 579 804 571 890 l 422 804 q 393 841 417 826 q 335 856 369 856 q 256 824 285 856 q 228 735 228 792 q 256 649 228 679 q 333 618 285 618 q 394 634 369 618 q 425 678 419 650 l 581 678 q 542 579 574 625 q 455 506 510 533 q 329 478 400 478 q 191 511 250 478 q 101 603 132 544 q 69 735 69 661 m 697 236 q 732 372 697 313 q 828 463 767 431 q 971 494 890 494 q 1113 462 1050 494 q 1210 371 1175 429 q 1244 236 1244 313 q 1210 101 1244 160 q 1113 10 1175 43 q 971 -22 1050 -22 q 828 10 890 -22 q 732 101 767 42 q 697 236 697 160 m 856 236 q 888 151 856 183 q 971 118 919 118 q 1054 151 1022 118 q 1086 236 1086 183 q 1054 322 1086 289 q 971 356 1022 356 q 888 322 919 356 q 856 236 856 289 z "},"′":{"ha":482,"x_min":99,"x_max":383,"o":"m 169 985 l 383 985 l 240 594 l 99 594 l 169 985 z "},"″":{"ha":774,"x_min":99,"x_max":675,"o":"m 461 985 l 675 985 l 532 594 l 390 594 l 461 985 m 169 985 l 383 985 l 240 594 l 99 594 l 169 985 z "},"⌛":{"ha":889,"x_min":28,"x_max":863,"o":"m 29 14 l 85 14 l 85 168 l 119 168 l 119 251 l 189 251 l 189 335 l 258 335 l 258 418 l 310 418 l 310 557 l 258 557 l 258 640 l 189 640 l 189 724 l 119 724 l 119 807 l 85 807 l 85 958 l 28 958 l 28 1042 l 861 1042 l 861 958 l 807 958 l 807 807 l 772 807 l 772 724 l 703 724 l 703 640 l 633 640 l 633 557 l 582 557 l 582 418 l 633 418 l 633 335 l 703 335 l 703 251 l 772 251 l 772 168 l 807 168 l 807 14 l 863 14 l 863 -69 l 29 -69 l 29 14 m 731 14 l 731 168 l 661 168 l 661 251 l 592 251 l 592 335 l 540 335 l 540 418 l 506 418 l 506 557 l 540 557 l 540 640 l 592 640 l 592 724 l 661 724 l 661 807 l 731 807 l 731 958 l 161 958 l 161 807 l 231 807 l 231 724 l 300 724 l 300 640 l 351 640 l 351 557 l 386 557 l 386 418 l 351 418 l 351 335 l 300 335 l 300 251 l 231 251 l 231 168 l 161 168 l 161 14 l 731 14 m 203 126 l 272 126 l 272 210 l 342 210 l 342 293 l 393 293 l 393 376 l 499 376 l 499 293 l 550 293 l 550 210 l 619 210 l 619 126 l 693 126 l 693 56 l 203 56 l 203 126 z "},"⏳":{"ha":889,"x_min":28,"x_max":863,"o":"m 28 1042 l 861 1042 l 861 958 l 807 958 l 807 807 l 772 807 l 772 724 l 703 724 l 703 640 l 633 640 l 633 557 l 582 557 l 582 418 l 633 418 l 633 335 l 703 335 l 703 251 l 772 251 l 772 168 l 807 168 l 807 14 l 863 14 l 863 -69 l 29 -69 l 29 14 l 85 14 l 85 168 l 119 168 l 119 251 l 189 251 l 189 335 l 258 335 l 258 418 l 310 418 l 310 557 l 258 557 l 258 640 l 189 640 l 189 724 l 119 724 l 119 807 l 85 807 l 85 958 l 28 958 l 28 1042 m 731 14 l 731 168 l 661 168 l 661 251 l 592 251 l 592 335 l 540 335 l 540 418 l 506 418 l 506 557 l 540 557 l 540 640 l 592 640 l 592 724 l 661 724 l 661 807 l 731 807 l 731 958 l 161 958 l 161 807 l 231 807 l 231 724 l 300 724 l 300 640 l 351 640 l 351 557 l 386 557 l 386 418 l 351 418 l 351 335 l 300 335 l 300 251 l 231 251 l 231 168 l 161 168 l 161 14 l 731 14 m 203 126 l 272 126 l 272 168 l 342 168 l 342 210 l 393 210 l 393 251 l 428 251 l 428 596 l 393 596 l 393 679 l 342 679 l 342 763 l 272 763 l 272 846 l 619 846 l 619 763 l 550 763 l 550 679 l 499 679 l 499 596 l 464 596 l 464 251 l 499 251 l 499 210 l 550 210 l 550 168 l 619 168 l 619 126 l 693 126 l 693 56 l 203 56 l 203 126 z "},"₿":{"ha":913,"x_min":33,"x_max":833,"o":"m 33 176 l 154 176 l 154 796 l 33 796 l 33 972 l 256 972 l 256 1063 l 364 1063 l 364 972 l 475 972 l 475 1063 l 583 1063 l 583 967 q 747 888 688 951 q 806 728 806 824 q 772 603 806 660 q 682 514 738 547 q 792 426 750 485 q 833 285 833 367 q 766 95 833 172 q 583 3 699 18 l 583 -104 l 475 -104 l 475 0 l 364 0 l 364 -104 l 256 -104 l 256 0 l 33 0 l 33 176 m 501 176 q 597 210 563 176 q 631 304 631 244 q 597 392 631 361 q 501 424 564 424 l 354 424 l 354 176 l 501 176 m 486 593 q 572 619 542 593 q 603 692 603 644 q 572 769 603 743 q 486 796 540 796 l 354 796 l 354 593 l 486 593 z "},"₺":{"ha":815,"x_min":28,"x_max":788,"o":"m 126 383 l 28 347 l 28 471 l 126 508 l 126 589 l 28 553 l 28 676 l 126 714 l 126 972 l 321 972 l 321 786 l 582 883 l 582 758 l 321 661 l 321 581 l 582 678 l 582 553 l 321 456 l 321 176 l 331 176 q 522 262 451 176 q 593 486 593 347 l 788 486 q 729 228 788 338 q 565 59 671 118 q 318 0 458 0 l 126 0 l 126 383 z "},"₋":{"ha":674,"x_min":92,"x_max":582,"o":"m 92 267 l 582 267 l 582 131 l 92 131 l 92 267 z "},"⁻":{"ha":674,"x_min":92,"x_max":582,"o":"m 92 725 l 582 725 l 582 589 l 92 589 l 92 725 z "},"₊":{"ha":693,"x_min":92,"x_max":601,"o":"m 92 267 l 271 267 l 271 447 l 408 447 l 408 267 l 601 267 l 601 131 l 408 131 l 408 -51 l 271 -51 l 271 131 l 92 131 l 92 267 z "},"⁺":{"ha":693,"x_min":92,"x_max":601,"o":"m 92 725 l 271 725 l 271 906 l 408 906 l 408 725 l 601 725 l 601 589 l 408 589 l 408 407 l 271 407 l 271 589 l 92 589 l 92 725 z "},"↑":{"ha":1060,"x_min":115,"x_max":943,"o":"m 456 719 l 217 479 l 115 581 l 531 994 l 943 581 l 843 479 l 604 719 l 604 -21 l 456 -21 l 456 719 z "},"↗":{"ha":1204,"x_min":115,"x_max":1088,"o":"m 1088 386 l 946 386 l 946 725 l 221 0 l 115 104 l 840 831 l 501 831 l 501 972 l 1088 972 l 1088 386 z "},"→":{"ha":1240,"x_min":115,"x_max":1125,"o":"m 610 144 l 850 383 l 115 383 l 115 532 l 849 532 l 610 771 l 710 872 l 1125 457 l 710 44 l 610 144 z "},"↘":{"ha":1204,"x_min":115,"x_max":1088,"o":"m 946 247 l 946 586 l 1088 586 l 1088 0 l 501 0 l 501 142 l 840 142 l 115 868 l 221 972 l 946 247 z "},"↓":{"ha":1060,"x_min":117,"x_max":944,"o":"m 604 253 l 843 493 l 944 392 l 529 -22 l 117 392 l 217 493 l 456 253 l 456 993 l 604 993 l 604 253 z "},"↙":{"ha":1204,"x_min":115,"x_max":1088,"o":"m 115 586 l 258 586 l 258 247 l 983 972 l 1088 868 l 363 142 l 701 142 l 701 0 l 115 0 l 115 586 z "},"←":{"ha":1240,"x_min":115,"x_max":1125,"o":"m 631 771 l 390 532 l 1125 532 l 1125 383 l 392 383 l 631 144 l 531 43 l 115 458 l 531 871 l 631 771 z "},"↖":{"ha":1204,"x_min":115,"x_max":1088,"o":"m 258 725 l 258 386 l 115 386 l 115 972 l 701 972 l 701 831 l 363 831 l 1088 104 l 983 0 l 258 725 z "},"↔":{"ha":1576,"x_min":115,"x_max":1461,"o":"m 631 772 l 390 533 l 1125 533 l 1125 532 l 1185 532 l 946 771 l 1046 872 l 1461 457 l 1046 44 l 946 144 l 1186 383 l 451 383 l 451 385 l 392 385 l 631 146 l 531 44 l 115 460 l 531 872 l 631 772 z "},"↕":{"ha":1060,"x_min":115,"x_max":943,"o":"m 115 301 l 217 401 l 456 163 l 456 811 l 217 572 l 115 672 l 531 1088 l 943 672 l 843 572 l 604 813 l 604 161 l 843 401 l 943 301 l 531 -114 l 115 301 z "},"⇵":{"ha":1568,"x_min":115,"x_max":1451,"o":"m 999 719 l 794 514 l 693 615 l 1074 994 l 1451 615 l 1351 514 l 1147 719 l 1147 -21 l 999 -21 l 999 719 m 217 460 l 421 254 l 421 994 l 569 994 l 569 254 l 774 460 l 875 358 l 494 -21 l 115 358 l 217 460 z "},"⇹":{"ha":1553,"x_min":115,"x_max":1438,"o":"m 115 457 l 531 872 l 631 771 l 392 532 l 703 532 l 703 843 l 851 843 l 851 532 l 1161 532 l 922 771 l 1024 872 l 1438 457 l 1024 44 l 922 144 l 1163 383 l 851 383 l 851 76 l 703 76 l 703 383 l 390 383 l 631 144 l 531 44 l 115 457 z "},"↜":{"ha":1240,"x_min":115,"x_max":1125,"o":"m 115 458 l 531 872 l 631 772 l 379 531 q 556 483 461 483 q 656 497 611 483 q 760 536 701 510 q 856 572 818 561 q 940 583 894 583 q 1125 515 1049 583 l 1125 358 q 940 435 1040 435 q 875 425 906 435 q 789 392 844 415 q 672 349 724 364 q 556 333 621 333 q 408 360 479 333 l 631 146 l 531 44 l 115 458 z "},"↝":{"ha":1240,"x_min":115,"x_max":1125,"o":"m 610 146 l 832 360 q 685 333 761 333 q 568 349 619 333 q 451 392 517 364 q 365 425 396 415 q 300 435 335 435 q 115 358 200 435 l 115 515 q 300 583 192 583 q 384 572 346 583 q 481 536 422 561 q 584 497 539 510 q 685 483 629 483 q 861 531 779 483 l 610 772 l 710 872 l 1125 458 l 710 44 l 610 146 z "},"↭":{"ha":1564,"x_min":115,"x_max":1447,"o":"m 933 144 l 1174 383 l 1088 383 l 968 263 l 782 451 l 596 263 l 476 383 l 390 383 l 631 144 l 531 44 l 115 457 l 531 872 l 631 771 l 392 532 l 528 532 l 594 465 l 782 653 l 968 467 l 1036 532 l 1172 532 l 933 771 l 1033 872 l 1447 457 l 1033 44 l 933 144 z "},"↩":{"ha":1457,"x_min":115,"x_max":1342,"o":"m 115 458 l 531 872 l 631 772 l 393 535 l 1003 535 q 1133 576 1086 535 q 1181 693 1181 618 q 1133 806 1181 767 q 1003 846 1086 846 l 867 846 l 867 993 l 1004 993 q 1250 915 1158 993 q 1342 693 1342 836 q 1249 468 1342 549 q 1004 388 1157 388 l 388 388 l 631 146 l 531 44 l 115 458 z "},"↪":{"ha":1457,"x_min":115,"x_max":1342,"o":"m 826 146 l 1069 388 l 453 388 q 208 468 300 388 q 115 693 115 549 q 207 915 115 836 q 453 993 299 993 l 590 993 l 590 846 l 454 846 q 324 806 371 846 q 276 693 276 767 q 324 576 276 618 q 454 535 371 535 l 1064 535 l 826 772 l 926 872 l 1342 458 l 926 44 l 826 146 z "},"↫":{"ha":1489,"x_min":115,"x_max":1374,"o":"m 115 458 l 531 872 l 631 772 l 393 535 l 819 535 l 819 643 q 893 872 819 793 q 1093 951 967 951 q 1297 881 1221 951 q 1374 681 1374 811 q 1288 465 1374 542 q 1057 388 1203 388 l 967 388 l 967 94 l 819 94 l 819 388 l 388 388 l 631 146 l 531 44 l 115 458 m 1056 535 q 1172 573 1131 535 q 1214 681 1214 611 q 1181 772 1214 740 q 1093 804 1149 804 q 1000 763 1033 804 q 967 643 967 722 l 967 535 l 1056 535 z "},"↬":{"ha":1489,"x_min":115,"x_max":1374,"o":"m 858 146 l 1101 388 l 669 388 l 669 94 l 522 94 l 522 388 l 433 388 q 201 465 288 388 q 115 681 115 542 q 192 881 115 811 q 397 951 269 951 q 596 872 522 951 q 669 643 669 793 l 669 535 l 1096 535 l 858 772 l 960 872 l 1374 458 l 960 44 l 858 146 m 276 681 q 318 573 276 611 q 435 535 360 535 l 522 535 l 522 643 q 489 763 522 722 q 397 804 456 804 q 308 772 340 804 q 276 681 276 740 z "},"↯":{"ha":1000,"x_min":115,"x_max":883,"o":"m 115 486 l 244 546 l 378 258 l 507 611 l 257 611 l 435 972 l 585 972 l 479 758 l 717 758 l 507 206 l 824 354 l 883 225 l 353 -24 l 115 486 z "},"↰":{"ha":1308,"x_min":115,"x_max":1192,"o":"m 115 458 l 531 872 l 631 772 l 389 531 l 1192 531 l 1192 -21 l 1044 -21 l 1044 386 l 389 386 l 631 146 l 531 44 l 115 458 z "},"↱":{"ha":1308,"x_min":115,"x_max":1192,"o":"m 676 146 l 918 386 l 264 386 l 264 -21 l 115 -21 l 115 531 l 919 531 l 676 772 l 778 872 l 1192 458 l 778 44 l 676 146 z "},"↲":{"ha":1308,"x_min":115,"x_max":1192,"o":"m 115 458 l 531 871 l 631 771 l 389 531 l 1044 531 l 1044 993 l 1192 993 l 1192 386 l 389 386 l 631 144 l 531 43 l 115 458 z "},"↳":{"ha":1308,"x_min":115,"x_max":1192,"o":"m 676 144 l 919 386 l 115 386 l 115 993 l 264 993 l 264 531 l 918 531 l 676 771 l 778 871 l 1192 458 l 778 43 l 676 144 z "},"↴":{"ha":1201,"x_min":115,"x_max":1086,"o":"m 258 393 l 358 494 l 599 251 l 599 825 l 115 825 l 115 972 l 744 972 l 744 253 l 985 494 l 1086 393 l 671 -21 l 258 393 z "},"⬐":{"ha":1201,"x_min":115,"x_max":1086,"o":"m 115 393 l 217 494 l 457 253 l 457 972 l 1086 972 l 1086 825 l 603 825 l 603 251 l 843 494 l 943 393 l 531 -21 l 115 393 z "},"↶":{"ha":1129,"x_min":115,"x_max":1013,"o":"m 865 638 q 820 791 865 735 q 692 847 775 847 q 561 791 607 847 q 515 638 515 735 l 515 582 l 658 735 l 760 635 l 439 310 l 115 632 l 217 732 l 367 575 l 367 639 q 452 897 367 800 q 692 994 538 994 q 929 898 846 994 q 1013 639 1013 801 l 1013 0 l 865 0 l 865 638 z "},"↷":{"ha":1129,"x_min":115,"x_max":1013,"o":"m 115 639 q 199 898 115 801 q 438 994 283 994 q 677 897 592 994 q 763 639 763 800 l 763 575 l 913 732 l 1013 632 l 690 310 l 369 635 l 469 735 l 614 581 l 614 638 q 568 791 614 735 q 438 847 522 847 q 309 791 354 847 q 264 638 264 735 l 264 0 l 115 0 l 115 639 z "},"↺":{"ha":1504,"x_min":115,"x_max":1388,"o":"m 854 -57 q 647 -12 743 -57 q 482 113 550 33 l 568 199 q 695 110 622 142 q 854 79 768 79 q 1051 132 963 79 q 1190 278 1139 185 q 1240 486 1240 371 q 1190 694 1240 601 q 1051 840 1139 788 q 854 893 963 893 q 663 842 749 893 q 528 703 578 792 q 475 503 478 614 l 596 625 l 685 536 l 400 250 l 115 536 l 204 625 l 326 503 q 398 772 329 651 q 586 960 467 892 q 854 1029 706 1029 q 1128 958 1006 1029 q 1319 764 1250 888 q 1388 486 1388 640 q 1319 208 1388 332 q 1128 14 1250 85 q 854 -57 1006 -57 z "},"↻":{"ha":1504,"x_min":115,"x_max":1388,"o":"m 649 -57 q 375 14 497 -57 q 184 208 253 85 q 115 486 115 332 q 184 764 115 640 q 375 958 253 888 q 649 1029 497 1029 q 917 960 797 1029 q 1105 772 1036 892 q 1176 501 1174 651 l 1299 625 l 1388 536 l 1103 250 l 819 536 l 908 625 l 1029 503 q 976 702 1026 613 q 840 842 926 792 q 649 893 754 893 q 452 840 540 893 q 314 694 364 788 q 264 486 264 601 q 314 278 264 371 q 452 132 364 185 q 649 79 540 79 q 809 110 736 79 q 935 199 882 142 l 1022 113 q 858 -12 954 33 q 649 -57 761 -57 z "},"⇄":{"ha":1476,"x_min":115,"x_max":1361,"o":"m 115 739 l 496 1119 l 596 1019 l 393 815 l 1243 815 l 1243 665 l 392 665 l 596 461 l 496 361 l 115 739 m 233 253 l 1083 253 l 881 457 l 981 557 l 1361 178 l 981 -201 l 881 -101 l 1085 103 l 233 103 l 233 253 z "},"⇅":{"ha":1568,"x_min":115,"x_max":1451,"o":"m 693 358 l 794 460 l 999 254 l 999 994 l 1147 994 l 1147 254 l 1351 460 l 1451 358 l 1074 -21 l 693 358 m 494 994 l 875 615 l 774 514 l 569 719 l 569 -21 l 421 -21 l 421 719 l 217 514 l 115 615 l 494 994 z "},"⇜":{"ha":1533,"x_min":115,"x_max":1418,"o":"m 115 457 l 531 872 l 631 771 l 392 532 l 540 532 l 607 467 l 793 653 l 981 467 l 1167 653 l 1288 532 l 1418 532 l 1418 383 l 1233 383 l 1167 451 l 981 263 l 793 451 l 607 263 l 488 383 l 390 383 l 631 144 l 531 44 l 115 457 z "},"⇝":{"ha":1533,"x_min":115,"x_max":1418,"o":"m 903 144 l 1143 383 l 1046 383 l 926 263 l 740 451 l 554 263 l 367 451 l 300 383 l 115 383 l 115 532 l 246 532 l 367 653 l 554 467 l 740 653 l 928 465 l 994 532 l 1142 532 l 903 771 l 1003 872 l 1418 457 l 1003 44 l 903 144 z "},"●":{"ha":1468,"x_min":68,"x_max":1400,"o":"m 735 -181 q 394 -94 546 -181 q 155 145 242 -7 q 68 486 68 297 q 155 827 68 675 q 394 1066 242 979 q 735 1153 546 1153 q 1075 1066 924 1153 q 1313 827 1226 979 q 1400 486 1400 675 q 1313 145 1400 297 q 1075 -94 1226 -7 q 735 -181 924 -181 z "},"○":{"ha":1468,"x_min":68,"x_max":1400,"o":"m 735 -181 q 394 -94 546 -181 q 155 145 242 -7 q 68 486 68 297 q 155 827 68 675 q 394 1066 242 979 q 735 1153 546 1153 q 1075 1066 924 1153 q 1313 827 1226 979 q 1400 486 1400 675 q 1313 145 1400 297 q 1075 -94 1226 -7 q 735 -181 924 -181 m 214 486 q 282 214 214 336 q 469 22 350 92 q 735 -47 588 -47 q 999 22 881 -47 q 1186 214 1118 92 q 1254 486 1254 336 q 1186 758 1254 636 q 999 950 1118 881 q 735 1019 881 1019 q 469 950 588 1019 q 282 758 350 881 q 214 486 214 636 z "},"̣":{"ha":0,"x_min":69,"x_max":274,"o":"m 69 -71 l 274 -71 l 274 -250 l 69 -250 l 69 -71 z "},"ʻ":{"ha":336,"x_min":69,"x_max":267,"o":"m 69 953 q 98 1015 69 994 q 178 1035 126 1035 l 267 1035 l 267 961 l 199 961 q 183 956 188 961 q 179 940 179 951 l 179 903 l 267 903 l 267 767 l 69 767 l 69 953 z "}}}
